<svg width="85" height="24" viewBox="0 0 85 24" fill="none" xmlns="http://www.w3.org/2000/svg">
<path d="M64.8975 0L70.419 6.53859H79.4715V17.256L85 23.7946V0H64.8975ZM7.08333 1.60531L0 22.3947H4.63604L5.94646 18.2787H13.8125L15.2575 22.3947H19.9963L12.155 1.60531H7.08333ZM21.9902 1.60531V22.3737H26.3748V9.4139L31.1135 15.9609H31.7794L36.5181 9.43905V22.3947H40.9027V1.60531H37.0813L31.4429 9.33846L25.8081 1.60531H21.9902ZM44.2425 1.60531V22.3947H51.5277C58.5367 22.3947 61.7277 18.0105 61.7277 12.0335C61.7277 6.33322 58.4092 1.60531 51.9988 1.60531H44.2425ZM48.6235 5.41949H51.4285C55.5723 5.41949 57.2015 8.39958 57.2015 12C57.2015 15.0513 55.884 18.5889 51.4781 18.5889H48.6235V5.41949ZM9.71833 6.56374L12.5198 14.6615H7.11167L9.71833 6.56374ZM70.4119 7.85051L64.731 14.5693V24H72.6856L78.3665 17.2644H70.4119V7.85051Z" fill="#C72B44"/>
</svg>
