<svg width="23" height="23" viewBox="0 0 23 23" fill="none" xmlns="http://www.w3.org/2000/svg">
<path d="M1.8222 19.6425H3.37042V22.9998H2.69857V20.2967L2.09906 20.299H1.95495C1.62018 20.299 1.43413 20.3131 1.397 20.3411C1.1971 20.3954 1.02817 20.511 0.890224 20.688C0.741693 20.9007 0.667235 21.1125 0.667235 21.3237C0.667235 21.5845 0.767859 21.8244 0.9693 22.0432C1.10417 22.1719 1.22038 22.2496 1.31812 22.276C1.41566 22.3257 1.58382 22.3505 1.82239 22.3505H2.28973V23H1.72966C1.31427 23 0.963336 22.8907 0.676471 22.6718C0.468873 22.5072 0.330155 22.3582 0.260507 22.2249C0.0869637 21.9485 0 21.666 0 21.3773V21.2796C0 20.8759 0.151032 20.5056 0.453289 20.169C0.636067 19.9903 0.785752 19.8778 0.901768 19.8313C0.985654 19.7847 1.1009 19.7404 1.24828 19.6987C1.37988 19.661 1.57131 19.6425 1.8222 19.6425ZM6.75239 20.3129C6.81896 20.4029 6.86706 20.4796 6.8965 20.5432C6.93998 20.6195 6.98077 20.7219 7.01982 20.8506C7.06619 21.0059 7.08947 21.217 7.08947 21.4839V22.9996H6.41762V21.4118C6.41762 20.8778 6.17674 20.5209 5.69478 20.3407C5.58473 20.3097 5.48795 20.2935 5.40407 20.2917C5.32038 20.2935 5.22437 20.3097 5.11586 20.3407C4.6339 20.5209 4.39302 20.8778 4.39302 21.4118V22.9996H3.71886V21.4839C3.71886 21.217 3.74214 21.0059 3.7885 20.8506C3.82718 20.7219 3.86835 20.6195 3.91183 20.5432C3.94127 20.4781 3.98994 20.4014 4.05825 20.3129C4.41938 19.8689 4.86805 19.6469 5.40407 19.6469C5.94047 19.6469 6.38972 19.8689 6.75239 20.3129ZM8.63751 19.6446C9.08868 19.6446 9.34726 19.6548 9.41402 19.6748C9.5968 19.6966 9.80286 19.7735 10.0322 19.9053C10.1576 19.9828 10.2912 20.1017 10.432 20.2615C10.6831 20.5735 10.8085 20.9283 10.8085 21.3255C10.8085 21.5583 10.7637 21.778 10.6738 21.9844C10.4972 22.3864 10.2065 22.6768 9.80228 22.8553C9.61469 22.9516 9.32648 22.9996 8.93765 22.9996H7.51275L7.43829 22.9857V22.3476H9.0096C9.17699 22.3476 9.30628 22.333 9.39786 22.3035C9.64124 22.2212 9.81921 22.0987 9.93234 21.9356C10.0703 21.7294 10.1392 21.5282 10.1392 21.3326C10.1392 21.1356 10.0795 20.9416 9.96024 20.7504C9.88578 20.6404 9.80382 20.5565 9.71397 20.4989C9.54966 20.364 9.31494 20.2964 9.0096 20.2964H7.43829V19.6444H8.63751V19.6446ZM11.1573 19.6446H13.3099C13.6895 19.6446 13.9871 19.7587 14.2024 19.9868C14.2986 20.0768 14.3652 20.1638 14.4023 20.2476C14.4862 20.4153 14.5278 20.5791 14.5278 20.739V20.8344C14.5278 21.0796 14.4216 21.3195 14.2095 21.5538C14.0731 21.6841 13.949 21.768 13.8374 21.8053C14.1195 22.1066 14.2605 22.5045 14.2605 22.9996H13.5841V22.9484C13.5841 22.5822 13.4359 22.291 13.14 22.0753C12.9711 21.9559 12.7502 21.8959 12.4776 21.8959H11.1573V21.2488H13.3516C13.5917 21.2488 13.7545 21.1301 13.8398 20.8924C13.849 20.8444 13.8551 20.804 13.8582 20.7714C13.8582 20.6394 13.8034 20.5199 13.6933 20.4129C13.5989 20.3384 13.4981 20.3012 13.3913 20.3012C13.3913 20.295 13.3588 20.2917 13.2935 20.2917H11.1573V19.6446ZM16.5524 19.6469H16.5755C17.0901 19.6469 17.5294 19.8581 17.8936 20.2802C18.1293 20.597 18.2468 20.9416 18.2468 21.3139V21.3372C18.2468 21.8526 18.0315 22.2902 17.6007 22.6502C17.2877 22.8832 16.9445 22.9996 16.571 22.9996H16.5477C16.0364 22.9996 15.5985 22.7901 15.2344 22.371C15.1075 22.1925 15.0184 22.0287 14.967 21.8797C14.9068 21.6934 14.8764 21.5111 14.8764 21.3324V21.3093C14.8764 20.8032 15.0848 20.3702 15.5017 20.01C15.7837 19.8082 16.041 19.6949 16.2734 19.67C16.3446 19.6548 16.4375 19.6469 16.5524 19.6469ZM15.5457 21.3187C15.5457 21.6107 15.6596 21.8668 15.8874 22.0871C16.0904 22.2607 16.3034 22.3478 16.5266 22.3478H16.5916C16.7715 22.3478 16.9543 22.2866 17.1403 22.164C17.3323 22.0227 17.4626 21.8427 17.5307 21.6238C17.5523 21.5664 17.5678 21.4677 17.5771 21.3282C17.5771 21.0426 17.4664 20.7903 17.2446 20.5714C17.037 20.3865 16.8092 20.2942 16.5612 20.2942C16.2715 20.2942 16.0142 20.4153 15.7895 20.6575C15.695 20.7818 15.6352 20.887 15.6104 20.9741C15.5675 21.0952 15.5457 21.21 15.5457 21.3187ZM18.5954 19.6469H19.2671V22.9996H18.5954V19.6469ZM20.8292 19.6446C21.2802 19.6446 21.5387 19.6548 21.6055 19.6748C21.7883 19.6966 21.9943 19.7735 22.2237 19.9053C22.3491 19.9828 22.4826 20.1017 22.6235 20.2615C22.8746 20.5735 23 20.9283 23 21.3255C23 21.5583 22.9552 21.778 22.8653 21.9844C22.6887 22.3864 22.398 22.6768 21.9938 22.8553C21.8062 22.9516 21.518 22.9996 21.1291 22.9996H19.7042L19.6298 22.9857V22.3476H21.2011C21.3685 22.3476 21.4978 22.333 21.5893 22.3035C21.8327 22.2212 22.0107 22.0987 22.1238 21.9356C22.2618 21.7294 22.3306 21.5282 22.3306 21.3326C22.3306 21.1356 22.271 20.9416 22.1517 20.7504C22.0773 20.6404 21.9953 20.5565 21.9054 20.4989C21.7411 20.364 21.5064 20.2964 21.2011 20.2964H19.6298V19.6444H20.8292V19.6446ZM4.80148 6.0028C4.17022 6.00241 3.65844 6.5162 3.65825 7.14813L3.65902 11.9447C3.65921 12.5789 4.17118 13.0908 4.80283 13.0908C5.43447 13.0908 5.94644 12.5789 5.94586 11.9451V7.14793C5.94548 6.51582 5.43312 6.00241 4.80148 6.0028ZM14.0233 1.69535L14.8214 0.235697C14.8639 0.15938 14.8358 0.06225 14.7588 0.0188883C14.6809 -0.0221608 14.5847 0.0057834 14.5435 0.0824854L13.7374 1.55755C13.059 1.25537 12.3 1.08597 11.4967 1.08674C10.6958 1.08597 9.93696 1.25499 9.26126 1.55582L8.45434 0.0844125C8.4124 0.00693966 8.31582 -0.02139 8.23963 0.0208154C8.16209 0.0630208 8.13362 0.160151 8.17671 0.236082L8.97497 1.69496C7.40616 2.50534 6.34624 4.04902 6.3472 5.82068L16.648 5.81952C16.648 4.04786 15.59 2.50804 14.0233 1.69535ZM9.1539 3.9515C8.91706 3.95112 8.72351 3.75801 8.72351 3.51943C8.72351 3.28161 8.91648 3.0862 9.15448 3.0862C9.39305 3.0862 9.58641 3.28161 9.5866 3.51943C9.5866 3.75763 9.39305 3.9515 9.1539 3.9515ZM13.8444 3.95073C13.6062 3.95112 13.4124 3.75763 13.4124 3.51827C13.4134 3.28123 13.606 3.08581 13.8444 3.08466C14.0812 3.08543 14.2755 3.28123 14.2753 3.51866C14.2759 3.75724 14.0822 3.95073 13.8444 3.95073ZM6.38895 6.21922L6.39068 13.6528C6.3903 14.3288 6.93632 14.8746 7.61087 14.8746L8.44164 14.875L8.4428 17.4131C8.44241 18.045 8.95535 18.5588 9.58545 18.5588C10.2171 18.5588 10.7291 18.0446 10.7293 17.4123L10.7285 14.875L12.2723 14.8746L12.2729 17.4123C12.2729 18.0439 12.786 18.5584 13.4161 18.5573C14.0479 18.5576 14.5601 18.0435 14.5599 17.4115L14.5591 14.8742L15.393 14.8734C16.066 14.8738 16.6134 14.3273 16.6137 13.6508L16.6124 6.2173L6.38895 6.21922ZM19.3406 7.14678C19.3406 6.51408 18.8288 6.00107 18.1972 6.00145C17.5657 6.00107 17.0541 6.51447 17.0541 7.14716L17.0551 11.9441C17.0549 12.5772 17.5665 13.0891 18.1983 13.0891C18.8298 13.0891 19.3414 12.5772 19.3414 11.9434L19.3406 7.14678Z" fill="#A4C439"/>
</svg>
