<svg width="13" height="11" viewBox="0 0 13 11" fill="none" xmlns="http://www.w3.org/2000/svg">
<g clip-path="url(#clip0_3397_865)">
<path fill-rule="evenodd" clip-rule="evenodd" d="M11.7598 7.62376C11.8614 7.53322 11.918 7.41313 11.918 7.28827C11.918 7.1634 11.8614 7.04331 11.7598 6.95277L7.28339 3.02805C7.18471 2.9402 7.06615 2.87024 6.93453 2.82244C6.80291 2.77464 6.66093 2.75 6.5177 2.75C6.37447 2.75 6.23276 2.77464 6.10114 2.82244C5.96951 2.87024 5.85095 2.9402 5.75228 3.02805L1.2428 6.98118C1.03426 7.16451 1.03167 7.46152 1.23751 7.6476C1.28655 7.69265 1.34588 7.72869 1.41207 7.75348C1.47826 7.77827 1.54969 7.79129 1.62207 7.79172C1.69445 7.79215 1.76627 7.77999 1.83287 7.75599C1.89946 7.73198 1.9595 7.69665 2.00928 7.65219L6.13525 4.03456C6.18459 3.9906 6.24398 3.95559 6.30981 3.93167C6.37565 3.90775 6.44631 3.8954 6.51796 3.8954C6.58961 3.8954 6.66054 3.90775 6.72638 3.93167C6.79222 3.95559 6.8516 3.9906 6.90094 4.03456L10.9944 7.6233C11.0437 7.66725 11.1032 7.70225 11.1689 7.72616C11.2347 7.75008 11.3055 7.76242 11.3771 7.76242C11.4487 7.76242 11.5195 7.75008 11.5852 7.72616C11.651 7.70225 11.7105 7.66725 11.7598 7.6233" fill="white"/>
</g>
<defs>
<clipPath id="clip0_3397_865">
<rect width="11" height="13" fill="white" transform="matrix(0 1 -1 0 13 0)"/>
</clipPath>
</defs>
</svg>
