<svg width="13" height="11" viewBox="0 0 13 11" fill="none" xmlns="http://www.w3.org/2000/svg">
<g clip-path="url(#clip0_3397_866)">
<path fill-rule="evenodd" clip-rule="evenodd" d="M1.24019 3.37624C1.13858 3.46678 1.08203 3.58687 1.08203 3.71173C1.08203 3.8366 1.13858 3.95669 1.24019 4.04723L5.71661 7.97195C5.81529 8.0598 5.93385 8.12976 6.06547 8.17756C6.19709 8.22536 6.33907 8.25 6.4823 8.25C6.62553 8.25 6.76724 8.22536 6.89886 8.17756C7.03049 8.12976 7.14905 8.0598 7.24772 7.97195L11.7572 4.01882C11.9657 3.83549 11.9683 3.53848 11.7625 3.3524C11.7135 3.30735 11.6541 3.27131 11.5879 3.24652C11.5217 3.22173 11.4503 3.20871 11.3779 3.20828C11.3055 3.20785 11.2337 3.22001 11.1671 3.24401C11.1005 3.26802 11.0405 3.30335 10.9907 3.34781L6.86475 6.96544C6.81541 7.0094 6.75602 7.04441 6.69019 7.06833C6.62435 7.09225 6.55369 7.1046 6.48204 7.1046C6.41039 7.1046 6.33946 7.09225 6.27362 7.06833C6.20778 7.04441 6.1484 7.0094 6.09906 6.96544L2.00562 3.3767C1.95632 3.33275 1.89685 3.29775 1.83105 3.27384C1.76526 3.24992 1.69451 3.23758 1.6229 3.23758C1.5513 3.23758 1.48055 3.24992 1.41475 3.27384C1.34896 3.29775 1.28949 3.33275 1.24019 3.3767" fill="white"/>
</g>
<defs>
<clipPath id="clip0_3397_866">
<rect width="11" height="13" fill="white" transform="matrix(0 -1 1 0 0 11)"/>
</clipPath>
</defs>
</svg>
