<svg width="80" height="35" viewBox="0 0 80 35" fill="none" xmlns="http://www.w3.org/2000/svg">
<path d="M22 31.5002H6C4.89624 31.4983 4.0022 30.7161 4 29.7503V5.25185C4.0022 4.28612 4.89624 3.50388 6 3.50195H18C19.1045 3.50195 20 2.71843 20 1.75206C20 0.785692 19.1045 0.0021715 18 0.0021715H6C2.68774 0.00537555 0.003662 2.3538 0 5.25185V29.7503C0.003662 32.6484 2.68774 34.9968 6 35H22C23.1045 35 24 34.2165 24 33.2501C24 32.2837 23.1045 31.5002 22 31.5002ZM45.865 16.9164C45.8242 16.8167 45.7649 16.7312 45.7051 16.6409C45.6372 16.5375 45.5715 16.439 45.4797 16.3487C45.3923 16.2626 45.2896 16.1976 45.1846 16.1282C45.1096 16.0784 45.0574 16.0112 44.9727 15.9699C44.9385 15.9533 44.9004 15.955 44.8657 15.9402C44.7542 15.8926 44.6333 15.8706 44.5112 15.8416C44.3716 15.8089 44.2371 15.7736 44.0955 15.7681C44.062 15.7666 44.0339 15.7512 44 15.7512H27.4014L35.75 2.60308C36.2871 1.7574 35.9392 0.69085 34.9727 0.220908C34.0061 -0.249034 32.7871 0.0553606 32.25 0.901041L22.25 16.6501C22.2312 16.6798 22.2327 16.7131 22.2161 16.7434C22.1611 16.8421 22.1357 16.9489 22.1025 17.0572C22.0662 17.1775 22.0261 17.293 22.0198 17.415C22.0181 17.4451 22 17.4705 22 17.5011C22 17.5773 22.0388 17.6425 22.0496 17.7162C22.0679 17.8418 22.0857 17.9627 22.134 18.0819C22.176 18.1851 22.2371 18.2733 22.2993 18.3666C22.3657 18.4675 22.4299 18.5638 22.5195 18.6522C22.6074 18.7387 22.7102 18.8043 22.8162 18.8742C22.8909 18.9239 22.9429 18.991 23.0273 19.0322C23.0554 19.0457 23.0901 19.0406 23.1187 19.0527C23.3875 19.1702 23.6792 19.251 24 19.251H40.5986L32.25 32.3991C31.7146 33.245 32.0623 34.3103 33.0273 34.7813C33.3254 34.9244 33.6599 34.9996 34 35C34.7263 34.9994 35.3955 34.6557 35.75 34.1011L45.75 18.3521C45.769 18.3222 45.7671 18.2889 45.7839 18.2585C45.8384 18.1609 45.8635 18.0552 45.8967 17.9484C45.9341 17.8262 45.9744 17.7085 45.9807 17.5846C45.9824 17.5553 46 17.5308 46 17.5011C46 17.4276 45.9622 17.365 45.9521 17.2939C45.9338 17.164 45.9153 17.0395 45.865 16.9164ZM62 0.0021715H46C44.8955 0.0021715 44 0.785692 44 1.75206C44 2.71843 44.8955 3.50195 46 3.50195H62C63.1038 3.50388 63.9978 4.28612 64 5.25185V29.7503C63.9978 30.7161 63.1038 31.4983 62 31.5002H50C48.8955 31.5002 48 32.2837 48 33.2501C48 34.2165 48.8955 35 50 35H62C65.3123 34.9968 67.9963 32.6484 68 29.7503V5.25185C67.9963 2.3538 65.3123 0.00537555 62 0.0021715ZM78 10.5015C76.8955 10.5015 76 11.285 76 12.2514V22.7527C76.0007 23.7186 76.896 24.5013 78 24.5007C79.1038 24.5 80.0007 23.7167 80 22.7508V12.2514C80 11.285 79.1045 10.5015 78 10.5015Z" fill="white"/>
</svg>
