<svg width="70" height="50" viewBox="0 0 70 50" fill="none" xmlns="http://www.w3.org/2000/svg">
<path d="M4.375 14.0638C6.79125 14.0638 8.75 12.1983 8.75 9.89714C8.75 7.59595 6.79125 5.73047 4.375 5.73047C1.95875 5.73047 0 7.59595 0 9.89714C0 12.1983 1.95875 14.0638 4.375 14.0638Z" fill="white"/>
<path d="M31.7188 50.0013C34.135 50.0013 36.0938 48.1358 36.0938 45.8346C36.0938 43.5334 34.135 41.668 31.7188 41.668C29.3025 41.668 27.3438 43.5334 27.3438 45.8346C27.3438 48.1358 29.3025 50.0013 31.7188 50.0013Z" fill="white"/>
<path d="M28.4375 28.1263C30.8537 28.1263 32.8125 26.2608 32.8125 23.9596C32.8125 21.6584 30.8537 19.793 28.4375 19.793C26.0213 19.793 24.0625 21.6584 24.0625 23.9596C24.0625 26.2608 26.0213 28.1263 28.4375 28.1263Z" fill="white"/>
<path d="M45.9375 38.5404C48.3537 38.5404 50.3125 36.6749 50.3125 34.3737C50.3125 32.0725 48.3537 30.207 45.9375 30.207C43.5213 30.207 41.5625 32.0725 41.5625 34.3737C41.5625 36.6749 43.5213 38.5404 45.9375 38.5404Z" fill="white"/>
<path d="M60.7031 46.8763C63.1194 46.8763 65.0781 45.0108 65.0781 42.7096C65.0781 40.4084 63.1194 38.543 60.7031 38.543C58.2869 38.543 56.3281 40.4084 56.3281 42.7096C56.3281 45.0108 58.2869 46.8763 60.7031 46.8763Z" fill="white"/>
<path d="M8.75 43.2279C11.1662 43.2279 13.125 41.3624 13.125 39.0612C13.125 36.76 11.1662 34.8945 8.75 34.8945C6.33375 34.8945 4.375 36.76 4.375 39.0612C4.375 41.3624 6.33375 43.2279 8.75 43.2279Z" fill="white"/>
<path d="M65.625 21.8763C68.0412 21.8763 70 20.0108 70 17.7096C70 15.4084 68.0412 13.543 65.625 13.543C63.2088 13.543 61.25 15.4084 61.25 17.7096C61.25 20.0108 63.2088 21.8763 65.625 21.8763Z" fill="white"/>
<path d="M52.5 8.33333C54.9162 8.33333 56.875 6.46785 56.875 4.16667C56.875 1.86548 54.9162 0 52.5 0C50.0838 0 48.125 1.86548 48.125 4.16667C48.125 6.46785 50.0838 8.33333 52.5 8.33333Z" fill="white"/>
<path d="M50.9733 38.3763L54.5827 40.4716C54.8458 39.8186 55.2222 39.2122 55.6961 38.6779L52.0725 36.5747C51.8146 37.2296 51.443 37.8386 50.9733 38.3763ZM60.0306 20.9581L57.5456 23.0148L54.832 10.0013C54.1461 10.2509 53.4207 10.3883 52.6866 10.4076L55.6436 24.5888L49.8598 29.3753C50.4497 29.7932 50.9622 30.3019 51.3763 30.8805L56.1341 26.943L58.2166 36.9273C58.8967 36.6631 59.6187 36.5103 60.3522 36.4753L58.0362 25.3685L61.4607 22.5346C60.8954 22.0884 60.412 21.5556 60.0306 20.9581ZM37.2861 42.5414L41.5517 39.0107C41.0046 38.5435 40.5432 37.9925 40.1867 37.3805L35.8413 40.9768C36.4108 41.4181 36.8991 41.9472 37.2861 42.5414ZM46.8712 7.36328L32.4741 19.0404C33.0526 19.4718 33.5515 19.9921 33.9502 20.5799L48.2865 8.95182C47.7253 8.50091 47.247 7.96403 46.8712 7.36328ZM41.0759 30.1914L34.491 26.3685C34.2046 27.0126 33.8068 27.6065 33.3141 28.1253L39.892 31.9435C40.1811 31.3006 40.5813 30.7083 41.0759 30.1914ZM9.19422 14.1237L22.3105 21.7378C22.5713 21.084 22.9454 20.4767 23.4173 19.9409L10.3941 12.3799C10.0994 13.0208 9.69399 13.61 9.19477 14.1232L9.19422 14.1237ZM18.4944 30.3794L13.3144 34.5815C13.8422 35.0703 14.2803 35.6398 14.6105 36.2664L19.785 32.0695L26.9901 41.5107C27.4985 41.0064 28.0918 40.5866 28.7455 40.2685L21.4557 30.7148L24.0616 28.6018C23.5139 28.1355 23.0518 27.5854 22.6944 26.9742L20.1662 29.0247L8.96891 14.3523C8.44371 14.8414 7.83631 15.2433 7.17188 15.5414L18.4944 30.3794Z" fill="white"/>
</svg>
