<svg width="84" height="84" viewBox="0 0 84 84" fill="none" xmlns="http://www.w3.org/2000/svg">
<path d="M16.5455 27.4545V32.9091M49.2727 67.4545H43.8182M16.5455 32.9091V45.6364M16.5455 32.9091H2M16.5455 45.6364H2M16.5455 45.6364V58.3636M16.5455 58.3636V59.4545C16.5455 63.8728 20.1272 67.4545 24.5455 67.4545H29.2727M16.5455 58.3636H2M29.2727 67.4545V82M29.2727 67.4545H43.8182M43.8182 67.4545V82M60.1818 82V71.0909C60.1818 69.0826 61.8099 67.4545 63.8182 67.4545V67.4545C65.8265 67.4545 67.4545 65.8265 67.4545 63.8182V58.3636M27.4545 16.5455H32.9091M67.4545 58.3636H82M67.4545 58.3636V45.6364M67.4545 45.6364H82M67.4545 45.6364V32.9091M67.4545 32.9091V23.8182C67.4545 19.8016 64.1984 16.5455 60.1818 16.5455V16.5455M67.4545 32.9091H82M60.1818 16.5455V2M60.1818 16.5455H45.6364M45.6364 16.5455V2M45.6364 16.5455H32.9091M32.9091 16.5455V2M34.7273 56.5455H48.5455C52.9637 56.5455 56.5455 52.9637 56.5455 48.5455V35.4546C56.5455 31.0363 52.9637 27.4545 48.5455 27.4545H36.2222C31.8039 27.4545 28.2222 31.0363 28.2222 35.4545V51.1954" stroke="white" stroke-width="3" stroke-linecap="round"/>
</svg>
