<svg width="126" height="201" viewBox="0 0 126 201" fill="none" xmlns="http://www.w3.org/2000/svg">
<rect x="1" width="125" height="200" rx="8" fill="black" fill-opacity="0.8"/>
<path d="M1.3125 99.3294C53.8125 16.3294 24.4375 173.666 100.688 199.663" stroke="#FF0000" stroke-linecap="round"/>
<path d="M1.3125 98.3295C54.125 15.9961 25.375 173.666 101.625 199.663" stroke="#BD00FF" stroke-linecap="round"/>
<path d="M1.3125 97.3317C55.375 15.6641 24.75 173.998 102.875 199.664" stroke="#7C2016" stroke-linecap="round"/>
<path d="M10.9541 20.4697C10.9541 21.0557 10.9004 21.5749 10.793 22.0273C10.6888 22.4798 10.5358 22.8623 10.334 23.1748C10.1354 23.484 9.88965 23.7201 9.59668 23.8828C9.30697 24.0423 8.97656 24.1221 8.60547 24.1221C8.25391 24.1221 7.93978 24.0456 7.66309 23.8926C7.38965 23.7363 7.15853 23.5101 6.96973 23.2139C6.78092 22.9176 6.6377 22.5547 6.54004 22.125C6.44238 21.6921 6.39355 21.1973 6.39355 20.6406C6.39355 20.0286 6.44401 19.4883 6.54492 19.0195C6.64909 18.5508 6.80046 18.1585 6.99902 17.8428C7.19759 17.5238 7.44336 17.2845 7.73633 17.125C8.03255 16.9622 8.37109 16.8809 8.75195 16.8809C10.2201 16.8809 10.9541 18.0771 10.9541 20.4697ZM10.1338 20.5479C10.1338 18.5557 9.66016 17.5596 8.71289 17.5596C7.71354 17.5596 7.21387 18.5736 7.21387 20.6016C7.21387 22.4928 7.70378 23.4385 8.68359 23.4385C9.65039 23.4385 10.1338 22.4749 10.1338 20.5479ZM11.8037 22.0469C11.8037 21.8613 11.833 21.6758 11.8916 21.4902C11.9502 21.3014 12.0332 21.1257 12.1406 20.9629C12.2513 20.8001 12.3864 20.652 12.5459 20.5186C12.7087 20.3851 12.8926 20.2793 13.0977 20.2012C12.7949 20.0319 12.554 19.8154 12.375 19.5518C12.196 19.2848 12.1064 18.9902 12.1064 18.668C12.1064 18.4108 12.1553 18.1732 12.2529 17.9551C12.3538 17.737 12.4922 17.5482 12.668 17.3887C12.8438 17.2292 13.0521 17.1055 13.293 17.0176C13.5339 16.9264 13.7943 16.8809 14.0742 16.8809C14.3574 16.8809 14.6195 16.9264 14.8604 17.0176C15.1012 17.1087 15.3096 17.234 15.4854 17.3936C15.6611 17.5531 15.7979 17.7419 15.8955 17.96C15.9932 18.1781 16.042 18.4141 16.042 18.668C16.042 18.9902 15.9525 19.2848 15.7734 19.5518C15.5944 19.8154 15.3568 20.0319 15.0605 20.2012C15.2624 20.2793 15.443 20.3851 15.6025 20.5186C15.762 20.652 15.8955 20.8001 16.0029 20.9629C16.1136 21.1257 16.1982 21.3014 16.2568 21.4902C16.3154 21.6758 16.3447 21.8613 16.3447 22.0469C16.3447 22.3529 16.2894 22.6328 16.1787 22.8867C16.068 23.1406 15.9118 23.3587 15.71 23.541C15.5114 23.7201 15.2721 23.86 14.9922 23.9609C14.7155 24.0618 14.4095 24.1123 14.0742 24.1123C13.7422 24.1123 13.4378 24.0618 13.1611 23.9609C12.8844 23.86 12.6452 23.7201 12.4434 23.541C12.2415 23.3587 12.0837 23.1406 11.9697 22.8867C11.859 22.6328 11.8037 22.3529 11.8037 22.0469ZM12.6729 21.9785C12.6729 22.1966 12.7054 22.3936 12.7705 22.5693C12.8389 22.7451 12.9333 22.8949 13.0537 23.0186C13.1774 23.1423 13.3255 23.2383 13.498 23.3066C13.6738 23.3717 13.8675 23.4043 14.0791 23.4043C14.2842 23.4043 14.473 23.3701 14.6455 23.3018C14.818 23.2334 14.9661 23.1374 15.0898 23.0137C15.2168 22.89 15.3145 22.7402 15.3828 22.5645C15.4544 22.3887 15.4902 22.1934 15.4902 21.9785C15.4902 21.7832 15.4561 21.6009 15.3877 21.4316C15.3226 21.2591 15.2282 21.1077 15.1045 20.9775C14.9808 20.8473 14.8327 20.7448 14.6602 20.6699C14.4876 20.5951 14.2939 20.5576 14.0791 20.5576C13.8773 20.5576 13.6901 20.5934 13.5176 20.665C13.3483 20.7334 13.2002 20.8311 13.0732 20.958C12.9495 21.0817 12.8519 21.2314 12.7803 21.4072C12.7087 21.5798 12.6729 21.7702 12.6729 21.9785ZM12.9219 18.7314C12.9219 18.8975 12.9512 19.0521 13.0098 19.1953C13.0716 19.3353 13.1546 19.459 13.2588 19.5664C13.3662 19.6706 13.4899 19.7536 13.6299 19.8154C13.7699 19.874 13.9196 19.9033 14.0791 19.9033C14.2386 19.9033 14.3883 19.8724 14.5283 19.8105C14.6715 19.7487 14.7952 19.6657 14.8994 19.5615C15.0036 19.4541 15.0866 19.3304 15.1484 19.1904C15.2103 19.0472 15.2412 18.8942 15.2412 18.7314C15.2412 18.5622 15.2103 18.4059 15.1484 18.2627C15.0898 18.1195 15.0085 17.9958 14.9043 17.8916C14.8001 17.7874 14.6764 17.7061 14.5332 17.6475C14.3932 17.5856 14.2419 17.5547 14.0791 17.5547C13.9066 17.5547 13.7487 17.5856 13.6055 17.6475C13.4655 17.7093 13.3434 17.7939 13.2393 17.9014C13.1383 18.0055 13.0602 18.1292 13.0049 18.2725C12.9495 18.4157 12.9219 18.5687 12.9219 18.7314ZM17.8438 24.1074C17.694 24.1074 17.5654 24.0537 17.458 23.9463C17.3538 23.8389 17.3018 23.7103 17.3018 23.5605C17.3018 23.4108 17.3538 23.2822 17.458 23.1748C17.5654 23.0641 17.694 23.0088 17.8438 23.0088C17.9967 23.0088 18.127 23.0641 18.2344 23.1748C18.3418 23.2822 18.3955 23.4108 18.3955 23.5605C18.3955 23.7103 18.3418 23.8389 18.2344 23.9463C18.127 24.0537 17.9967 24.1074 17.8438 24.1074ZM29.7236 24H28.9082V19.3027C28.9082 18.9316 28.931 18.4775 28.9766 17.9404H28.957C28.8789 18.2562 28.8089 18.4824 28.7471 18.6191L26.3545 24H25.9541L23.5664 18.6582C23.498 18.502 23.4281 18.2627 23.3564 17.9404H23.3369C23.363 18.2204 23.376 18.6777 23.376 19.3125V24H22.585V16.998H23.6689L25.8174 21.8809C25.9834 22.2552 26.0908 22.5352 26.1396 22.7207H26.1689C26.3089 22.3366 26.4212 22.0501 26.5059 21.8613L28.6982 16.998H29.7236V24ZM35.041 24H34.2402V23.2188H34.2207C33.8724 23.8177 33.3597 24.1172 32.6826 24.1172C32.1846 24.1172 31.7939 23.9854 31.5107 23.7217C31.2308 23.458 31.0908 23.1081 31.0908 22.6719C31.0908 21.7376 31.641 21.194 32.7412 21.041L34.2402 20.8311C34.2402 19.9814 33.8968 19.5566 33.21 19.5566C32.6077 19.5566 32.0641 19.7617 31.5791 20.1719V19.3516C32.0706 19.0391 32.637 18.8828 33.2783 18.8828C34.4535 18.8828 35.041 19.5046 35.041 20.748V24ZM34.2402 21.4707L33.0342 21.6367C32.6631 21.6888 32.3831 21.7816 32.1943 21.915C32.0055 22.0452 31.9111 22.278 31.9111 22.6133C31.9111 22.8574 31.9974 23.0576 32.1699 23.2139C32.3457 23.3669 32.5785 23.4434 32.8682 23.4434C33.2653 23.4434 33.5924 23.305 33.8496 23.0283C34.11 22.7484 34.2402 22.3952 34.2402 21.9688V21.4707ZM37.3701 23.2773H37.3506V26.2998H36.5498V19H37.3506V19.8789H37.3701C37.764 19.2148 38.3402 18.8828 39.0986 18.8828C39.7432 18.8828 40.2461 19.1074 40.6074 19.5566C40.9688 20.0026 41.1494 20.6016 41.1494 21.3535C41.1494 22.1901 40.946 22.8607 40.5391 23.3652C40.1322 23.8665 39.5755 24.1172 38.8691 24.1172C38.2214 24.1172 37.7217 23.8372 37.3701 23.2773ZM37.3506 21.2607V21.959C37.3506 22.3724 37.484 22.724 37.751 23.0137C38.0212 23.3001 38.363 23.4434 38.7764 23.4434C39.2614 23.4434 39.6406 23.2578 39.9141 22.8867C40.1908 22.5156 40.3291 21.9997 40.3291 21.3389C40.3291 20.7822 40.2005 20.346 39.9434 20.0303C39.6862 19.7145 39.3379 19.5566 38.8984 19.5566C38.4329 19.5566 38.0586 19.7194 37.7754 20.0449C37.4922 20.3672 37.3506 20.7725 37.3506 21.2607ZM45.5684 19.6836H44.0693V24H43.2686V19.6836H41.7646V19H45.5684V19.6836ZM52.2334 18.834C52.2334 18.6191 52.1992 18.432 52.1309 18.2725C52.0658 18.113 51.9746 17.9811 51.8574 17.877C51.7435 17.7695 51.6084 17.6898 51.4521 17.6377C51.2959 17.5856 51.1266 17.5596 50.9443 17.5596C50.7881 17.5596 50.6351 17.5807 50.4854 17.623C50.3356 17.6654 50.1891 17.724 50.0459 17.7988C49.9059 17.8737 49.7692 17.9632 49.6357 18.0674C49.5055 18.1715 49.3835 18.2871 49.2695 18.4141V17.5547C49.4941 17.3366 49.7448 17.1706 50.0215 17.0566C50.3014 16.9395 50.6416 16.8809 51.042 16.8809C51.3285 16.8809 51.5938 16.9232 51.8379 17.0078C52.082 17.0892 52.2936 17.2096 52.4727 17.3691C52.6517 17.5286 52.7917 17.7256 52.8926 17.96C52.9967 18.1943 53.0488 18.4629 53.0488 18.7656C53.0488 19.0423 53.0163 19.293 52.9512 19.5176C52.8893 19.7422 52.7933 19.9538 52.6631 20.1523C52.5361 20.3509 52.375 20.5413 52.1797 20.7236C51.9844 20.9059 51.7549 21.0915 51.4912 21.2803C51.1624 21.5146 50.8906 21.7148 50.6758 21.8809C50.4642 22.0469 50.2949 22.2031 50.168 22.3496C50.0443 22.4928 49.9564 22.6377 49.9043 22.7842C49.8555 22.9274 49.8311 23.0934 49.8311 23.2822H53.3174V24H48.9961V23.6533C48.9961 23.3538 49.0286 23.0902 49.0938 22.8623C49.1589 22.6344 49.2663 22.418 49.416 22.2129C49.5658 22.0078 49.7611 21.8027 50.002 21.5977C50.2461 21.3926 50.5439 21.1615 50.8955 20.9043C51.1494 20.722 51.361 20.5479 51.5303 20.3818C51.7028 20.2158 51.8411 20.0498 51.9453 19.8838C52.0495 19.7178 52.1227 19.5501 52.165 19.3809C52.2106 19.2083 52.2334 19.026 52.2334 18.834ZM58.835 20.4697C58.835 21.0557 58.7812 21.5749 58.6738 22.0273C58.5697 22.4798 58.4167 22.8623 58.2148 23.1748C58.0163 23.484 57.7705 23.7201 57.4775 23.8828C57.1878 24.0423 56.8574 24.1221 56.4863 24.1221C56.1348 24.1221 55.8206 24.0456 55.5439 23.8926C55.2705 23.7363 55.0394 23.5101 54.8506 23.2139C54.6618 22.9176 54.5186 22.5547 54.4209 22.125C54.3232 21.6921 54.2744 21.1973 54.2744 20.6406C54.2744 20.0286 54.3249 19.4883 54.4258 19.0195C54.5299 18.5508 54.6813 18.1585 54.8799 17.8428C55.0785 17.5238 55.3242 17.2845 55.6172 17.125C55.9134 16.9622 56.252 16.8809 56.6328 16.8809C58.1009 16.8809 58.835 18.0771 58.835 20.4697ZM58.0146 20.5479C58.0146 18.5557 57.541 17.5596 56.5938 17.5596C55.5944 17.5596 55.0947 18.5736 55.0947 20.6016C55.0947 22.4928 55.5846 23.4385 56.5645 23.4385C57.5312 23.4385 58.0146 22.4749 58.0146 20.5479ZM63.0146 18.834C63.0146 18.6191 62.9805 18.432 62.9121 18.2725C62.847 18.113 62.7559 17.9811 62.6387 17.877C62.5247 17.7695 62.3896 17.6898 62.2334 17.6377C62.0771 17.5856 61.9079 17.5596 61.7256 17.5596C61.5693 17.5596 61.4163 17.5807 61.2666 17.623C61.1169 17.6654 60.9704 17.724 60.8271 17.7988C60.6872 17.8737 60.5505 17.9632 60.417 18.0674C60.2868 18.1715 60.1647 18.2871 60.0508 18.4141V17.5547C60.2754 17.3366 60.526 17.1706 60.8027 17.0566C61.0827 16.9395 61.4229 16.8809 61.8232 16.8809C62.1097 16.8809 62.375 16.9232 62.6191 17.0078C62.8633 17.0892 63.0749 17.2096 63.2539 17.3691C63.4329 17.5286 63.5729 17.7256 63.6738 17.96C63.778 18.1943 63.8301 18.4629 63.8301 18.7656C63.8301 19.0423 63.7975 19.293 63.7324 19.5176C63.6706 19.7422 63.5745 19.9538 63.4443 20.1523C63.3174 20.3509 63.1562 20.5413 62.9609 20.7236C62.7656 20.9059 62.5361 21.0915 62.2725 21.2803C61.9437 21.5146 61.6719 21.7148 61.457 21.8809C61.2454 22.0469 61.0762 22.2031 60.9492 22.3496C60.8255 22.4928 60.7376 22.6377 60.6855 22.7842C60.6367 22.9274 60.6123 23.0934 60.6123 23.2822H64.0986V24H59.7773V23.6533C59.7773 23.3538 59.8099 23.0902 59.875 22.8623C59.9401 22.6344 60.0475 22.418 60.1973 22.2129C60.347 22.0078 60.5423 21.8027 60.7832 21.5977C61.0273 21.3926 61.3252 21.1615 61.6768 20.9043C61.9307 20.722 62.1423 20.5479 62.3115 20.3818C62.484 20.2158 62.6224 20.0498 62.7266 19.8838C62.8307 19.7178 62.904 19.5501 62.9463 19.3809C62.9919 19.2083 63.0146 19.026 63.0146 18.834ZM69.6162 20.4697C69.6162 21.0557 69.5625 21.5749 69.4551 22.0273C69.3509 22.4798 69.1979 22.8623 68.9961 23.1748C68.7975 23.484 68.5518 23.7201 68.2588 23.8828C67.9691 24.0423 67.6387 24.1221 67.2676 24.1221C66.916 24.1221 66.6019 24.0456 66.3252 23.8926C66.0518 23.7363 65.8206 23.5101 65.6318 23.2139C65.443 22.9176 65.2998 22.5547 65.2021 22.125C65.1045 21.6921 65.0557 21.1973 65.0557 20.6406C65.0557 20.0286 65.1061 19.4883 65.207 19.0195C65.3112 18.5508 65.4626 18.1585 65.6611 17.8428C65.8597 17.5238 66.1055 17.2845 66.3984 17.125C66.6947 16.9622 67.0332 16.8809 67.4141 16.8809C68.8822 16.8809 69.6162 18.0771 69.6162 20.4697ZM68.7959 20.5479C68.7959 18.5557 68.3223 17.5596 67.375 17.5596C66.3757 17.5596 65.876 18.5736 65.876 20.6016C65.876 22.4928 66.3659 23.4385 67.3457 23.4385C68.3125 23.4385 68.7959 22.4749 68.7959 20.5479Z" fill="white"/>
<path d="M12.9631 45H5.88309V43.905L8.68809 41.07C9.22809 40.53 9.68309 40.05 10.0531 39.63C10.4231 39.21 10.7031 38.8 10.8931 38.4C11.0831 37.99 11.1781 37.545 11.1781 37.065C11.1781 36.475 11.0031 36.03 10.6531 35.73C10.3031 35.42 9.84809 35.265 9.28809 35.265C8.76809 35.265 8.30809 35.355 7.90809 35.535C7.51809 35.715 7.11809 35.965 6.70809 36.285L6.00309 35.4C6.28309 35.16 6.58809 34.945 6.91809 34.755C7.25809 34.565 7.62309 34.415 8.01309 34.305C8.41309 34.195 8.83809 34.14 9.28809 34.14C9.95809 34.14 10.5331 34.255 11.0131 34.485C11.4931 34.715 11.8631 35.045 12.1231 35.475C12.3931 35.895 12.5281 36.4 12.5281 36.99C12.5281 37.41 12.4631 37.81 12.3331 38.19C12.2031 38.56 12.0181 38.925 11.7781 39.285C11.5381 39.645 11.2481 40.01 10.9081 40.38C10.5681 40.75 10.1931 41.135 9.78309 41.535L7.54809 43.74V43.8H12.9631V45ZM21.5471 45H14.4671V43.905L17.2721 41.07C17.8121 40.53 18.2671 40.05 18.6371 39.63C19.0071 39.21 19.2871 38.8 19.4771 38.4C19.6671 37.99 19.7621 37.545 19.7621 37.065C19.7621 36.475 19.5871 36.03 19.2371 35.73C18.8871 35.42 18.4321 35.265 17.8721 35.265C17.3521 35.265 16.8921 35.355 16.4921 35.535C16.1021 35.715 15.7021 35.965 15.2921 36.285L14.5871 35.4C14.8671 35.16 15.1721 34.945 15.5021 34.755C15.8421 34.565 16.2071 34.415 16.5971 34.305C16.9971 34.195 17.4221 34.14 17.8721 34.14C18.5421 34.14 19.1171 34.255 19.5971 34.485C20.0771 34.715 20.4471 35.045 20.7071 35.475C20.9771 35.895 21.1121 36.4 21.1121 36.99C21.1121 37.41 21.0471 37.81 20.9171 38.19C20.7871 38.56 20.6021 38.925 20.3621 39.285C20.1221 39.645 19.8321 40.01 19.4921 40.38C19.1521 40.75 18.7771 41.135 18.3671 41.535L16.1321 43.74V43.8H21.5471V45ZM23.4111 44.19C23.4111 43.82 23.5011 43.56 23.6811 43.41C23.8611 43.26 24.0761 43.185 24.3261 43.185C24.5861 43.185 24.8061 43.26 24.9861 43.41C25.1761 43.56 25.2711 43.82 25.2711 44.19C25.2711 44.55 25.1761 44.81 24.9861 44.97C24.8061 45.13 24.5861 45.21 24.3261 45.21C24.0761 45.21 23.8611 45.13 23.6811 44.97C23.5011 44.81 23.4111 44.55 23.4111 44.19ZM23.4111 37.77C23.4111 37.39 23.5011 37.125 23.6811 36.975C23.8611 36.825 24.0761 36.75 24.3261 36.75C24.5861 36.75 24.8061 36.825 24.9861 36.975C25.1761 37.125 25.2711 37.39 25.2711 37.77C25.2711 38.13 25.1761 38.39 24.9861 38.55C24.8061 38.71 24.5861 38.79 24.3261 38.79C24.0761 38.79 23.8611 38.71 23.6811 38.55C23.5011 38.39 23.4111 38.13 23.4111 37.77ZM34.1897 39.63C34.1897 40.5 34.1247 41.275 33.9947 41.955C33.8647 42.635 33.6547 43.215 33.3647 43.695C33.0847 44.165 32.7147 44.525 32.2547 44.775C31.8047 45.025 31.2597 45.15 30.6197 45.15C29.8197 45.15 29.1547 44.93 28.6247 44.49C28.1047 44.05 27.7147 43.42 27.4547 42.6C27.2047 41.77 27.0797 40.78 27.0797 39.63C27.0797 38.47 27.1947 37.48 27.4247 36.66C27.6647 35.84 28.0447 35.215 28.5647 34.785C29.0847 34.345 29.7697 34.125 30.6197 34.125C31.4197 34.125 32.0847 34.345 32.6147 34.785C33.1447 35.215 33.5397 35.84 33.7997 36.66C34.0597 37.48 34.1897 38.47 34.1897 39.63ZM28.3997 39.63C28.3997 40.61 28.4697 41.425 28.6097 42.075C28.7597 42.725 28.9947 43.215 29.3147 43.545C29.6447 43.865 30.0797 44.025 30.6197 44.025C31.1597 44.025 31.5897 43.865 31.9097 43.545C32.2397 43.225 32.4797 42.74 32.6297 42.09C32.7797 41.43 32.8547 40.61 32.8547 39.63C32.8547 38.65 32.7797 37.84 32.6297 37.2C32.4797 36.55 32.2397 36.065 31.9097 35.745C31.5897 35.415 31.1597 35.25 30.6197 35.25C30.0797 35.25 29.6447 35.415 29.3147 35.745C28.9947 36.065 28.7597 36.55 28.6097 37.2C28.4697 37.84 28.3997 38.65 28.3997 39.63ZM35.7537 40.425C35.7537 39.805 35.7937 39.195 35.8737 38.595C35.9637 37.995 36.1137 37.43 36.3237 36.9C36.5337 36.36 36.8237 35.885 37.1937 35.475C37.5637 35.055 38.0287 34.73 38.5887 34.5C39.1587 34.26 39.8487 34.14 40.6587 34.14C40.8687 34.14 41.0987 34.15 41.3487 34.17C41.6087 34.19 41.8187 34.225 41.9787 34.275V35.4C41.7987 35.34 41.5937 35.295 41.3637 35.265C41.1437 35.235 40.9187 35.22 40.6887 35.22C39.9987 35.22 39.4237 35.335 38.9637 35.565C38.5037 35.795 38.1387 36.11 37.8687 36.51C37.6087 36.91 37.4187 37.37 37.2987 37.89C37.1787 38.41 37.1037 38.965 37.0737 39.555H37.1637C37.3137 39.315 37.5037 39.1 37.7337 38.91C37.9637 38.72 38.2387 38.57 38.5587 38.46C38.8887 38.35 39.2687 38.295 39.6987 38.295C40.3187 38.295 40.8587 38.425 41.3187 38.685C41.7887 38.935 42.1537 39.305 42.4137 39.795C42.6737 40.275 42.8037 40.86 42.8037 41.55C42.8037 42.29 42.6637 42.93 42.3837 43.47C42.1037 44.01 41.7087 44.425 41.1987 44.715C40.6987 45.005 40.0987 45.15 39.3987 45.15C38.8887 45.15 38.4137 45.055 37.9737 44.865C37.5337 44.675 37.1437 44.385 36.8037 43.995C36.4737 43.605 36.2137 43.115 36.0237 42.525C35.8437 41.925 35.7537 41.225 35.7537 40.425ZM39.3837 44.04C40.0137 44.04 40.5237 43.84 40.9137 43.44C41.3037 43.03 41.4987 42.4 41.4987 41.55C41.4987 40.87 41.3237 40.33 40.9737 39.93C40.6337 39.53 40.1187 39.33 39.4287 39.33C38.9587 39.33 38.5487 39.43 38.1987 39.63C37.8487 39.82 37.5737 40.065 37.3737 40.365C37.1837 40.665 37.0887 40.975 37.0887 41.295C37.0887 41.625 37.1337 41.95 37.2237 42.27C37.3237 42.59 37.4687 42.885 37.6587 43.155C37.8587 43.425 38.0987 43.64 38.3787 43.8C38.6687 43.96 39.0037 44.04 39.3837 44.04ZM58.3216 39.53C58.3216 39.85 58.2616 40.1267 58.1416 40.36C58.0216 40.5933 57.8483 40.7833 57.6216 40.93C57.4016 41.0767 57.1416 41.18 56.8416 41.24V41.28C57.4149 41.3467 57.8416 41.5267 58.1216 41.82C58.4016 42.1133 58.5416 42.4967 58.5416 42.97C58.5416 43.3833 58.4449 43.7533 58.2516 44.08C58.0583 44.4 57.7583 44.65 57.3516 44.83C56.9516 45.01 56.4349 45.1 55.8016 45.1C55.4283 45.1 55.0816 45.07 54.7616 45.01C54.4416 44.9567 54.1349 44.8567 53.8416 44.71V43.89C54.1416 44.0367 54.4649 44.1533 54.8116 44.24C55.1583 44.32 55.4916 44.36 55.8116 44.36C56.4516 44.36 56.9116 44.2367 57.1916 43.99C57.4783 43.7367 57.6216 43.39 57.6216 42.95C57.6216 42.65 57.5416 42.41 57.3816 42.23C57.2283 42.0433 57.0016 41.9067 56.7016 41.82C56.4016 41.7333 56.0416 41.69 55.6216 41.69H54.9316V40.94H55.6316C56.0249 40.94 56.3516 40.8833 56.6116 40.77C56.8783 40.6567 57.0783 40.5 57.2116 40.3C57.3516 40.0933 57.4216 39.8567 57.4216 39.59C57.4216 39.2433 57.3049 38.9767 57.0716 38.79C56.8383 38.5967 56.5216 38.5 56.1216 38.5C55.8683 38.5 55.6383 38.5267 55.4316 38.58C55.2249 38.6267 55.0316 38.6967 54.8516 38.79C54.6783 38.8767 54.5016 38.98 54.3216 39.1L53.8816 38.5C54.0549 38.3667 54.2516 38.2433 54.4716 38.13C54.6983 38.0167 54.9483 37.9267 55.2216 37.86C55.4949 37.7933 55.7916 37.76 56.1116 37.76C56.8583 37.76 57.4116 37.9267 57.7716 38.26C58.1383 38.5933 58.3216 39.0167 58.3216 39.53ZM64.3143 45H59.5943V44.27L61.4643 42.38C61.8243 42.02 62.1276 41.7 62.3743 41.42C62.6209 41.14 62.8076 40.8667 62.9343 40.6C63.0609 40.3267 63.1243 40.03 63.1243 39.71C63.1243 39.3167 63.0076 39.02 62.7743 38.82C62.5409 38.6133 62.2376 38.51 61.8643 38.51C61.5176 38.51 61.2109 38.57 60.9443 38.69C60.6843 38.81 60.4176 38.9767 60.1443 39.19L59.6743 38.6C59.8609 38.44 60.0643 38.2967 60.2843 38.17C60.5109 38.0433 60.7543 37.9433 61.0143 37.87C61.2809 37.7967 61.5643 37.76 61.8643 37.76C62.3109 37.76 62.6943 37.8367 63.0143 37.99C63.3343 38.1433 63.5809 38.3633 63.7543 38.65C63.9343 38.93 64.0243 39.2667 64.0243 39.66C64.0243 39.94 63.9809 40.2067 63.8943 40.46C63.8076 40.7067 63.6843 40.95 63.5243 41.19C63.3643 41.43 63.1709 41.6733 62.9443 41.92C62.7176 42.1667 62.4676 42.4233 62.1943 42.69L60.7043 44.16V44.2H64.3143V45Z" fill="white"/>
<path d="M7.58422 51.86C8.17755 51.86 8.67422 51.9167 9.07422 52.03C9.48089 52.1433 9.78422 52.33 9.98422 52.59C10.1909 52.85 10.2942 53.1967 10.2942 53.63C10.2942 53.91 10.2409 54.16 10.1342 54.38C10.0342 54.5933 9.88089 54.7733 9.67422 54.92C9.47422 55.06 9.22755 55.1567 8.93422 55.21V55.26C9.23422 55.3067 9.50422 55.3933 9.74422 55.52C9.99089 55.6467 10.1842 55.8267 10.3242 56.06C10.4642 56.2933 10.5342 56.5967 10.5342 56.97C10.5342 57.4033 10.4342 57.7733 10.2342 58.08C10.0342 58.38 9.74755 58.61 9.37422 58.77C9.00755 58.9233 8.56755 59 8.05422 59H5.54422V51.86H7.58422ZM7.76422 54.9C8.37755 54.9 8.79755 54.8033 9.02422 54.61C9.25089 54.41 9.36422 54.1167 9.36422 53.73C9.36422 53.3367 9.22422 53.0567 8.94422 52.89C8.67089 52.7167 8.23089 52.63 7.62422 52.63H6.44422V54.9H7.76422ZM6.44422 55.65V58.24H7.88422C8.51755 58.24 8.95755 58.1167 9.20422 57.87C9.45089 57.6233 9.57422 57.3 9.57422 56.9C9.57422 56.6467 9.51755 56.4267 9.40422 56.24C9.29755 56.0533 9.11422 55.91 8.85422 55.81C8.60089 55.7033 8.25422 55.65 7.81422 55.65H6.44422ZM16.5881 56.31C16.5881 56.7567 16.5281 57.1533 16.4081 57.5C16.2948 57.84 16.1281 58.13 15.9081 58.37C15.6948 58.61 15.4315 58.7933 15.1181 58.92C14.8115 59.04 14.4681 59.1 14.0881 59.1C13.7348 59.1 13.4081 59.04 13.1081 58.92C12.8081 58.7933 12.5481 58.61 12.3281 58.37C12.1081 58.13 11.9348 57.84 11.8081 57.5C11.6881 57.1533 11.6281 56.7567 11.6281 56.31C11.6281 55.7167 11.7281 55.2167 11.9281 54.81C12.1281 54.3967 12.4148 54.0833 12.7881 53.87C13.1615 53.65 13.6048 53.54 14.1181 53.54C14.6048 53.54 15.0315 53.65 15.3981 53.87C15.7715 54.0833 16.0615 54.3967 16.2681 54.81C16.4815 55.2167 16.5881 55.7167 16.5881 56.31ZM12.5381 56.31C12.5381 56.73 12.5915 57.0967 12.6981 57.41C12.8115 57.7167 12.9848 57.9533 13.2181 58.12C13.4515 58.2867 13.7481 58.37 14.1081 58.37C14.4681 58.37 14.7648 58.2867 14.9981 58.12C15.2315 57.9533 15.4015 57.7167 15.5081 57.41C15.6215 57.0967 15.6781 56.73 15.6781 56.31C15.6781 55.8833 15.6215 55.52 15.5081 55.22C15.3948 54.92 15.2215 54.69 14.9881 54.53C14.7615 54.3633 14.4648 54.28 14.0981 54.28C13.5515 54.28 13.1548 54.46 12.9081 54.82C12.6615 55.18 12.5381 55.6767 12.5381 56.31ZM20.1328 59.1C19.6595 59.1 19.2361 59.0033 18.8628 58.81C18.4961 58.6167 18.2061 58.3167 17.9928 57.91C17.7861 57.5033 17.6828 56.9833 17.6828 56.35C17.6828 55.69 17.7928 55.1533 18.0128 54.74C18.2328 54.3267 18.5295 54.0233 18.9028 53.83C19.2828 53.6367 19.7128 53.54 20.1928 53.54C20.4661 53.54 20.7295 53.57 20.9828 53.63C21.2361 53.6833 21.4428 53.75 21.6028 53.83L21.3328 54.56C21.1728 54.5 20.9861 54.4433 20.7728 54.39C20.5595 54.3367 20.3595 54.31 20.1728 54.31C19.8128 54.31 19.5161 54.3867 19.2828 54.54C19.0495 54.6933 18.8761 54.92 18.7628 55.22C18.6495 55.52 18.5928 55.8933 18.5928 56.34C18.5928 56.7667 18.6495 57.13 18.7628 57.43C18.8761 57.73 19.0461 57.9567 19.2728 58.11C19.4995 58.2633 19.7828 58.34 20.1228 58.34C20.4161 58.34 20.6728 58.31 20.8928 58.25C21.1195 58.19 21.3261 58.1167 21.5128 58.03V58.81C21.3328 58.9033 21.1328 58.9733 20.9128 59.02C20.6995 59.0733 20.4395 59.1 20.1328 59.1ZM25.9575 53.64H26.9175L24.6275 56.22L27.1075 59H26.0875L23.6675 56.28V59H22.7875V53.64H23.6675V56.24L25.9575 53.64ZM30.6305 53.54C31.2905 53.54 31.8205 53.77 32.2205 54.23C32.6271 54.69 32.8305 55.3833 32.8305 56.31C32.8305 56.9167 32.7371 57.43 32.5505 57.85C32.3705 58.2633 32.1138 58.5767 31.7805 58.79C31.4538 58.9967 31.0671 59.1 30.6205 59.1C30.3471 59.1 30.1038 59.0633 29.8905 58.99C29.6771 58.9167 29.4938 58.8233 29.3405 58.71C29.1938 58.59 29.0671 58.46 28.9605 58.32H28.9005C28.9138 58.4333 28.9271 58.5767 28.9405 58.75C28.9538 58.9233 28.9605 59.0733 28.9605 59.2V61.4H28.0805V53.64H28.8005L28.9205 54.37H28.9605C29.0671 54.2167 29.1938 54.0767 29.3405 53.95C29.4938 53.8233 29.6738 53.7233 29.8805 53.65C30.0938 53.5767 30.3438 53.54 30.6305 53.54ZM30.4705 54.28C30.1105 54.28 29.8205 54.35 29.6005 54.49C29.3805 54.6233 29.2205 54.8267 29.1205 55.1C29.0205 55.3733 28.9671 55.72 28.9605 56.14V56.31C28.9605 56.75 29.0071 57.1233 29.1005 57.43C29.1938 57.7367 29.3505 57.97 29.5705 58.13C29.7971 58.29 30.1038 58.37 30.4905 58.37C30.8171 58.37 31.0838 58.28 31.2905 58.1C31.5038 57.92 31.6605 57.6767 31.7605 57.37C31.8671 57.0567 31.9205 56.7 31.9205 56.3C31.9205 55.6867 31.8005 55.1967 31.5605 54.83C31.3271 54.4633 30.9638 54.28 30.4705 54.28ZM36.3028 53.54C36.7628 53.54 37.1561 53.64 37.4828 53.84C37.8161 54.04 38.0695 54.3233 38.2428 54.69C38.4228 55.05 38.5128 55.4733 38.5128 55.96V56.49H34.8428C34.8561 57.0967 35.0095 57.56 35.3028 57.88C35.6028 58.1933 36.0195 58.35 36.5528 58.35C36.8928 58.35 37.1928 58.32 37.4528 58.26C37.7195 58.1933 37.9928 58.1 38.2728 57.98V58.75C37.9995 58.87 37.7295 58.9567 37.4628 59.01C37.1961 59.07 36.8795 59.1 36.5128 59.1C36.0061 59.1 35.5561 58.9967 35.1628 58.79C34.7761 58.5833 34.4728 58.2767 34.2528 57.87C34.0395 57.4567 33.9328 56.9533 33.9328 56.36C33.9328 55.7733 34.0295 55.27 34.2228 54.85C34.4228 54.43 34.6995 54.1067 35.0528 53.88C35.4128 53.6533 35.8295 53.54 36.3028 53.54ZM36.2928 54.26C35.8728 54.26 35.5395 54.3967 35.2928 54.67C35.0528 54.9367 34.9095 55.31 34.8628 55.79H37.5928C37.5928 55.4833 37.5461 55.2167 37.4528 54.99C37.3595 54.7633 37.2161 54.5867 37.0228 54.46C36.8361 54.3267 36.5928 54.26 36.2928 54.26ZM42.0273 59.1C41.554 59.1 41.1307 59.0033 40.7573 58.81C40.3907 58.6167 40.1007 58.3167 39.8873 57.91C39.6807 57.5033 39.5773 56.9833 39.5773 56.35C39.5773 55.69 39.6873 55.1533 39.9073 54.74C40.1273 54.3267 40.424 54.0233 40.7973 53.83C41.1773 53.6367 41.6073 53.54 42.0873 53.54C42.3607 53.54 42.624 53.57 42.8773 53.63C43.1307 53.6833 43.3373 53.75 43.4973 53.83L43.2273 54.56C43.0673 54.5 42.8807 54.4433 42.6673 54.39C42.454 54.3367 42.254 54.31 42.0673 54.31C41.7073 54.31 41.4107 54.3867 41.1773 54.54C40.944 54.6933 40.7707 54.92 40.6573 55.22C40.544 55.52 40.4873 55.8933 40.4873 56.34C40.4873 56.7667 40.544 57.13 40.6573 57.43C40.7707 57.73 40.9407 57.9567 41.1673 58.11C41.394 58.2633 41.6773 58.34 42.0173 58.34C42.3107 58.34 42.5673 58.31 42.7873 58.25C43.014 58.19 43.2207 58.1167 43.4073 58.03V58.81C43.2273 58.9033 43.0273 58.9733 42.8073 59.02C42.594 59.0733 42.334 59.1 42.0273 59.1ZM46.752 53.54C47.212 53.54 47.6054 53.64 47.932 53.84C48.2654 54.04 48.5187 54.3233 48.692 54.69C48.872 55.05 48.962 55.4733 48.962 55.96V56.49H45.292C45.3054 57.0967 45.4587 57.56 45.752 57.88C46.052 58.1933 46.4687 58.35 47.002 58.35C47.342 58.35 47.642 58.32 47.902 58.26C48.1687 58.1933 48.442 58.1 48.722 57.98V58.75C48.4487 58.87 48.1787 58.9567 47.912 59.01C47.6454 59.07 47.3287 59.1 46.962 59.1C46.4554 59.1 46.0054 58.9967 45.612 58.79C45.2254 58.5833 44.922 58.2767 44.702 57.87C44.4887 57.4567 44.382 56.9533 44.382 56.36C44.382 55.7733 44.4787 55.27 44.672 54.85C44.872 54.43 45.1487 54.1067 45.502 53.88C45.862 53.6533 46.2787 53.54 46.752 53.54ZM46.742 54.26C46.322 54.26 45.9887 54.3967 45.742 54.67C45.502 54.9367 45.3587 55.31 45.312 55.79H48.042C48.042 55.4833 47.9954 55.2167 47.902 54.99C47.8087 54.7633 47.6654 54.5867 47.472 54.46C47.2854 54.3267 47.042 54.26 46.742 54.26ZM51.2066 53.64V55.87H54.1166V53.64H54.9966V59H54.1166V56.61H51.2066V59H50.3266V53.64H51.2066ZM59.1638 55.84C59.6304 55.84 60.0171 55.8967 60.3238 56.01C60.6304 56.1233 60.8604 56.2933 61.0138 56.52C61.1738 56.74 61.2538 57.02 61.2538 57.36C61.2538 57.6933 61.1771 57.9833 61.0238 58.23C60.8771 58.4767 60.6471 58.6667 60.3338 58.8C60.0204 58.9333 59.6171 59 59.1238 59H56.6938V53.64H57.5738V55.84H59.1638ZM60.3738 57.41C60.3738 57.0833 60.2571 56.8633 60.0238 56.75C59.7971 56.63 59.4771 56.57 59.0638 56.57H57.5738V58.29H59.0838C59.4571 58.29 59.7638 58.2233 60.0038 58.09C60.2504 57.9567 60.3738 57.73 60.3738 57.41ZM64.7013 53.54C65.1613 53.54 65.5546 53.64 65.8813 53.84C66.2146 54.04 66.4679 54.3233 66.6413 54.69C66.8213 55.05 66.9113 55.4733 66.9113 55.96V56.49H63.2413C63.2546 57.0967 63.4079 57.56 63.7013 57.88C64.0013 58.1933 64.4179 58.35 64.9513 58.35C65.2913 58.35 65.5913 58.32 65.8513 58.26C66.1179 58.1933 66.3913 58.1 66.6713 57.98V58.75C66.3979 58.87 66.1279 58.9567 65.8613 59.01C65.5946 59.07 65.2779 59.1 64.9113 59.1C64.4046 59.1 63.9546 58.9967 63.5613 58.79C63.1746 58.5833 62.8713 58.2767 62.6513 57.87C62.4379 57.4567 62.3313 56.9533 62.3313 56.36C62.3313 55.7733 62.4279 55.27 62.6213 54.85C62.8213 54.43 63.0979 54.1067 63.4513 53.88C63.8113 53.6533 64.2279 53.54 64.7013 53.54ZM64.6913 54.26C64.2713 54.26 63.9379 54.3967 63.6913 54.67C63.4513 54.9367 63.3079 55.31 63.2613 55.79H65.9913C65.9913 55.4833 65.9446 55.2167 65.8513 54.99C65.7579 54.7633 65.6146 54.5867 65.4213 54.46C65.2346 54.3267 64.9913 54.26 64.6913 54.26Z" fill="white"/>
<path d="M11.7311 76.704C11.7311 77.4 11.6791 78.02 11.5751 78.564C11.4711 79.108 11.3031 79.572 11.0711 79.956C10.8471 80.332 10.5511 80.62 10.1831 80.82C9.82308 81.02 9.38708 81.12 8.87508 81.12C8.23508 81.12 7.70308 80.944 7.27908 80.592C6.86308 80.24 6.55108 79.736 6.34308 79.08C6.14308 78.416 6.04308 77.624 6.04308 76.704C6.04308 75.776 6.13508 74.984 6.31908 74.328C6.51108 73.672 6.81508 73.172 7.23108 72.828C7.64708 72.476 8.19508 72.3 8.87508 72.3C9.51508 72.3 10.0471 72.476 10.4711 72.828C10.8951 73.172 11.2111 73.672 11.4191 74.328C11.6271 74.984 11.7311 75.776 11.7311 76.704ZM7.09908 76.704C7.09908 77.488 7.15508 78.14 7.26708 78.66C7.38708 79.18 7.57508 79.572 7.83108 79.836C8.09508 80.092 8.44308 80.22 8.87508 80.22C9.30708 80.22 9.65108 80.092 9.90708 79.836C10.1711 79.58 10.3631 79.192 10.4831 78.672C10.6031 78.144 10.6631 77.488 10.6631 76.704C10.6631 75.92 10.6031 75.272 10.4831 74.76C10.3631 74.24 10.1711 73.852 9.90708 73.596C9.65108 73.332 9.30708 73.2 8.87508 73.2C8.44308 73.2 8.09508 73.332 7.83108 73.596C7.57508 73.852 7.38708 74.24 7.26708 74.76C7.15508 75.272 7.09908 75.92 7.09908 76.704ZM20.3503 76.632C20.3503 77.592 20.1703 78.396 19.8103 79.044C19.4583 79.692 18.9503 80.18 18.2863 80.508C17.6223 80.836 16.8183 81 15.8743 81H13.4863V72.432H16.1263C16.9903 72.432 17.7383 72.592 18.3703 72.912C19.0023 73.232 19.4903 73.704 19.8343 74.328C20.1783 74.944 20.3503 75.712 20.3503 76.632ZM19.2103 76.668C19.2103 75.908 19.0823 75.284 18.8263 74.796C18.5783 74.308 18.2103 73.948 17.7223 73.716C17.2423 73.476 16.6583 73.356 15.9703 73.356H14.5663V80.076H15.7303C16.8903 80.076 17.7583 79.792 18.3343 79.224C18.9183 78.648 19.2103 77.796 19.2103 76.668ZM28.6409 81H27.6089V75.012C27.6089 74.78 27.6089 74.584 27.6089 74.424C27.6169 74.264 27.6249 74.116 27.6329 73.98C27.6409 73.836 27.6489 73.688 27.6569 73.536C27.5289 73.664 27.4129 73.772 27.3089 73.86C27.2049 73.948 27.0729 74.06 26.9129 74.196L26.0009 74.94L25.4489 74.232L27.7649 72.432H28.6409V81ZM37.488 81H31.824V80.124L34.068 77.856C34.5 77.424 34.864 77.04 35.16 76.704C35.456 76.368 35.68 76.04 35.832 75.72C35.984 75.392 36.06 75.036 36.06 74.652C36.06 74.18 35.92 73.824 35.64 73.584C35.36 73.336 34.996 73.212 34.548 73.212C34.132 73.212 33.764 73.284 33.444 73.428C33.132 73.572 32.812 73.772 32.484 74.028L31.92 73.32C32.144 73.128 32.388 72.956 32.652 72.804C32.924 72.652 33.216 72.532 33.528 72.444C33.848 72.356 34.188 72.312 34.548 72.312C35.084 72.312 35.544 72.404 35.928 72.588C36.312 72.772 36.608 73.036 36.816 73.38C37.032 73.716 37.14 74.12 37.14 74.592C37.14 74.928 37.088 75.248 36.984 75.552C36.88 75.848 36.732 76.14 36.54 76.428C36.348 76.716 36.116 77.008 35.844 77.304C35.572 77.6 35.272 77.908 34.944 78.228L33.156 79.992V80.04H37.488V81ZM40.1912 74.556C40.1912 74.708 40.1832 74.864 40.1672 75.024C40.1592 75.184 40.1472 75.328 40.1312 75.456H40.2032C40.3392 75.232 40.5112 75.048 40.7192 74.904C40.9272 74.76 41.1592 74.652 41.4152 74.58C41.6712 74.5 41.9352 74.46 42.2072 74.46C42.7272 74.46 43.1592 74.544 43.5032 74.712C43.8552 74.872 44.1192 75.124 44.2952 75.468C44.4712 75.812 44.5592 76.26 44.5592 76.812V81H43.5152V76.884C43.5152 76.364 43.3992 75.976 43.1672 75.72C42.9352 75.464 42.5712 75.336 42.0752 75.336C41.5952 75.336 41.2192 75.428 40.9472 75.612C40.6752 75.788 40.4792 76.052 40.3592 76.404C40.2472 76.748 40.1912 77.172 40.1912 77.676V81H39.1352V71.88H40.1912V74.556ZM53.0862 81H52.0542V75.012C52.0542 74.78 52.0542 74.584 52.0542 74.424C52.0622 74.264 52.0702 74.116 52.0782 73.98C52.0862 73.836 52.0942 73.688 52.1022 73.536C51.9742 73.664 51.8582 73.772 51.7542 73.86C51.6502 73.948 51.5182 74.06 51.3582 74.196L50.4462 74.94L49.8942 74.232L52.2102 72.432H53.0862V81ZM62.3174 79.056H61.0694V81H60.0494V79.056H55.9454V78.156L59.9774 72.384H61.0694V78.108H62.3174V79.056ZM60.0494 75.408C60.0494 75.2 60.0494 75.012 60.0494 74.844C60.0574 74.668 60.0654 74.504 60.0734 74.352C60.0814 74.2 60.0854 74.056 60.0854 73.92C60.0934 73.776 60.1014 73.64 60.1094 73.512H60.0614C59.9974 73.664 59.9174 73.828 59.8214 74.004C59.7254 74.18 59.6334 74.328 59.5454 74.448L56.9774 78.108H60.0494V75.408ZM70.6365 74.448C71.3645 74.448 71.9085 74.636 72.2685 75.012C72.6285 75.38 72.8085 75.98 72.8085 76.812V81H71.7645V76.86C71.7645 76.356 71.6565 75.976 71.4405 75.72C71.2325 75.464 70.9045 75.336 70.4565 75.336C69.8325 75.336 69.3845 75.516 69.1125 75.876C68.8485 76.236 68.7165 76.76 68.7165 77.448V81H67.6725V76.86C67.6725 76.524 67.6245 76.244 67.5285 76.02C67.4325 75.788 67.2885 75.616 67.0965 75.504C66.9045 75.392 66.6565 75.336 66.3525 75.336C65.9205 75.336 65.5805 75.428 65.3325 75.612C65.0845 75.788 64.9045 76.048 64.7925 76.392C64.6885 76.736 64.6365 77.16 64.6365 77.664V81H63.5805V74.568H64.4325L64.5885 75.444H64.6485C64.7845 75.22 64.9485 75.036 65.1405 74.892C65.3405 74.74 65.5605 74.628 65.8005 74.556C66.0405 74.484 66.2885 74.448 66.5445 74.448C67.0405 74.448 67.4525 74.536 67.7805 74.712C68.1165 74.888 68.3605 75.16 68.5125 75.528H68.5725C68.7885 75.16 69.0805 74.888 69.4485 74.712C69.8245 74.536 70.2205 74.448 70.6365 74.448ZM80.3684 75.744C80.9524 75.744 81.4604 75.844 81.8924 76.044C82.3244 76.244 82.6564 76.532 82.8884 76.908C83.1284 77.276 83.2484 77.728 83.2484 78.264C83.2484 78.856 83.1204 79.368 82.8644 79.8C82.6084 80.224 82.2404 80.552 81.7604 80.784C81.2884 81.008 80.7164 81.12 80.0444 81.12C79.6044 81.12 79.1884 81.08 78.7964 81C78.4124 80.92 78.0884 80.804 77.8244 80.652V79.656C78.1124 79.832 78.4604 79.972 78.8684 80.076C79.2844 80.172 79.6804 80.22 80.0564 80.22C80.4804 80.22 80.8484 80.156 81.1604 80.028C81.4804 79.892 81.7284 79.688 81.9044 79.416C82.0804 79.136 82.1684 78.788 82.1684 78.372C82.1684 77.812 81.9964 77.384 81.6524 77.088C81.3084 76.784 80.7644 76.632 80.0204 76.632C79.7964 76.632 79.5404 76.652 79.2524 76.692C78.9644 76.732 78.7324 76.772 78.5564 76.812L78.0284 76.476L78.3524 72.432H82.6484V73.392H79.2524L79.0484 75.876C79.1844 75.852 79.3684 75.824 79.6004 75.792C79.8324 75.76 80.0884 75.744 80.3684 75.744ZM85.5675 81L89.0835 73.392H84.4635V72.432H90.2115V73.248L86.7315 81H85.5675ZM96.0107 79.224C96.0107 79.64 95.9067 79.988 95.6987 80.268C95.4907 80.548 95.1947 80.76 94.8107 80.904C94.4267 81.048 93.9707 81.12 93.4427 81.12C92.9947 81.12 92.6067 81.084 92.2787 81.012C91.9587 80.94 91.6747 80.84 91.4267 80.712V79.752C91.6827 79.88 91.9907 80 92.3507 80.112C92.7187 80.216 93.0907 80.268 93.4667 80.268C94.0027 80.268 94.3907 80.184 94.6307 80.016C94.8707 79.84 94.9907 79.608 94.9907 79.32C94.9907 79.16 94.9467 79.016 94.8587 78.888C94.7707 78.76 94.6107 78.632 94.3787 78.504C94.1547 78.376 93.8307 78.232 93.4067 78.072C92.9907 77.912 92.6347 77.752 92.3387 77.592C92.0427 77.432 91.8147 77.24 91.6547 77.016C91.4947 76.792 91.4147 76.504 91.4147 76.152C91.4147 75.608 91.6347 75.188 92.0747 74.892C92.5227 74.596 93.1067 74.448 93.8267 74.448C94.2187 74.448 94.5827 74.488 94.9187 74.568C95.2627 74.64 95.5827 74.744 95.8787 74.88L95.5187 75.72C95.3427 75.64 95.1547 75.572 94.9547 75.516C94.7627 75.452 94.5667 75.404 94.3667 75.372C94.1667 75.332 93.9627 75.312 93.7547 75.312C93.3227 75.312 92.9907 75.384 92.7587 75.528C92.5347 75.664 92.4227 75.852 92.4227 76.092C92.4227 76.268 92.4747 76.42 92.5787 76.548C92.6827 76.668 92.8547 76.788 93.0947 76.908C93.3427 77.02 93.6707 77.156 94.0787 77.316C94.4867 77.468 94.8347 77.624 95.1227 77.784C95.4107 77.944 95.6307 78.14 95.7827 78.372C95.9347 78.596 96.0107 78.88 96.0107 79.224Z" fill="white"/>
<path d="M8.34398 87.86C8.93732 87.86 9.43398 87.9167 9.83398 88.03C10.2407 88.1433 10.544 88.33 10.744 88.59C10.9507 88.85 11.054 89.1967 11.054 89.63C11.054 89.91 11.0007 90.16 10.894 90.38C10.794 90.5933 10.6407 90.7733 10.434 90.92C10.234 91.06 9.98732 91.1567 9.69398 91.21V91.26C9.99398 91.3067 10.264 91.3933 10.504 91.52C10.7507 91.6467 10.944 91.8267 11.084 92.06C11.224 92.2933 11.294 92.5967 11.294 92.97C11.294 93.4033 11.194 93.7733 10.994 94.08C10.794 94.38 10.5073 94.61 10.134 94.77C9.76732 94.9233 9.32732 95 8.81398 95H6.30398V87.86H8.34398ZM8.52398 90.9C9.13732 90.9 9.55732 90.8033 9.78398 90.61C10.0107 90.41 10.124 90.1167 10.124 89.73C10.124 89.3367 9.98398 89.0567 9.70398 88.89C9.43065 88.7167 8.99065 88.63 8.38398 88.63H7.20398V90.9H8.52398ZM7.20398 91.65V94.24H8.64398C9.27732 94.24 9.71732 94.1167 9.96398 93.87C10.2107 93.6233 10.334 93.3 10.334 92.9C10.334 92.6467 10.2773 92.4267 10.164 92.24C10.0573 92.0533 9.87398 91.91 9.61398 91.81C9.36065 91.7033 9.01398 91.65 8.57398 91.65H7.20398ZM15.2379 89.54C15.8979 89.54 16.4279 89.77 16.8279 90.23C17.2346 90.69 17.4379 91.3833 17.4379 92.31C17.4379 92.9167 17.3446 93.43 17.1579 93.85C16.9779 94.2633 16.7212 94.5767 16.3879 94.79C16.0612 94.9967 15.6746 95.1 15.2279 95.1C14.9546 95.1 14.7112 95.0633 14.4979 94.99C14.2846 94.9167 14.1012 94.8233 13.9479 94.71C13.8012 94.59 13.6746 94.46 13.5679 94.32H13.5079C13.5212 94.4333 13.5346 94.5767 13.5479 94.75C13.5612 94.9233 13.5679 95.0733 13.5679 95.2V97.4H12.6879V89.64H13.4079L13.5279 90.37H13.5679C13.6746 90.2167 13.8012 90.0767 13.9479 89.95C14.1012 89.8233 14.2812 89.7233 14.4879 89.65C14.7012 89.5767 14.9512 89.54 15.2379 89.54ZM15.0779 90.28C14.7179 90.28 14.4279 90.35 14.2079 90.49C13.9879 90.6233 13.8279 90.8267 13.7279 91.1C13.6279 91.3733 13.5746 91.72 13.5679 92.14V92.31C13.5679 92.75 13.6146 93.1233 13.7079 93.43C13.8012 93.7367 13.9579 93.97 14.1779 94.13C14.4046 94.29 14.7112 94.37 15.0979 94.37C15.4246 94.37 15.6912 94.28 15.8979 94.1C16.1112 93.92 16.2679 93.6767 16.3679 93.37C16.4746 93.0567 16.5279 92.7 16.5279 92.3C16.5279 91.6867 16.4079 91.1967 16.1679 90.83C15.9346 90.4633 15.5712 90.28 15.0779 90.28ZM20.9102 89.54C21.3702 89.54 21.7636 89.64 22.0902 89.84C22.4236 90.04 22.6769 90.3233 22.8502 90.69C23.0302 91.05 23.1202 91.4733 23.1202 91.96V92.49H19.4502C19.4636 93.0967 19.6169 93.56 19.9102 93.88C20.2102 94.1933 20.6269 94.35 21.1602 94.35C21.5002 94.35 21.8002 94.32 22.0602 94.26C22.3269 94.1933 22.6002 94.1 22.8802 93.98V94.75C22.6069 94.87 22.3369 94.9567 22.0702 95.01C21.8036 95.07 21.4869 95.1 21.1202 95.1C20.6136 95.1 20.1636 94.9967 19.7702 94.79C19.3836 94.5833 19.0802 94.2767 18.8602 93.87C18.6469 93.4567 18.5402 92.9533 18.5402 92.36C18.5402 91.7733 18.6369 91.27 18.8302 90.85C19.0302 90.43 19.3069 90.1067 19.6602 89.88C20.0202 89.6533 20.4369 89.54 20.9102 89.54ZM20.9002 90.26C20.4802 90.26 20.1469 90.3967 19.9002 90.67C19.6602 90.9367 19.5169 91.31 19.4702 91.79H22.2002C22.2002 91.4833 22.1536 91.2167 22.0602 90.99C21.9669 90.7633 21.8236 90.5867 21.6302 90.46C21.4436 90.3267 21.2002 90.26 20.9002 90.26ZM30.2348 89.64V95H29.4448V91.58C29.4448 91.44 29.4481 91.2933 29.4548 91.14C29.4681 90.9867 29.4814 90.8367 29.4948 90.69H29.4648L27.7148 95H26.9748L25.2748 90.69H25.2448C25.2581 90.8367 25.2648 90.9867 25.2648 91.14C25.2714 91.2933 25.2748 91.45 25.2748 91.61V95H24.4848V89.64H25.6548L27.3448 93.95L29.0648 89.64H30.2348ZM32.2757 95H31.2557L32.7857 92.75C32.579 92.6967 32.379 92.6133 32.1857 92.5C31.9924 92.38 31.8357 92.2167 31.7157 92.01C31.5957 91.7967 31.5357 91.5333 31.5357 91.22C31.5357 90.7067 31.709 90.3167 32.0557 90.05C32.4024 89.7767 32.8624 89.64 33.4357 89.64H35.8357V95H34.9557V92.87H33.6557L32.2757 95ZM32.3857 91.23C32.3857 91.5367 32.499 91.7667 32.7257 91.92C32.959 92.0667 33.2824 92.14 33.6957 92.14H34.9557V90.37H33.5257C33.119 90.37 32.8257 90.45 32.6457 90.61C32.4724 90.77 32.3857 90.9767 32.3857 91.23ZM42.8258 89.54C43.4858 89.54 44.0158 89.77 44.4158 90.23C44.8224 90.69 45.0258 91.3833 45.0258 92.31C45.0258 92.9167 44.9324 93.43 44.7458 93.85C44.5658 94.2633 44.3091 94.5767 43.9758 94.79C43.6491 94.9967 43.2624 95.1 42.8158 95.1C42.5424 95.1 42.2991 95.0633 42.0858 94.99C41.8724 94.9167 41.6891 94.8233 41.5358 94.71C41.3891 94.59 41.2624 94.46 41.1558 94.32H41.0958C41.1091 94.4333 41.1224 94.5767 41.1358 94.75C41.1491 94.9233 41.1558 95.0733 41.1558 95.2V97.4H40.2758V89.64H40.9958L41.1158 90.37H41.1558C41.2624 90.2167 41.3891 90.0767 41.5358 89.95C41.6891 89.8233 41.8691 89.7233 42.0758 89.65C42.2891 89.5767 42.5391 89.54 42.8258 89.54ZM42.6658 90.28C42.3058 90.28 42.0158 90.35 41.7958 90.49C41.5758 90.6233 41.4158 90.8267 41.3158 91.1C41.2158 91.3733 41.1624 91.72 41.1558 92.14V92.31C41.1558 92.75 41.2024 93.1233 41.2958 93.43C41.3891 93.7367 41.5458 93.97 41.7658 94.13C41.9924 94.29 42.2991 94.37 42.6858 94.37C43.0124 94.37 43.2791 94.28 43.4858 94.1C43.6991 93.92 43.8558 93.6767 43.9558 93.37C44.0624 93.0567 44.1158 92.7 44.1158 92.3C44.1158 91.6867 43.9958 91.1967 43.7558 90.83C43.5224 90.4633 43.1591 90.28 42.6658 90.28ZM48.4581 89.55C49.1115 89.55 49.5948 89.6933 49.9081 89.98C50.2215 90.2667 50.3781 90.7233 50.3781 91.35V95H49.7381L49.5681 94.24H49.5281C49.3748 94.4333 49.2148 94.5967 49.0481 94.73C48.8881 94.8567 48.7015 94.95 48.4881 95.01C48.2815 95.07 48.0281 95.1 47.7281 95.1C47.4081 95.1 47.1181 95.0433 46.8581 94.93C46.6048 94.8167 46.4048 94.6433 46.2581 94.41C46.1115 94.17 46.0381 93.87 46.0381 93.51C46.0381 92.9767 46.2481 92.5667 46.6681 92.28C47.0881 91.9867 47.7348 91.8267 48.6081 91.8L49.5181 91.77V91.45C49.5181 91.0033 49.4215 90.6933 49.2281 90.52C49.0348 90.3467 48.7615 90.26 48.4081 90.26C48.1281 90.26 47.8615 90.3033 47.6081 90.39C47.3548 90.47 47.1181 90.5633 46.8981 90.67L46.6281 90.01C46.8615 89.8833 47.1381 89.7767 47.4581 89.69C47.7781 89.5967 48.1115 89.55 48.4581 89.55ZM48.7181 92.41C48.0515 92.4367 47.5881 92.5433 47.3281 92.73C47.0748 92.9167 46.9481 93.18 46.9481 93.52C46.9481 93.82 47.0381 94.04 47.2181 94.18C47.4048 94.32 47.6415 94.39 47.9281 94.39C48.3815 94.39 48.7581 94.2667 49.0581 94.02C49.3581 93.7667 49.5081 93.38 49.5081 92.86V92.38L48.7181 92.41ZM51.7536 91.78C51.7536 91 51.8303 90.3367 51.9836 89.79C52.1436 89.2367 52.3869 88.7967 52.7136 88.47C53.0469 88.1367 53.4736 87.9133 53.9936 87.8C54.4269 87.7067 54.8503 87.6233 55.2636 87.55C55.6769 87.4767 56.0636 87.41 56.4236 87.35L56.5736 88.12C56.4003 88.1467 56.2069 88.18 55.9936 88.22C55.7803 88.2533 55.5636 88.29 55.3436 88.33C55.1236 88.3633 54.9103 88.4 54.7036 88.44C54.5036 88.4733 54.3269 88.5067 54.1736 88.54C53.9536 88.5867 53.7569 88.6667 53.5836 88.78C53.4103 88.8867 53.2603 89.0333 53.1336 89.22C53.0136 89.4067 52.9169 89.6367 52.8436 89.91C52.7703 90.1833 52.7269 90.5067 52.7136 90.88H52.7736C52.8669 90.7533 52.9936 90.6233 53.1536 90.49C53.3203 90.3567 53.5169 90.2433 53.7436 90.15C53.9769 90.0567 54.2403 90.01 54.5336 90.01C55.0003 90.01 55.3869 90.1133 55.6936 90.32C56.0069 90.52 56.2403 90.8 56.3936 91.16C56.5536 91.52 56.6336 91.94 56.6336 92.42C56.6336 93.0133 56.5303 93.51 56.3236 93.91C56.1169 94.31 55.8303 94.61 55.4636 94.81C55.0969 95.0033 54.6703 95.1 54.1836 95.1C53.8169 95.1 53.4836 95.03 53.1836 94.89C52.8836 94.7433 52.6269 94.53 52.4136 94.25C52.2003 93.97 52.0369 93.6233 51.9236 93.21C51.8103 92.7967 51.7536 92.32 51.7536 91.78ZM54.2536 94.37C54.5469 94.37 54.8003 94.31 55.0136 94.19C55.2336 94.07 55.4036 93.8733 55.5236 93.6C55.6436 93.3267 55.7036 92.9633 55.7036 92.51C55.7036 91.9633 55.6003 91.5333 55.3936 91.22C55.1936 90.9 54.8603 90.74 54.3936 90.74C54.1003 90.74 53.8336 90.8067 53.5936 90.94C53.3536 91.0667 53.1536 91.2133 52.9936 91.38C52.8336 91.5467 52.7203 91.6867 52.6536 91.8C52.6536 92.1267 52.6769 92.4433 52.7236 92.75C52.7703 93.0567 52.8503 93.3333 52.9636 93.58C53.0836 93.82 53.2469 94.0133 53.4536 94.16C53.6669 94.3 53.9336 94.37 54.2536 94.37ZM62.6799 92.31C62.6799 92.7567 62.6199 93.1533 62.4999 93.5C62.3866 93.84 62.2199 94.13 61.9999 94.37C61.7866 94.61 61.5233 94.7933 61.2099 94.92C60.9033 95.04 60.5599 95.1 60.1799 95.1C59.8266 95.1 59.4999 95.04 59.1999 94.92C58.8999 94.7933 58.6399 94.61 58.4199 94.37C58.1999 94.13 58.0266 93.84 57.8999 93.5C57.7799 93.1533 57.7199 92.7567 57.7199 92.31C57.7199 91.7167 57.8199 91.2167 58.0199 90.81C58.2199 90.3967 58.5066 90.0833 58.8799 89.87C59.2533 89.65 59.6966 89.54 60.2099 89.54C60.6966 89.54 61.1233 89.65 61.4899 89.87C61.8633 90.0833 62.1533 90.3967 62.3599 90.81C62.5733 91.2167 62.6799 91.7167 62.6799 92.31ZM58.6299 92.31C58.6299 92.73 58.6833 93.0967 58.7899 93.41C58.9033 93.7167 59.0766 93.9533 59.3099 94.12C59.5433 94.2867 59.8399 94.37 60.1999 94.37C60.5599 94.37 60.8566 94.2867 61.0899 94.12C61.3233 93.9533 61.4933 93.7167 61.5999 93.41C61.7133 93.0967 61.7699 92.73 61.7699 92.31C61.7699 91.8833 61.7133 91.52 61.5999 91.22C61.4866 90.92 61.3133 90.69 61.0799 90.53C60.8533 90.3633 60.5566 90.28 60.1899 90.28C59.6433 90.28 59.2466 90.46 58.9999 90.82C58.7533 91.18 58.6299 91.6767 58.6299 92.31ZM67.677 90.38H65.927V95H65.057V90.38H63.327V89.64H67.677V90.38ZM68.7328 95V89.64H69.6128V91.84H71.0028C71.4695 91.84 71.8528 91.8967 72.1528 92.01C72.4528 92.1233 72.6761 92.2933 72.8228 92.52C72.9695 92.74 73.0428 93.02 73.0428 93.36C73.0428 93.6933 72.9695 93.9833 72.8228 94.23C72.6828 94.4767 72.4595 94.6667 72.1528 94.8C71.8528 94.9333 71.4561 95 70.9628 95H68.7328ZM70.8828 94.29C71.2628 94.29 71.5728 94.2267 71.8128 94.1C72.0528 93.9667 72.1728 93.7367 72.1728 93.41C72.1728 93.0833 72.0628 92.8633 71.8428 92.75C71.6228 92.63 71.3061 92.57 70.8928 92.57H69.6128V94.29H70.8828ZM73.9328 95V89.64H74.8128V95H73.9328Z" fill="white"/>
<path d="M8.06838 118H7.34838V112.92H5.56438V112.288H9.84438V112.92H8.06838V118ZM11.7032 113.632C12.0712 113.632 12.3859 113.712 12.6472 113.872C12.9139 114.032 13.1165 114.259 13.2552 114.552C13.3992 114.84 13.4712 115.179 13.4712 115.568V115.992H10.5352C10.5459 116.477 10.6685 116.848 10.9032 117.104C11.1432 117.355 11.4765 117.48 11.9032 117.48C12.1752 117.48 12.4152 117.456 12.6232 117.408C12.8365 117.355 13.0552 117.28 13.2792 117.184V117.8C13.0605 117.896 12.8445 117.965 12.6312 118.008C12.4179 118.056 12.1645 118.08 11.8712 118.08C11.4659 118.08 11.1059 117.997 10.7912 117.832C10.4819 117.667 10.2392 117.421 10.0632 117.096C9.89252 116.765 9.80719 116.363 9.80719 115.888C9.80719 115.419 9.88452 115.016 10.0392 114.68C10.1992 114.344 10.4205 114.085 10.7032 113.904C10.9912 113.723 11.3245 113.632 11.7032 113.632ZM11.6952 114.208C11.3592 114.208 11.0925 114.317 10.8952 114.536C10.7032 114.749 10.5885 115.048 10.5512 115.432H12.7352C12.7352 115.187 12.6979 114.973 12.6232 114.792C12.5485 114.611 12.4339 114.469 12.2792 114.368C12.1299 114.261 11.9352 114.208 11.6952 114.208ZM19.1628 113.712V118H18.5308V115.264C18.5308 115.152 18.5335 115.035 18.5388 114.912C18.5495 114.789 18.5601 114.669 18.5708 114.552H18.5468L17.1468 118H16.5548L15.1948 114.552H15.1708C15.1815 114.669 15.1868 114.789 15.1868 114.912C15.1921 115.035 15.1948 115.16 15.1948 115.288V118H14.5628V113.712H15.4988L16.8508 117.16L18.2268 113.712H19.1628ZM24.1556 113.712V118H23.4516V114.312H21.2356V118H20.5316V113.712H24.1556ZM27.1798 113.632C27.5478 113.632 27.8624 113.712 28.1238 113.872C28.3904 114.032 28.5931 114.259 28.7318 114.552C28.8758 114.84 28.9478 115.179 28.9478 115.568V115.992H26.0118C26.0224 116.477 26.1451 116.848 26.3798 117.104C26.6198 117.355 26.9531 117.48 27.3798 117.48C27.6518 117.48 27.8918 117.456 28.0998 117.408C28.3131 117.355 28.5318 117.28 28.7558 117.184V117.8C28.5371 117.896 28.3211 117.965 28.1078 118.008C27.8944 118.056 27.6411 118.08 27.3478 118.08C26.9424 118.08 26.5824 117.997 26.2678 117.832C25.9584 117.667 25.7158 117.421 25.5398 117.096C25.3691 116.765 25.2838 116.363 25.2838 115.888C25.2838 115.419 25.3611 115.016 25.5158 114.68C25.6758 114.344 25.8971 114.085 26.1798 113.904C26.4678 113.723 26.8011 113.632 27.1798 113.632ZM27.1718 114.208C26.8358 114.208 26.5691 114.317 26.3718 114.536C26.1798 114.749 26.0651 115.048 26.0278 115.432H28.2118C28.2118 115.187 28.1744 114.973 28.0998 114.792C28.0251 114.611 27.9104 114.469 27.7558 114.368C27.6064 114.261 27.4118 114.208 27.1718 114.208ZM32.0794 113.632C32.6074 113.632 33.0314 113.816 33.3514 114.184C33.6767 114.552 33.8394 115.107 33.8394 115.848C33.8394 116.333 33.7647 116.744 33.6154 117.08C33.4714 117.411 33.266 117.661 32.9994 117.832C32.738 117.997 32.4287 118.08 32.0714 118.08C31.8527 118.08 31.658 118.051 31.4874 117.992C31.3167 117.933 31.17 117.859 31.0474 117.768C30.93 117.672 30.8287 117.568 30.7434 117.456H30.6954C30.706 117.547 30.7167 117.661 30.7274 117.8C30.738 117.939 30.7434 118.059 30.7434 118.16V119.92H30.0394V113.712H30.6154L30.7114 114.296H30.7434C30.8287 114.173 30.93 114.061 31.0474 113.96C31.17 113.859 31.314 113.779 31.4794 113.72C31.65 113.661 31.85 113.632 32.0794 113.632ZM31.9514 114.224C31.6634 114.224 31.4314 114.28 31.2554 114.392C31.0794 114.499 30.9514 114.661 30.8714 114.88C30.7914 115.099 30.7487 115.376 30.7434 115.712V115.848C30.7434 116.2 30.7807 116.499 30.8554 116.744C30.93 116.989 31.0554 117.176 31.2314 117.304C31.4127 117.432 31.658 117.496 31.9674 117.496C32.2287 117.496 32.442 117.424 32.6074 117.28C32.778 117.136 32.9034 116.941 32.9834 116.696C33.0687 116.445 33.1114 116.16 33.1114 115.84C33.1114 115.349 33.0154 114.957 32.8234 114.664C32.6367 114.371 32.346 114.224 31.9514 114.224ZM36.5853 113.64C37.1079 113.64 37.4946 113.755 37.7453 113.984C37.9959 114.213 38.1213 114.579 38.1213 115.08V118H37.6093L37.4733 117.392H37.4413C37.3186 117.547 37.1906 117.677 37.0573 117.784C36.9293 117.885 36.7799 117.96 36.6093 118.008C36.4439 118.056 36.2413 118.08 36.0013 118.08C35.7453 118.08 35.5133 118.035 35.3053 117.944C35.1026 117.853 34.9426 117.715 34.8253 117.528C34.7079 117.336 34.6493 117.096 34.6493 116.808C34.6493 116.381 34.8173 116.053 35.1533 115.824C35.4893 115.589 36.0066 115.461 36.7053 115.44L37.4333 115.416V115.16C37.4333 114.803 37.3559 114.555 37.2013 114.416C37.0466 114.277 36.8279 114.208 36.5453 114.208C36.3213 114.208 36.1079 114.243 35.9053 114.312C35.7026 114.376 35.5133 114.451 35.3372 114.536L35.1213 114.008C35.3079 113.907 35.5293 113.821 35.7853 113.752C36.0413 113.677 36.3079 113.64 36.5853 113.64ZM36.7933 115.928C36.2599 115.949 35.8893 116.035 35.6813 116.184C35.4786 116.333 35.3773 116.544 35.3773 116.816C35.3773 117.056 35.4493 117.232 35.5933 117.344C35.7426 117.456 35.9319 117.512 36.1613 117.512C36.5239 117.512 36.8253 117.413 37.0653 117.216C37.3053 117.013 37.4253 116.704 37.4253 116.288V115.904L36.7933 115.928ZM42.4056 114.304H41.0056V118H40.3096V114.304H38.9256V113.712H42.4056V114.304ZM42.5783 113.712H43.3303L44.2583 116.152C44.3116 116.296 44.3596 116.435 44.4023 116.568C44.4503 116.701 44.493 116.832 44.5303 116.96C44.5676 117.083 44.597 117.203 44.6183 117.32H44.6503C44.6823 117.187 44.733 117.013 44.8023 116.8C44.8716 116.581 44.9436 116.363 45.0183 116.144L45.8903 113.712H46.6503L44.8023 118.592C44.701 118.859 44.581 119.091 44.4423 119.288C44.309 119.491 44.1436 119.645 43.9463 119.752C43.7543 119.864 43.5196 119.92 43.2423 119.92C43.1143 119.92 43.0023 119.912 42.9063 119.896C42.8103 119.885 42.7276 119.872 42.6583 119.856V119.296C42.717 119.307 42.7863 119.317 42.8663 119.328C42.9516 119.339 43.0396 119.344 43.1303 119.344C43.2956 119.344 43.437 119.312 43.5543 119.248C43.677 119.189 43.781 119.101 43.8663 118.984C43.9516 118.872 44.0236 118.739 44.0823 118.584L44.3063 118.016L42.5783 113.712ZM49.3684 113.632C49.8964 113.632 50.3204 113.816 50.6404 114.184C50.9658 114.552 51.1284 115.107 51.1284 115.848C51.1284 116.333 51.0538 116.744 50.9044 117.08C50.7604 117.411 50.5551 117.661 50.2884 117.832C50.0271 117.997 49.7178 118.08 49.3604 118.08C49.1418 118.08 48.9471 118.051 48.7764 117.992C48.6058 117.933 48.4591 117.859 48.3364 117.768C48.2191 117.672 48.1178 117.568 48.0324 117.456H47.9844C47.9951 117.547 48.0058 117.661 48.0164 117.8C48.0271 117.939 48.0324 118.059 48.0324 118.16V119.92H47.3284V113.712H47.9044L48.0004 114.296H48.0324C48.1178 114.173 48.2191 114.061 48.3364 113.96C48.4591 113.859 48.6031 113.779 48.7684 113.72C48.9391 113.661 49.1391 113.632 49.3684 113.632ZM49.2404 114.224C48.9524 114.224 48.7204 114.28 48.5444 114.392C48.3684 114.499 48.2404 114.661 48.1604 114.88C48.0804 115.099 48.0378 115.376 48.0324 115.712V115.848C48.0324 116.2 48.0698 116.499 48.1444 116.744C48.2191 116.989 48.3444 117.176 48.5204 117.304C48.7018 117.432 48.9471 117.496 49.2564 117.496C49.5178 117.496 49.7311 117.424 49.8964 117.28C50.0671 117.136 50.1924 116.941 50.2724 116.696C50.3578 116.445 50.4004 116.16 50.4004 115.84C50.4004 115.349 50.3044 114.957 50.1124 114.664C49.9258 114.371 49.6351 114.224 49.2404 114.224ZM53.8743 113.64C54.397 113.64 54.7836 113.755 55.0343 113.984C55.285 114.213 55.4103 114.579 55.4103 115.08V118H54.8983L54.7623 117.392H54.7303C54.6076 117.547 54.4796 117.677 54.3463 117.784C54.2183 117.885 54.069 117.96 53.8983 118.008C53.733 118.056 53.5303 118.08 53.2903 118.08C53.0343 118.08 52.8023 118.035 52.5943 117.944C52.3916 117.853 52.2316 117.715 52.1143 117.528C51.997 117.336 51.9383 117.096 51.9383 116.808C51.9383 116.381 52.1063 116.053 52.4423 115.824C52.7783 115.589 53.2956 115.461 53.9943 115.44L54.7223 115.416V115.16C54.7223 114.803 54.645 114.555 54.4903 114.416C54.3356 114.277 54.117 114.208 53.8343 114.208C53.6103 114.208 53.397 114.243 53.1943 114.312C52.9916 114.376 52.8023 114.451 52.6263 114.536L52.4103 114.008C52.597 113.907 52.8183 113.821 53.0743 113.752C53.3303 113.677 53.597 113.64 53.8743 113.64ZM54.0823 115.928C53.549 115.949 53.1783 116.035 52.9703 116.184C52.7676 116.333 52.6663 116.544 52.6663 116.816C52.6663 117.056 52.7383 117.232 52.8823 117.344C53.0316 117.456 53.221 117.512 53.4503 117.512C53.813 117.512 54.1143 117.413 54.3543 117.216C54.5943 117.013 54.7143 116.704 54.7143 116.288V115.904L54.0823 115.928ZM62.554 113.712V118H61.85V114.312H59.634V118H58.93V113.712H62.554ZM65.9622 113.632C66.4902 113.632 66.9142 113.816 67.2342 114.184C67.5595 114.552 67.7222 115.107 67.7222 115.848C67.7222 116.333 67.6475 116.744 67.4982 117.08C67.3542 117.411 67.1489 117.661 66.8822 117.832C66.6209 117.997 66.3115 118.08 65.9542 118.08C65.7355 118.08 65.5409 118.051 65.3702 117.992C65.1995 117.933 65.0529 117.859 64.9302 117.768C64.8129 117.672 64.7115 117.568 64.6262 117.456H64.5782C64.5889 117.547 64.5995 117.661 64.6102 117.8C64.6209 117.939 64.6262 118.059 64.6262 118.16V119.92H63.9222V113.712H64.4982L64.5942 114.296H64.6262C64.7115 114.173 64.8129 114.061 64.9302 113.96C65.0529 113.859 65.1969 113.779 65.3622 113.72C65.5329 113.661 65.7329 113.632 65.9622 113.632ZM65.8342 114.224C65.5462 114.224 65.3142 114.28 65.1382 114.392C64.9622 114.499 64.8342 114.661 64.7542 114.88C64.6742 115.099 64.6315 115.376 64.6262 115.712V115.848C64.6262 116.2 64.6635 116.499 64.7382 116.744C64.8129 116.989 64.9382 117.176 65.1142 117.304C65.2955 117.432 65.5409 117.496 65.8502 117.496C66.1115 117.496 66.3249 117.424 66.4902 117.28C66.6609 117.136 66.7862 116.941 66.8662 116.696C66.9515 116.445 66.9942 116.16 66.9942 115.84C66.9942 115.349 66.8982 114.957 66.7062 114.664C66.5195 114.371 66.2289 114.224 65.8342 114.224ZM72.5721 115.848C72.5721 116.205 72.5241 116.523 72.4281 116.8C72.3374 117.072 72.2041 117.304 72.0281 117.496C71.8574 117.688 71.6467 117.835 71.3961 117.936C71.1507 118.032 70.8761 118.08 70.5721 118.08C70.2894 118.08 70.0281 118.032 69.7881 117.936C69.5481 117.835 69.3401 117.688 69.1641 117.496C68.9881 117.304 68.8494 117.072 68.7481 116.8C68.6521 116.523 68.6041 116.205 68.6041 115.848C68.6041 115.373 68.6841 114.973 68.8441 114.648C69.0041 114.317 69.2334 114.067 69.5321 113.896C69.8307 113.72 70.1854 113.632 70.5961 113.632C70.9854 113.632 71.3267 113.72 71.6201 113.896C71.9187 114.067 72.1507 114.317 72.3161 114.648C72.4867 114.973 72.5721 115.373 72.5721 115.848ZM69.3321 115.848C69.3321 116.184 69.3747 116.477 69.4601 116.728C69.5507 116.973 69.6894 117.163 69.8761 117.296C70.0627 117.429 70.3001 117.496 70.5881 117.496C70.8761 117.496 71.1134 117.429 71.3001 117.296C71.4867 117.163 71.6227 116.973 71.7081 116.728C71.7987 116.477 71.8441 116.184 71.8441 115.848C71.8441 115.507 71.7987 115.216 71.7081 114.976C71.6174 114.736 71.4787 114.552 71.2921 114.424C71.1107 114.291 70.8734 114.224 70.5801 114.224C70.1427 114.224 69.8254 114.368 69.6281 114.656C69.4307 114.944 69.3321 115.341 69.3321 115.848ZM77.9198 119.488H77.2318V118H73.6878V113.712H74.3918V117.408H76.6078V113.712H77.3118V117.416H77.9198V119.488ZM80.3985 113.632C80.7665 113.632 81.0812 113.712 81.3425 113.872C81.6092 114.032 81.8118 114.259 81.9505 114.552C82.0945 114.84 82.1665 115.179 82.1665 115.568V115.992H79.2305C79.2412 116.477 79.3638 116.848 79.5985 117.104C79.8385 117.355 80.1718 117.48 80.5985 117.48C80.8705 117.48 81.1105 117.456 81.3185 117.408C81.5318 117.355 81.7505 117.28 81.9745 117.184V117.8C81.7558 117.896 81.5398 117.965 81.3265 118.008C81.1132 118.056 80.8598 118.08 80.5665 118.08C80.1612 118.08 79.8012 117.997 79.4865 117.832C79.1772 117.667 78.9345 117.421 78.7585 117.096C78.5878 116.765 78.5025 116.363 78.5025 115.888C78.5025 115.419 78.5798 115.016 78.7345 114.68C78.8945 114.344 79.1158 114.085 79.3985 113.904C79.6865 113.723 80.0198 113.632 80.3985 113.632ZM80.3905 114.208C80.0545 114.208 79.7878 114.317 79.5905 114.536C79.3985 114.749 79.2838 115.048 79.2465 115.432H81.4305C81.4305 115.187 81.3932 114.973 81.3185 114.792C81.2438 114.611 81.1292 114.469 80.9745 114.368C80.8252 114.261 80.6305 114.208 80.3905 114.208ZM84.9781 118.08C84.5995 118.08 84.2608 118.003 83.9621 117.848C83.6688 117.693 83.4368 117.453 83.2661 117.128C83.1008 116.803 83.0181 116.387 83.0181 115.88C83.0181 115.352 83.1061 114.923 83.2821 114.592C83.4581 114.261 83.6955 114.019 83.9941 113.864C84.2981 113.709 84.6421 113.632 85.0261 113.632C85.2448 113.632 85.4555 113.656 85.6581 113.704C85.8608 113.747 86.0261 113.8 86.1541 113.864L85.9381 114.448C85.8101 114.4 85.6608 114.355 85.4901 114.312C85.3195 114.269 85.1595 114.248 85.0101 114.248C84.7221 114.248 84.4848 114.309 84.2981 114.432C84.1115 114.555 83.9728 114.736 83.8821 114.976C83.7915 115.216 83.7461 115.515 83.7461 115.872C83.7461 116.213 83.7915 116.504 83.8821 116.744C83.9728 116.984 84.1088 117.165 84.2901 117.288C84.4715 117.411 84.6981 117.472 84.9701 117.472C85.2048 117.472 85.4101 117.448 85.5861 117.4C85.7675 117.352 85.9328 117.293 86.0821 117.224V117.848C85.9381 117.923 85.7781 117.979 85.6021 118.016C85.4315 118.059 85.2235 118.08 84.9781 118.08ZM88.8219 118.08C88.4432 118.08 88.1045 118.003 87.8059 117.848C87.5125 117.693 87.2805 117.453 87.1099 117.128C86.9445 116.803 86.8619 116.387 86.8619 115.88C86.8619 115.352 86.9499 114.923 87.1259 114.592C87.3019 114.261 87.5392 114.019 87.8379 113.864C88.1419 113.709 88.4859 113.632 88.8699 113.632C89.0885 113.632 89.2992 113.656 89.5019 113.704C89.7045 113.747 89.8699 113.8 89.9979 113.864L89.7819 114.448C89.6539 114.4 89.5045 114.355 89.3339 114.312C89.1632 114.269 89.0032 114.248 88.8539 114.248C88.5659 114.248 88.3285 114.309 88.1419 114.432C87.9552 114.555 87.8165 114.736 87.7259 114.976C87.6352 115.216 87.5899 115.515 87.5899 115.872C87.5899 116.213 87.6352 116.504 87.7259 116.744C87.8165 116.984 87.9525 117.165 88.1339 117.288C88.3152 117.411 88.5419 117.472 88.8139 117.472C89.0485 117.472 89.2539 117.448 89.4299 117.4C89.6112 117.352 89.7765 117.293 89.9259 117.224V117.848C89.7819 117.923 89.6219 117.979 89.4459 118.016C89.2752 118.059 89.0672 118.08 88.8219 118.08ZM94.6736 115.848C94.6736 116.205 94.6256 116.523 94.5296 116.8C94.439 117.072 94.3056 117.304 94.1296 117.496C93.959 117.688 93.7483 117.835 93.4976 117.936C93.2523 118.032 92.9776 118.08 92.6736 118.08C92.391 118.08 92.1296 118.032 91.8896 117.936C91.6496 117.835 91.4416 117.688 91.2656 117.496C91.0896 117.304 90.951 117.072 90.8496 116.8C90.7536 116.523 90.7056 116.205 90.7056 115.848C90.7056 115.373 90.7856 114.973 90.9456 114.648C91.1056 114.317 91.335 114.067 91.6336 113.896C91.9323 113.72 92.287 113.632 92.6976 113.632C93.087 113.632 93.4283 113.72 93.7216 113.896C94.0203 114.067 94.2523 114.317 94.4176 114.648C94.5883 114.973 94.6736 115.373 94.6736 115.848ZM91.4336 115.848C91.4336 116.184 91.4763 116.477 91.5616 116.728C91.6523 116.973 91.791 117.163 91.9776 117.296C92.1643 117.429 92.4016 117.496 92.6896 117.496C92.9776 117.496 93.215 117.429 93.4016 117.296C93.5883 117.163 93.7243 116.973 93.8096 116.728C93.9003 116.477 93.9456 116.184 93.9456 115.848C93.9456 115.507 93.9003 115.216 93.8096 114.976C93.719 114.736 93.5803 114.552 93.3936 114.424C93.2123 114.291 92.975 114.224 92.6816 114.224C92.2443 114.224 91.927 114.368 91.7296 114.656C91.5323 114.944 91.4336 115.341 91.4336 115.848ZM97.8294 113.632C98.3574 113.632 98.7814 113.816 99.1014 114.184C99.4267 114.552 99.5894 115.107 99.5894 115.848C99.5894 116.333 99.5147 116.744 99.3654 117.08C99.2214 117.411 99.016 117.661 98.7494 117.832C98.488 117.997 98.1787 118.08 97.8214 118.08C97.6027 118.08 97.408 118.051 97.2374 117.992C97.0667 117.933 96.92 117.859 96.7974 117.768C96.68 117.672 96.5787 117.568 96.4934 117.456H96.4454C96.456 117.547 96.4667 117.661 96.4774 117.8C96.488 117.939 96.4934 118.059 96.4934 118.16V119.92H95.7894V113.712H96.3654L96.4614 114.296H96.4934C96.5787 114.173 96.68 114.061 96.7974 113.96C96.92 113.859 97.064 113.779 97.2294 113.72C97.4 113.661 97.6 113.632 97.8294 113.632ZM97.7014 114.224C97.4134 114.224 97.1814 114.28 97.0054 114.392C96.8294 114.499 96.7014 114.661 96.6214 114.88C96.5414 115.099 96.4987 115.376 96.4934 115.712V115.848C96.4934 116.2 96.5307 116.499 96.6054 116.744C96.68 116.989 96.8054 117.176 96.9814 117.304C97.1627 117.432 97.408 117.496 97.7174 117.496C97.9787 117.496 98.192 117.424 98.3574 117.28C98.528 117.136 98.6534 116.941 98.7334 116.696C98.8187 116.445 98.8614 116.16 98.8614 115.84C98.8614 115.349 98.7654 114.957 98.5734 114.664C98.3867 114.371 98.096 114.224 97.7014 114.224ZM102.335 113.64C102.858 113.64 103.245 113.755 103.495 113.984C103.746 114.213 103.871 114.579 103.871 115.08V118H103.359L103.223 117.392H103.191C103.069 117.547 102.941 117.677 102.807 117.784C102.679 117.885 102.53 117.96 102.359 118.008C102.194 118.056 101.991 118.08 101.751 118.08C101.495 118.08 101.263 118.035 101.055 117.944C100.853 117.853 100.693 117.715 100.575 117.528C100.458 117.336 100.399 117.096 100.399 116.808C100.399 116.381 100.567 116.053 100.903 115.824C101.239 115.589 101.757 115.461 102.455 115.44L103.183 115.416V115.16C103.183 114.803 103.106 114.555 102.951 114.416C102.797 114.277 102.578 114.208 102.295 114.208C102.071 114.208 101.858 114.243 101.655 114.312C101.453 114.376 101.263 114.451 101.087 114.536L100.871 114.008C101.058 113.907 101.279 113.821 101.535 113.752C101.791 113.677 102.058 113.64 102.335 113.64ZM102.543 115.928C102.01 115.949 101.639 116.035 101.431 116.184C101.229 116.333 101.127 116.544 101.127 116.816C101.127 117.056 101.199 117.232 101.343 117.344C101.493 117.456 101.682 117.512 101.911 117.512C102.274 117.512 102.575 117.413 102.815 117.216C103.055 117.013 103.175 116.704 103.175 116.288V115.904L102.543 115.928Z" fill="white"/>
<path d="M10.7661 130.38H9.72609V132H8.87609V130.38H5.45609V129.63L8.81609 124.82H9.72609V129.59H10.7661V130.38ZM8.87609 127.34C8.87609 127.167 8.87609 127.01 8.87609 126.87C8.88276 126.723 8.88943 126.587 8.89609 126.46C8.90276 126.333 8.90609 126.213 8.90609 126.1C8.91276 125.98 8.91943 125.867 8.92609 125.76H8.88609C8.83276 125.887 8.76609 126.023 8.68609 126.17C8.60609 126.317 8.52943 126.44 8.45609 126.54L6.31609 129.59H8.87609V127.34ZM13.7188 127.62C14.2054 127.62 14.6288 127.703 14.9888 127.87C15.3488 128.037 15.6254 128.277 15.8188 128.59C16.0188 128.897 16.1188 129.273 16.1188 129.72C16.1188 130.213 16.0121 130.64 15.7988 131C15.5854 131.353 15.2788 131.627 14.8788 131.82C14.4854 132.007 14.0088 132.1 13.4488 132.1C13.0821 132.1 12.7354 132.067 12.4088 132C12.0888 131.933 11.8188 131.837 11.5988 131.71V130.88C11.8388 131.027 12.1288 131.143 12.4688 131.23C12.8154 131.31 13.1454 131.35 13.4588 131.35C13.8121 131.35 14.1188 131.297 14.3788 131.19C14.6454 131.077 14.8521 130.907 14.9988 130.68C15.1454 130.447 15.2188 130.157 15.2188 129.81C15.2188 129.343 15.0754 128.987 14.7888 128.74C14.5021 128.487 14.0488 128.36 13.4288 128.36C13.2421 128.36 13.0288 128.377 12.7888 128.41C12.5488 128.443 12.3554 128.477 12.2088 128.51L11.7688 128.23L12.0388 124.86H15.6188V125.66H12.7888L12.6188 127.73C12.7321 127.71 12.8854 127.687 13.0788 127.66C13.2721 127.633 13.4854 127.62 13.7188 127.62ZM23.4655 125.55C23.0855 125.55 22.7422 125.617 22.4355 125.75C22.1289 125.877 21.8689 126.067 21.6555 126.32C21.4422 126.567 21.2789 126.87 21.1655 127.23C21.0522 127.583 20.9955 127.983 20.9955 128.43C20.9955 129.017 21.0855 129.527 21.2655 129.96C21.4522 130.393 21.7255 130.727 22.0855 130.96C22.4522 131.193 22.9089 131.31 23.4555 131.31C23.7689 131.31 24.0655 131.283 24.3455 131.23C24.6255 131.177 24.8989 131.11 25.1655 131.03V131.81C24.8989 131.91 24.6222 131.983 24.3355 132.03C24.0555 132.077 23.7189 132.1 23.3255 132.1C22.5989 132.1 21.9922 131.95 21.5055 131.65C21.0189 131.35 20.6522 130.923 20.4055 130.37C20.1655 129.817 20.0455 129.167 20.0455 128.42C20.0455 127.88 20.1189 127.387 20.2655 126.94C20.4189 126.493 20.6389 126.107 20.9255 125.78C21.2189 125.453 21.5789 125.203 22.0055 125.03C22.4322 124.85 22.9222 124.76 23.4755 124.76C23.8422 124.76 24.1955 124.797 24.5355 124.87C24.8755 124.943 25.1789 125.047 25.4455 125.18L25.0855 125.94C24.8655 125.84 24.6189 125.75 24.3455 125.67C24.0789 125.59 23.7855 125.55 23.4655 125.55Z" fill="white"/>
<path d="M7.93556 150H7.21556V144.92H5.43156V144.288H9.71156V144.92H7.93556V150ZM11.5704 145.632C11.9384 145.632 12.253 145.712 12.5144 145.872C12.781 146.032 12.9837 146.259 13.1224 146.552C13.2664 146.84 13.3384 147.179 13.3384 147.568V147.992H10.4024C10.413 148.477 10.5357 148.848 10.7704 149.104C11.0104 149.355 11.3437 149.48 11.7704 149.48C12.0424 149.48 12.2824 149.456 12.4904 149.408C12.7037 149.355 12.9224 149.28 13.1464 149.184V149.8C12.9277 149.896 12.7117 149.965 12.4984 150.008C12.285 150.056 12.0317 150.08 11.7384 150.08C11.333 150.08 10.973 149.997 10.6584 149.832C10.349 149.667 10.1064 149.421 9.93038 149.096C9.75971 148.765 9.67438 148.363 9.67438 147.888C9.67438 147.419 9.75171 147.016 9.90638 146.68C10.0664 146.344 10.2877 146.085 10.5704 145.904C10.8584 145.723 11.1917 145.632 11.5704 145.632ZM11.5624 146.208C11.2264 146.208 10.9597 146.317 10.7624 146.536C10.5704 146.749 10.4557 147.048 10.4184 147.432H12.6024C12.6024 147.187 12.565 146.973 12.4904 146.792C12.4157 146.611 12.301 146.469 12.1464 146.368C11.997 146.261 11.8024 146.208 11.5624 146.208ZM19.03 145.712V150H18.398V147.264C18.398 147.152 18.4007 147.035 18.406 146.912C18.4167 146.789 18.4273 146.669 18.438 146.552H18.414L17.014 150H16.422L15.062 146.552H15.038C15.0487 146.669 15.054 146.789 15.054 146.912C15.0593 147.035 15.062 147.16 15.062 147.288V150H14.43V145.712H15.366L16.718 149.16L18.094 145.712H19.03ZM24.0228 145.712V150H23.3188V146.312H21.1028V150H20.3988V145.712H24.0228ZM27.0469 145.632C27.4149 145.632 27.7296 145.712 27.9909 145.872C28.2576 146.032 28.4603 146.259 28.5989 146.552C28.7429 146.84 28.8149 147.179 28.8149 147.568V147.992H25.8789C25.8896 148.477 26.0123 148.848 26.2469 149.104C26.4869 149.355 26.8203 149.48 27.2469 149.48C27.5189 149.48 27.7589 149.456 27.9669 149.408C28.1803 149.355 28.3989 149.28 28.6229 149.184V149.8C28.4043 149.896 28.1883 149.965 27.9749 150.008C27.7616 150.056 27.5083 150.08 27.2149 150.08C26.8096 150.08 26.4496 149.997 26.1349 149.832C25.8256 149.667 25.5829 149.421 25.4069 149.096C25.2363 148.765 25.1509 148.363 25.1509 147.888C25.1509 147.419 25.2283 147.016 25.3829 146.68C25.5429 146.344 25.7643 146.085 26.0469 145.904C26.3349 145.723 26.6683 145.632 27.0469 145.632ZM27.0389 146.208C26.7029 146.208 26.4363 146.317 26.2389 146.536C26.0469 146.749 25.9323 147.048 25.8949 147.432H28.0789C28.0789 147.187 28.0416 146.973 27.9669 146.792C27.8923 146.611 27.7776 146.469 27.6229 146.368C27.4736 146.261 27.2789 146.208 27.0389 146.208ZM31.9466 145.632C32.4746 145.632 32.8986 145.816 33.2186 146.184C33.5439 146.552 33.7066 147.107 33.7066 147.848C33.7066 148.333 33.6319 148.744 33.4826 149.08C33.3386 149.411 33.1332 149.661 32.8666 149.832C32.6052 149.997 32.2959 150.08 31.9386 150.08C31.7199 150.08 31.5252 150.051 31.3546 149.992C31.1839 149.933 31.0372 149.859 30.9146 149.768C30.7972 149.672 30.6959 149.568 30.6106 149.456H30.5626C30.5732 149.547 30.5839 149.661 30.5946 149.8C30.6052 149.939 30.6106 150.059 30.6106 150.16V151.92H29.9066V145.712H30.4826L30.5786 146.296H30.6106C30.6959 146.173 30.7972 146.061 30.9146 145.96C31.0372 145.859 31.1812 145.779 31.3466 145.72C31.5172 145.661 31.7172 145.632 31.9466 145.632ZM31.8186 146.224C31.5306 146.224 31.2986 146.28 31.1226 146.392C30.9466 146.499 30.8186 146.661 30.7386 146.88C30.6586 147.099 30.6159 147.376 30.6106 147.712V147.848C30.6106 148.2 30.6479 148.499 30.7226 148.744C30.7972 148.989 30.9226 149.176 31.0986 149.304C31.2799 149.432 31.5252 149.496 31.8346 149.496C32.0959 149.496 32.3092 149.424 32.4746 149.28C32.6452 149.136 32.7706 148.941 32.8506 148.696C32.9359 148.445 32.9786 148.16 32.9786 147.84C32.9786 147.349 32.8826 146.957 32.6906 146.664C32.5039 146.371 32.2132 146.224 31.8186 146.224ZM36.4524 145.64C36.9751 145.64 37.3618 145.755 37.6124 145.984C37.8631 146.213 37.9884 146.579 37.9884 147.08V150H37.4764L37.3404 149.392H37.3084C37.1858 149.547 37.0578 149.677 36.9244 149.784C36.7964 149.885 36.6471 149.96 36.4764 150.008C36.3111 150.056 36.1084 150.08 35.8684 150.08C35.6124 150.08 35.3804 150.035 35.1724 149.944C34.9698 149.853 34.8098 149.715 34.6924 149.528C34.5751 149.336 34.5164 149.096 34.5164 148.808C34.5164 148.381 34.6844 148.053 35.0204 147.824C35.3564 147.589 35.8738 147.461 36.5724 147.44L37.3004 147.416V147.16C37.3004 146.803 37.2231 146.555 37.0684 146.416C36.9138 146.277 36.6951 146.208 36.4124 146.208C36.1884 146.208 35.9751 146.243 35.7724 146.312C35.5698 146.376 35.3804 146.451 35.2044 146.536L34.9884 146.008C35.1751 145.907 35.3964 145.821 35.6524 145.752C35.9084 145.677 36.1751 145.64 36.4524 145.64ZM36.6604 147.928C36.1271 147.949 35.7564 148.035 35.5484 148.184C35.3458 148.333 35.2444 148.544 35.2444 148.816C35.2444 149.056 35.3164 149.232 35.4604 149.344C35.6098 149.456 35.7991 149.512 36.0284 149.512C36.3911 149.512 36.6924 149.413 36.9324 149.216C37.1724 149.013 37.2924 148.704 37.2924 148.288V147.904L36.6604 147.928ZM42.2728 146.304H40.8728V150H40.1768V146.304H38.7928V145.712H42.2728V146.304ZM42.4455 145.712H43.1975L44.1255 148.152C44.1788 148.296 44.2268 148.435 44.2695 148.568C44.3175 148.701 44.3602 148.832 44.3975 148.96C44.4348 149.083 44.4642 149.203 44.4855 149.32H44.5175C44.5495 149.187 44.6002 149.013 44.6695 148.8C44.7388 148.581 44.8108 148.363 44.8855 148.144L45.7575 145.712H46.5175L44.6695 150.592C44.5682 150.859 44.4482 151.091 44.3095 151.288C44.1762 151.491 44.0108 151.645 43.8135 151.752C43.6215 151.864 43.3868 151.92 43.1095 151.92C42.9815 151.92 42.8695 151.912 42.7735 151.896C42.6775 151.885 42.5948 151.872 42.5255 151.856V151.296C42.5842 151.307 42.6535 151.317 42.7335 151.328C42.8188 151.339 42.9068 151.344 42.9975 151.344C43.1628 151.344 43.3042 151.312 43.4215 151.248C43.5442 151.189 43.6482 151.101 43.7335 150.984C43.8188 150.872 43.8908 150.739 43.9495 150.584L44.1735 150.016L42.4455 145.712ZM49.2356 145.632C49.7636 145.632 50.1876 145.816 50.5076 146.184C50.833 146.552 50.9956 147.107 50.9956 147.848C50.9956 148.333 50.921 148.744 50.7716 149.08C50.6276 149.411 50.4223 149.661 50.1556 149.832C49.8943 149.997 49.585 150.08 49.2276 150.08C49.009 150.08 48.8143 150.051 48.6436 149.992C48.473 149.933 48.3263 149.859 48.2036 149.768C48.0863 149.672 47.985 149.568 47.8996 149.456H47.8516C47.8623 149.547 47.873 149.661 47.8836 149.8C47.8943 149.939 47.8996 150.059 47.8996 150.16V151.92H47.1956V145.712H47.7716L47.8676 146.296H47.8996C47.985 146.173 48.0863 146.061 48.2036 145.96C48.3263 145.859 48.4703 145.779 48.6356 145.72C48.8063 145.661 49.0063 145.632 49.2356 145.632ZM49.1076 146.224C48.8196 146.224 48.5876 146.28 48.4116 146.392C48.2356 146.499 48.1076 146.661 48.0276 146.88C47.9476 147.099 47.905 147.376 47.8996 147.712V147.848C47.8996 148.2 47.937 148.499 48.0116 148.744C48.0863 148.989 48.2116 149.176 48.3876 149.304C48.569 149.432 48.8143 149.496 49.1236 149.496C49.385 149.496 49.5983 149.424 49.7636 149.28C49.9343 149.136 50.0596 148.941 50.1396 148.696C50.225 148.445 50.2676 148.16 50.2676 147.84C50.2676 147.349 50.1716 146.957 49.9796 146.664C49.793 146.371 49.5023 146.224 49.1076 146.224ZM53.7415 145.64C54.2642 145.64 54.6508 145.755 54.9015 145.984C55.1522 146.213 55.2775 146.579 55.2775 147.08V150H54.7655L54.6295 149.392H54.5975C54.4748 149.547 54.3468 149.677 54.2135 149.784C54.0855 149.885 53.9362 149.96 53.7655 150.008C53.6002 150.056 53.3975 150.08 53.1575 150.08C52.9015 150.08 52.6695 150.035 52.4615 149.944C52.2588 149.853 52.0988 149.715 51.9815 149.528C51.8642 149.336 51.8055 149.096 51.8055 148.808C51.8055 148.381 51.9735 148.053 52.3095 147.824C52.6455 147.589 53.1628 147.461 53.8615 147.44L54.5895 147.416V147.16C54.5895 146.803 54.5122 146.555 54.3575 146.416C54.2028 146.277 53.9842 146.208 53.7015 146.208C53.4775 146.208 53.2642 146.243 53.0615 146.312C52.8588 146.376 52.6695 146.451 52.4935 146.536L52.2775 146.008C52.4642 145.907 52.6855 145.821 52.9415 145.752C53.1975 145.677 53.4642 145.64 53.7415 145.64ZM53.9495 147.928C53.4162 147.949 53.0455 148.035 52.8375 148.184C52.6348 148.333 52.5335 148.544 52.5335 148.816C52.5335 149.056 52.6055 149.232 52.7495 149.344C52.8988 149.456 53.0882 149.512 53.3175 149.512C53.6802 149.512 53.9815 149.413 54.2215 149.216C54.4615 149.013 54.5815 148.704 54.5815 148.288V147.904L53.9495 147.928ZM61.4132 145.712V146.304H59.5012V150H58.7972V145.712H61.4132ZM65.8821 145.712V150H65.1781V146.312H62.9621V150H62.2581V145.712H65.8821ZM66.5783 145.712H67.3303L68.2583 148.152C68.3116 148.296 68.3596 148.435 68.4023 148.568C68.4503 148.701 68.493 148.832 68.5303 148.96C68.5676 149.083 68.597 149.203 68.6183 149.32H68.6503C68.6823 149.187 68.733 149.013 68.8023 148.8C68.8716 148.581 68.9436 148.363 69.0183 148.144L69.8903 145.712H70.6503L68.8023 150.592C68.701 150.859 68.581 151.091 68.4423 151.288C68.309 151.491 68.1436 151.645 67.9463 151.752C67.7543 151.864 67.5196 151.92 67.2423 151.92C67.1143 151.92 67.0023 151.912 66.9063 151.896C66.8103 151.885 66.7276 151.872 66.6583 151.856V151.296C66.717 151.307 66.7863 151.317 66.8663 151.328C66.9516 151.339 67.0396 151.344 67.1303 151.344C67.2956 151.344 67.437 151.312 67.5543 151.248C67.677 151.189 67.781 151.101 67.8663 150.984C67.9516 150.872 68.0236 150.739 68.0823 150.584L68.3063 150.016L66.5783 145.712Z" fill="white"/>
<path d="M10.7661 162.38H9.72609V164H8.87609V162.38H5.45609V161.63L8.81609 156.82H9.72609V161.59H10.7661V162.38ZM8.87609 159.34C8.87609 159.167 8.87609 159.01 8.87609 158.87C8.88276 158.723 8.88943 158.587 8.89609 158.46C8.90276 158.333 8.90609 158.213 8.90609 158.1C8.91276 157.98 8.91943 157.867 8.92609 157.76H8.88609C8.83276 157.887 8.76609 158.023 8.68609 158.17C8.60609 158.317 8.52943 158.44 8.45609 158.54L6.31609 161.59H8.87609V159.34ZM13.7188 159.62C14.2054 159.62 14.6288 159.703 14.9888 159.87C15.3488 160.037 15.6254 160.277 15.8188 160.59C16.0188 160.897 16.1188 161.273 16.1188 161.72C16.1188 162.213 16.0121 162.64 15.7988 163C15.5854 163.353 15.2788 163.627 14.8788 163.82C14.4854 164.007 14.0088 164.1 13.4488 164.1C13.0821 164.1 12.7354 164.067 12.4088 164C12.0888 163.933 11.8188 163.837 11.5988 163.71V162.88C11.8388 163.027 12.1288 163.143 12.4688 163.23C12.8154 163.31 13.1454 163.35 13.4588 163.35C13.8121 163.35 14.1188 163.297 14.3788 163.19C14.6454 163.077 14.8521 162.907 14.9988 162.68C15.1454 162.447 15.2188 162.157 15.2188 161.81C15.2188 161.343 15.0754 160.987 14.7888 160.74C14.5021 160.487 14.0488 160.36 13.4288 160.36C13.2421 160.36 13.0288 160.377 12.7888 160.41C12.5488 160.443 12.3554 160.477 12.2088 160.51L11.7688 160.23L12.0388 156.86H15.6188V157.66H12.7888L12.6188 159.73C12.7321 159.71 12.8854 159.687 13.0788 159.66C13.2721 159.633 13.4854 159.62 13.7188 159.62ZM23.4655 157.55C23.0855 157.55 22.7422 157.617 22.4355 157.75C22.1289 157.877 21.8689 158.067 21.6555 158.32C21.4422 158.567 21.2789 158.87 21.1655 159.23C21.0522 159.583 20.9955 159.983 20.9955 160.43C20.9955 161.017 21.0855 161.527 21.2655 161.96C21.4522 162.393 21.7255 162.727 22.0855 162.96C22.4522 163.193 22.9089 163.31 23.4555 163.31C23.7689 163.31 24.0655 163.283 24.3455 163.23C24.6255 163.177 24.8989 163.11 25.1655 163.03V163.81C24.8989 163.91 24.6222 163.983 24.3355 164.03C24.0555 164.077 23.7189 164.1 23.3255 164.1C22.5989 164.1 21.9922 163.95 21.5055 163.65C21.0189 163.35 20.6522 162.923 20.4055 162.37C20.1655 161.817 20.0455 161.167 20.0455 160.42C20.0455 159.88 20.1189 159.387 20.2655 158.94C20.4189 158.493 20.6389 158.107 20.9255 157.78C21.2189 157.453 21.5789 157.203 22.0055 157.03C22.4322 156.85 22.9222 156.76 23.4755 156.76C23.8422 156.76 24.1955 156.797 24.5355 156.87C24.8755 156.943 25.1789 157.047 25.4455 157.18L25.0855 157.94C24.8655 157.84 24.6189 157.75 24.3455 157.67C24.0789 157.59 23.7855 157.55 23.4655 157.55Z" fill="white"/>
<path d="M9.79209 186.077C9.79209 186.515 9.65409 186.863 9.37809 187.121C9.10209 187.373 8.73309 187.535 8.27109 187.607V187.643C8.81109 187.715 9.22209 187.883 9.50409 188.147C9.78609 188.411 9.92709 188.756 9.92709 189.182C9.92709 189.56 9.83109 189.893 9.63909 190.181C9.44709 190.463 9.15909 190.685 8.77509 190.847C8.39109 191.009 7.91109 191.09 7.33509 191.09C6.98709 191.09 6.65409 191.063 6.33609 191.009C6.02409 190.961 5.73309 190.871 5.46309 190.739V190.001C5.64909 190.091 5.84709 190.169 6.05709 190.235C6.27309 190.295 6.48909 190.343 6.70509 190.379C6.92109 190.409 7.12809 190.424 7.32609 190.424C7.90209 190.424 8.33709 190.316 8.63109 190.1C8.93109 189.884 9.08109 189.578 9.08109 189.182C9.08109 188.774 8.90709 188.477 8.55909 188.291C8.21109 188.105 7.72509 188.012 7.10109 188.012H6.18309V187.337H7.05609C7.48209 187.337 7.83309 187.289 8.10909 187.193C8.39109 187.097 8.60109 186.962 8.73909 186.788C8.88309 186.608 8.95509 186.398 8.95509 186.158C8.95509 185.834 8.83509 185.585 8.59509 185.411C8.35509 185.237 8.04309 185.15 7.65909 185.15C7.25709 185.15 6.92109 185.201 6.65109 185.303C6.38709 185.405 6.12909 185.537 5.87709 185.699L5.49009 185.15C5.65809 185.024 5.85009 184.913 6.06609 184.817C6.28809 184.715 6.53409 184.634 6.80409 184.574C7.07409 184.514 7.36209 184.484 7.66809 184.484C8.13009 184.484 8.51709 184.553 8.82909 184.691C9.14709 184.829 9.38709 185.018 9.54909 185.258C9.71109 185.492 9.79209 185.765 9.79209 186.077ZM13.0041 186.095C13.5921 186.095 14.0271 186.224 14.3091 186.482C14.5911 186.74 14.7321 187.151 14.7321 187.715V191H14.1561L14.0031 190.316H13.9671C13.8291 190.49 13.6851 190.637 13.5351 190.757C13.3911 190.871 13.2231 190.955 13.0311 191.009C12.8451 191.063 12.6171 191.09 12.3471 191.09C12.0591 191.09 11.7981 191.039 11.5641 190.937C11.3361 190.835 11.1561 190.679 11.0241 190.469C10.8921 190.253 10.8261 189.983 10.8261 189.659C10.8261 189.179 11.0151 188.81 11.3931 188.552C11.7711 188.288 12.3531 188.144 13.1391 188.12L13.9581 188.093V187.805C13.9581 187.403 13.8711 187.124 13.6971 186.968C13.5231 186.812 13.2771 186.734 12.9591 186.734C12.7071 186.734 12.4671 186.773 12.2391 186.851C12.0111 186.923 11.7981 187.007 11.6001 187.103L11.3571 186.509C11.5671 186.395 11.8161 186.299 12.1041 186.221C12.3921 186.137 12.6921 186.095 13.0041 186.095ZM13.2381 188.669C12.6381 188.693 12.2211 188.789 11.9871 188.957C11.7591 189.125 11.6451 189.362 11.6451 189.668C11.6451 189.938 11.7261 190.136 11.8881 190.262C12.0561 190.388 12.2691 190.451 12.5271 190.451C12.9351 190.451 13.2741 190.34 13.5441 190.118C13.8141 189.89 13.9491 189.542 13.9491 189.074V188.642L13.2381 188.669ZM18.517 186.086C19.111 186.086 19.588 186.293 19.948 186.707C20.314 187.121 20.497 187.745 20.497 188.579C20.497 189.125 20.413 189.587 20.245 189.965C20.083 190.337 19.852 190.619 19.552 190.811C19.258 190.997 18.91 191.09 18.508 191.09C18.262 191.09 18.043 191.057 17.851 190.991C17.659 190.925 17.494 190.841 17.356 190.739C17.224 190.631 17.11 190.514 17.014 190.388H16.96C16.972 190.49 16.984 190.619 16.996 190.775C17.008 190.931 17.014 191.066 17.014 191.18V193.16H16.222V186.176H16.87L16.978 186.833H17.014C17.11 186.695 17.224 186.569 17.356 186.455C17.494 186.341 17.656 186.251 17.842 186.185C18.034 186.119 18.259 186.086 18.517 186.086ZM18.373 186.752C18.049 186.752 17.788 186.815 17.59 186.941C17.392 187.061 17.248 187.244 17.158 187.49C17.068 187.736 17.02 188.048 17.014 188.426V188.579C17.014 188.975 17.056 189.311 17.14 189.587C17.224 189.863 17.365 190.073 17.563 190.217C17.767 190.361 18.043 190.433 18.391 190.433C18.685 190.433 18.925 190.352 19.111 190.19C19.303 190.028 19.444 189.809 19.534 189.533C19.63 189.251 19.678 188.93 19.678 188.57C19.678 188.018 19.57 187.577 19.354 187.247C19.144 186.917 18.817 186.752 18.373 186.752ZM22.0561 191H21.1381L22.5151 188.975C22.3291 188.927 22.1491 188.852 21.9751 188.75C21.8011 188.642 21.6601 188.495 21.5521 188.309C21.4441 188.117 21.3901 187.88 21.3901 187.598C21.3901 187.136 21.5461 186.785 21.8581 186.545C22.1701 186.299 22.5841 186.176 23.1001 186.176H25.2601V191H24.4681V189.083H23.2981L22.0561 191ZM22.1551 187.607C22.1551 187.883 22.2571 188.09 22.4611 188.228C22.6711 188.36 22.9621 188.426 23.3341 188.426H24.4681V186.833H23.1811C22.8151 186.833 22.5511 186.905 22.3891 187.049C22.2331 187.193 22.1551 187.379 22.1551 187.607ZM30.3685 186.176V190.334H31.0705V192.674H30.3055V191H26.9485V192.674H26.1925V190.334H26.5795C26.8555 189.95 27.0835 189.533 27.2635 189.083C27.4495 188.627 27.5875 188.153 27.6775 187.661C27.7735 187.163 27.8245 186.668 27.8305 186.176H30.3685ZM28.5325 186.797C28.5085 187.205 28.4455 187.628 28.3435 188.066C28.2415 188.498 28.1095 188.912 27.9475 189.308C27.7915 189.704 27.6085 190.046 27.3985 190.334H29.6035V186.797H28.5325ZM34.2337 188.102C34.2337 187.4 34.3027 186.803 34.4407 186.311C34.5847 185.813 34.8037 185.417 35.0977 185.123C35.3977 184.823 35.7817 184.622 36.2497 184.52C36.6397 184.436 37.0207 184.361 37.3927 184.295C37.7647 184.229 38.1127 184.169 38.4367 184.115L38.5717 184.808C38.4157 184.832 38.2417 184.862 38.0497 184.898C37.8577 184.928 37.6627 184.961 37.4647 184.997C37.2667 185.027 37.0747 185.06 36.8887 185.096C36.7087 185.126 36.5497 185.156 36.4117 185.186C36.2137 185.228 36.0367 185.3 35.8807 185.402C35.7247 185.498 35.5897 185.63 35.4757 185.798C35.3677 185.966 35.2807 186.173 35.2147 186.419C35.1487 186.665 35.1097 186.956 35.0977 187.292H35.1517C35.2357 187.178 35.3497 187.061 35.4937 186.941C35.6437 186.821 35.8207 186.719 36.0247 186.635C36.2347 186.551 36.4717 186.509 36.7357 186.509C37.1557 186.509 37.5037 186.602 37.7797 186.788C38.0617 186.968 38.2717 187.22 38.4097 187.544C38.5537 187.868 38.6257 188.246 38.6257 188.678C38.6257 189.212 38.5327 189.659 38.3467 190.019C38.1607 190.379 37.9027 190.649 37.5727 190.829C37.2427 191.003 36.8587 191.09 36.4207 191.09C36.0907 191.09 35.7907 191.027 35.5207 190.901C35.2507 190.769 35.0197 190.577 34.8277 190.325C34.6357 190.073 34.4887 189.761 34.3867 189.389C34.2847 189.017 34.2337 188.588 34.2337 188.102ZM36.4837 190.433C36.7477 190.433 36.9757 190.379 37.1677 190.271C37.3657 190.163 37.5187 189.986 37.6267 189.74C37.7347 189.494 37.7887 189.167 37.7887 188.759C37.7887 188.267 37.6957 187.88 37.5097 187.598C37.3297 187.31 37.0297 187.166 36.6097 187.166C36.3457 187.166 36.1057 187.226 35.8897 187.346C35.6737 187.46 35.4937 187.592 35.3497 187.742C35.2057 187.892 35.1037 188.018 35.0437 188.12C35.0437 188.414 35.0647 188.699 35.1067 188.975C35.1487 189.251 35.2207 189.5 35.3227 189.722C35.4307 189.938 35.5777 190.112 35.7637 190.244C35.9557 190.37 36.1957 190.433 36.4837 190.433ZM41.7004 186.095C42.2884 186.095 42.7234 186.224 43.0054 186.482C43.2874 186.74 43.4284 187.151 43.4284 187.715V191H42.8524L42.6994 190.316H42.6634C42.5254 190.49 42.3814 190.637 42.2314 190.757C42.0874 190.871 41.9194 190.955 41.7274 191.009C41.5414 191.063 41.3134 191.09 41.0434 191.09C40.7554 191.09 40.4944 191.039 40.2604 190.937C40.0324 190.835 39.8524 190.679 39.7204 190.469C39.5884 190.253 39.5224 189.983 39.5224 189.659C39.5224 189.179 39.7114 188.81 40.0894 188.552C40.4674 188.288 41.0494 188.144 41.8354 188.12L42.6544 188.093V187.805C42.6544 187.403 42.5674 187.124 42.3934 186.968C42.2194 186.812 41.9734 186.734 41.6554 186.734C41.4034 186.734 41.1634 186.773 40.9354 186.851C40.7074 186.923 40.4944 187.007 40.2964 187.103L40.0534 186.509C40.2634 186.395 40.5124 186.299 40.8004 186.221C41.0884 186.137 41.3884 186.095 41.7004 186.095ZM41.9344 188.669C41.3344 188.693 40.9174 188.789 40.6834 188.957C40.4554 189.125 40.3414 189.362 40.3414 189.668C40.3414 189.938 40.4224 190.136 40.5844 190.262C40.7524 190.388 40.9654 190.451 41.2234 190.451C41.6314 190.451 41.9704 190.34 42.2404 190.118C42.5104 189.89 42.6454 189.542 42.6454 189.074V188.642L41.9344 188.669ZM48.2483 186.842H46.6733V191H45.8903V186.842H44.3333V186.176H48.2483V186.842ZM51.0256 186.095C51.6136 186.095 52.0486 186.224 52.3306 186.482C52.6126 186.74 52.7536 187.151 52.7536 187.715V191H52.1776L52.0246 190.316H51.9886C51.8506 190.49 51.7066 190.637 51.5566 190.757C51.4126 190.871 51.2446 190.955 51.0526 191.009C50.8666 191.063 50.6386 191.09 50.3686 191.09C50.0806 191.09 49.8196 191.039 49.5856 190.937C49.3576 190.835 49.1776 190.679 49.0456 190.469C48.9136 190.253 48.8476 189.983 48.8476 189.659C48.8476 189.179 49.0366 188.81 49.4146 188.552C49.7926 188.288 50.3746 188.144 51.1606 188.12L51.9796 188.093V187.805C51.9796 187.403 51.8926 187.124 51.7186 186.968C51.5446 186.812 51.2986 186.734 50.9806 186.734C50.7286 186.734 50.4886 186.773 50.2606 186.851C50.0326 186.923 49.8196 187.007 49.6216 187.103L49.3786 186.509C49.5886 186.395 49.8376 186.299 50.1256 186.221C50.4136 186.137 50.7136 186.095 51.0256 186.095ZM51.2596 188.669C50.6596 188.693 50.2426 188.789 50.0086 188.957C49.7806 189.125 49.6666 189.362 49.6666 189.668C49.6666 189.938 49.7476 190.136 49.9096 190.262C50.0776 190.388 50.2906 190.451 50.5486 190.451C50.9566 190.451 51.2956 190.34 51.5656 190.118C51.8356 189.89 51.9706 189.542 51.9706 189.074V188.642L51.2596 188.669ZM56.5385 186.086C57.1325 186.086 57.6095 186.293 57.9695 186.707C58.3355 187.121 58.5185 187.745 58.5185 188.579C58.5185 189.125 58.4345 189.587 58.2665 189.965C58.1045 190.337 57.8735 190.619 57.5735 190.811C57.2795 190.997 56.9315 191.09 56.5295 191.09C56.2835 191.09 56.0645 191.057 55.8725 190.991C55.6805 190.925 55.5155 190.841 55.3775 190.739C55.2455 190.631 55.1315 190.514 55.0355 190.388H54.9815C54.9935 190.49 55.0055 190.619 55.0175 190.775C55.0295 190.931 55.0355 191.066 55.0355 191.18V193.16H54.2435V186.176H54.8915L54.9995 186.833H55.0355C55.1315 186.695 55.2455 186.569 55.3775 186.455C55.5155 186.341 55.6775 186.251 55.8635 186.185C56.0555 186.119 56.2805 186.086 56.5385 186.086ZM56.3945 186.752C56.0705 186.752 55.8095 186.815 55.6115 186.941C55.4135 187.061 55.2695 187.244 55.1795 187.49C55.0895 187.736 55.0415 188.048 55.0355 188.426V188.579C55.0355 188.975 55.0775 189.311 55.1615 189.587C55.2455 189.863 55.3865 190.073 55.5845 190.217C55.7885 190.361 56.0645 190.433 56.4125 190.433C56.7065 190.433 56.9465 190.352 57.1325 190.19C57.3245 190.028 57.4655 189.809 57.5555 189.533C57.6515 189.251 57.6995 188.93 57.6995 188.57C57.6995 188.018 57.5915 187.577 57.3755 187.247C57.1655 186.917 56.8385 186.752 56.3945 186.752ZM61.6436 186.086C62.0576 186.086 62.4116 186.176 62.7056 186.356C63.0056 186.536 63.2336 186.791 63.3896 187.121C63.5516 187.445 63.6326 187.826 63.6326 188.264V188.741H60.3296C60.3416 189.287 60.4796 189.704 60.7436 189.992C61.0136 190.274 61.3886 190.415 61.8686 190.415C62.1746 190.415 62.4446 190.388 62.6786 190.334C62.9186 190.274 63.1646 190.19 63.4166 190.082V190.775C63.1706 190.883 62.9276 190.961 62.6876 191.009C62.4476 191.063 62.1626 191.09 61.8326 191.09C61.3766 191.09 60.9716 190.997 60.6176 190.811C60.2696 190.625 59.9966 190.349 59.7986 189.983C59.6066 189.611 59.5106 189.158 59.5106 188.624C59.5106 188.096 59.5976 187.643 59.7716 187.265C59.9516 186.887 60.2006 186.596 60.5186 186.392C60.8426 186.188 61.2176 186.086 61.6436 186.086ZM61.6346 186.734C61.2566 186.734 60.9566 186.857 60.7346 187.103C60.5186 187.343 60.3896 187.679 60.3476 188.111H62.8046C62.8046 187.835 62.7626 187.595 62.6786 187.391C62.5946 187.187 62.4656 187.028 62.2916 186.914C62.1236 186.794 61.9046 186.734 61.6346 186.734ZM65.6077 189.119C65.6077 189.173 65.6047 189.251 65.5987 189.353C65.5987 189.449 65.5957 189.554 65.5897 189.668C65.5837 189.776 65.5777 189.881 65.5717 189.983C65.5657 190.079 65.5597 190.157 65.5537 190.217L68.1367 186.176H69.1087V191H68.3707V188.156C68.3707 188.06 68.3707 187.934 68.3707 187.778C68.3767 187.622 68.3827 187.469 68.3887 187.319C68.3947 187.163 68.4007 187.046 68.4067 186.968L65.8417 191H64.8607V186.176H65.6077V189.119Z" fill="white"/>
<path d="M8.22967 182H7.45567V177.509C7.45567 177.335 7.45567 177.188 7.45567 177.068C7.46167 176.948 7.46767 176.837 7.47367 176.735C7.47967 176.627 7.48567 176.516 7.49167 176.402C7.39567 176.498 7.30867 176.579 7.23067 176.645C7.15267 176.711 7.05367 176.795 6.93367 176.897L6.24967 177.455L5.83567 176.924L7.57267 175.574H8.22967V182ZM14.8921 178.778C14.8921 179.3 14.8531 179.765 14.7751 180.173C14.6971 180.581 14.5711 180.929 14.3971 181.217C14.2291 181.499 14.0071 181.715 13.7311 181.865C13.4611 182.015 13.1341 182.09 12.7501 182.09C12.2701 182.09 11.8711 181.958 11.5531 181.694C11.2411 181.43 11.0071 181.052 10.8511 180.56C10.7011 180.062 10.6261 179.468 10.6261 178.778C10.6261 178.082 10.6951 177.488 10.8331 176.996C10.9771 176.504 11.2051 176.129 11.5171 175.871C11.8291 175.607 12.2401 175.475 12.7501 175.475C13.2301 175.475 13.6291 175.607 13.9471 175.871C14.2651 176.129 14.5021 176.504 14.6581 176.996C14.8141 177.488 14.8921 178.082 14.8921 178.778ZM11.4181 178.778C11.4181 179.366 11.4601 179.855 11.5441 180.245C11.6341 180.635 11.7751 180.929 11.9671 181.127C12.1651 181.319 12.4261 181.415 12.7501 181.415C13.0741 181.415 13.3321 181.319 13.5241 181.127C13.7221 180.935 13.8661 180.644 13.9561 180.254C14.0461 179.858 14.0911 179.366 14.0911 178.778C14.0911 178.19 14.0461 177.704 13.9561 177.32C13.8661 176.93 13.7221 176.639 13.5241 176.447C13.3321 176.249 13.0741 176.15 12.7501 176.15C12.4261 176.15 12.1651 176.249 11.9671 176.447C11.7751 176.639 11.6341 176.93 11.5441 177.32C11.4601 177.704 11.4181 178.19 11.4181 178.778ZM20.0424 178.778C20.0424 179.3 20.0034 179.765 19.9254 180.173C19.8474 180.581 19.7214 180.929 19.5474 181.217C19.3794 181.499 19.1574 181.715 18.8814 181.865C18.6114 182.015 18.2844 182.09 17.9004 182.09C17.4204 182.09 17.0214 181.958 16.7034 181.694C16.3914 181.43 16.1574 181.052 16.0014 180.56C15.8514 180.062 15.7764 179.468 15.7764 178.778C15.7764 178.082 15.8454 177.488 15.9834 176.996C16.1274 176.504 16.3554 176.129 16.6674 175.871C16.9794 175.607 17.3904 175.475 17.9004 175.475C18.3804 175.475 18.7794 175.607 19.0974 175.871C19.4154 176.129 19.6524 176.504 19.8084 176.996C19.9644 177.488 20.0424 178.082 20.0424 178.778ZM16.5684 178.778C16.5684 179.366 16.6104 179.855 16.6944 180.245C16.7844 180.635 16.9254 180.929 17.1174 181.127C17.3154 181.319 17.5764 181.415 17.9004 181.415C18.2244 181.415 18.4824 181.319 18.6744 181.127C18.8724 180.935 19.0164 180.644 19.1064 180.254C19.1964 179.858 19.2414 179.366 19.2414 178.778C19.2414 178.19 19.1964 177.704 19.1064 177.32C19.0164 176.93 18.8724 176.639 18.6744 176.447C18.4824 176.249 18.2244 176.15 17.9004 176.15C17.5764 176.15 17.3154 176.249 17.1174 176.447C16.9254 176.639 16.7844 176.93 16.6944 177.32C16.6104 177.704 16.5684 178.19 16.5684 178.778ZM22.2408 175.484C22.6848 175.484 23.0208 175.661 23.2488 176.015C23.4768 176.363 23.5908 176.855 23.5908 177.491C23.5908 178.127 23.4798 178.625 23.2578 178.985C23.0418 179.339 22.7028 179.516 22.2408 179.516C21.9588 179.516 21.7188 179.435 21.5208 179.273C21.3228 179.111 21.1728 178.88 21.0708 178.58C20.9748 178.274 20.9268 177.911 20.9268 177.491C20.9268 176.855 21.0318 176.363 21.2418 176.015C21.4518 175.661 21.7848 175.484 22.2408 175.484ZM22.2408 176.042C22.0128 176.042 21.8448 176.165 21.7368 176.411C21.6348 176.651 21.5838 177.011 21.5838 177.491C21.5838 177.971 21.6348 178.334 21.7368 178.58C21.8448 178.826 22.0128 178.949 22.2408 178.949C22.4748 178.949 22.6488 178.829 22.7628 178.589C22.8768 178.343 22.9338 177.977 22.9338 177.491C22.9338 177.011 22.8768 176.651 22.7628 176.411C22.6488 176.165 22.4748 176.042 22.2408 176.042ZM26.3538 175.574L22.7898 182H22.0968L25.6608 175.574H26.3538ZM26.1738 178.058C26.4678 178.058 26.7138 178.139 26.9118 178.301C27.1098 178.457 27.2598 178.685 27.3618 178.985C27.4698 179.279 27.5238 179.639 27.5238 180.065C27.5238 180.701 27.4128 181.199 27.1908 181.559C26.9748 181.913 26.6358 182.09 26.1738 182.09C25.8918 182.09 25.6518 182.009 25.4538 181.847C25.2558 181.685 25.1058 181.454 25.0038 181.154C24.9078 180.848 24.8598 180.485 24.8598 180.065C24.8598 179.429 24.9648 178.937 25.1748 178.589C25.3848 178.235 25.7178 178.058 26.1738 178.058ZM26.1738 178.625C25.9458 178.625 25.7778 178.745 25.6698 178.985C25.5678 179.225 25.5168 179.585 25.5168 180.065C25.5168 180.551 25.5678 180.917 25.6698 181.163C25.7778 181.403 25.9458 181.523 26.1738 181.523C26.4078 181.523 26.5818 181.403 26.6958 181.163C26.8098 180.923 26.8668 180.557 26.8668 180.065C26.8668 179.585 26.8098 179.225 26.6958 178.985C26.5818 178.745 26.4078 178.625 26.1738 178.625Z" fill="white"/>
<rect x="109.5" y="22.5" width="8" height="13" rx="1.5" stroke="white"/>
<rect x="112.6" y="33.6641" width="1.8" height="0.466667" fill="white"/>
<path d="M117.696 9.77269L114.969 12.4999L117.696 15.2271C118.101 15.6328 118.101 16.2901 117.696 16.6959C117.493 16.8986 117.227 17 116.962 17C116.696 17 116.43 16.8987 116.228 16.6959L113.5 13.9685L110.773 16.6959C110.57 16.8986 110.304 17 110.038 17C109.773 17 109.507 16.8987 109.304 16.6959C108.899 16.2903 108.899 15.633 109.304 15.227L112.031 12.4999L109.304 9.77269C108.899 9.36707 108.899 8.70961 109.304 8.30398C109.71 7.89867 110.367 7.89867 110.773 8.30398L113.5 11.0312L116.227 8.30398C116.633 7.89867 117.29 7.89867 117.696 8.30398C118.101 8.70961 118.101 9.36707 117.696 9.77269Z" fill="white"/>
<path d="M103.506 11.5227L102.801 11.4331C102.743 11.2543 102.672 11.0818 102.588 10.9179L103.023 10.3572C103.2 10.1304 103.179 9.81013 102.978 9.61513L102.387 9.0245C102.19 8.82125 101.87 8.801 101.643 8.97688L101.083 9.41225C100.919 9.32863 100.746 9.257 100.567 9.19887L100.477 8.495C100.444 8.21262 100.204 8 99.9202 8H99.0802C98.7963 8 98.5566 8.21263 98.5229 8.49388L98.4333 9.19887C98.254 9.257 98.0815 9.32825 97.9176 9.41225L97.3573 8.97688C97.1308 8.801 96.8106 8.82125 96.6152 9.02262L96.0245 9.61287C95.8213 9.81012 95.8007 10.1304 95.9769 10.3576L96.4123 10.9179C96.3283 11.0818 96.2571 11.2543 96.1989 11.4331L95.495 11.5227C95.2126 11.5565 95 11.7961 95 12.08V12.92C95 13.2039 95.2126 13.4435 95.4939 13.4773L96.1989 13.5669C96.2571 13.7457 96.3287 13.9182 96.4123 14.0821L95.9769 14.6428C95.8007 14.8696 95.8213 15.1899 96.0227 15.3849L96.6133 15.9755C96.8106 16.1784 97.1305 16.1986 97.3577 16.0227L97.918 15.5874C98.0819 15.6714 98.2544 15.743 98.4333 15.8007L98.5229 16.5042C98.5566 16.7874 98.7963 17 99.0802 17H99.9202C100.204 17 100.444 16.7874 100.477 16.5061L100.567 15.8011C100.746 15.743 100.918 15.6714 101.082 15.5877L101.643 16.0231C101.87 16.1994 102.19 16.1788 102.385 15.9774L102.976 15.3868C103.179 15.1895 103.2 14.8696 103.023 14.6424L102.588 14.0821C102.672 13.9182 102.744 13.7457 102.801 13.5669L103.505 13.4773C103.787 13.4435 104 13.2039 104 12.92V12.08C104 11.7961 103.788 11.5565 103.506 11.5227V11.5227ZM99.5002 14.375C98.4663 14.375 97.6251 13.5339 97.6251 12.5C97.6251 11.4661 98.4663 10.625 99.5002 10.625C100.534 10.625 101.375 11.4661 101.375 12.5C101.375 13.5339 100.534 14.375 99.5002 14.375Z" fill="white"/>
<path d="M97.3888 50.8909H117.611C118.03 50.8909 118.37 50.6357 118.37 50.322V40.5689C118.37 40.2552 118.03 40 117.611 40H97.3888C96.9706 40 96.6304 40.2552 96.6304 40.5689V50.322C96.6304 50.6357 96.9708 50.8909 97.3888 50.8909ZM97.2804 40.5689C97.2804 40.5241 97.329 40.4877 97.3888 40.4877H117.611C117.671 40.4877 117.72 40.5241 117.72 40.5689V50.322C117.72 50.3669 117.671 50.4033 117.611 50.4033H97.3888C97.329 50.4033 97.2804 50.3669 97.2804 50.322V40.5689ZM120 51.3262V51.7815C120 51.9021 119.87 52 119.709 52H95.2912C95.1304 52 95 51.9021 95 51.7815V51.3262H105.267C105.318 51.4532 105.473 51.5463 105.659 51.5463H109.341C109.527 51.5463 109.682 51.4533 109.733 51.3262H120Z" fill="white"/>
</svg>
