<svg width="50" height="50" viewBox="0 0 50 50" fill="none" xmlns="http://www.w3.org/2000/svg">
<path d="M1.15617 49.0001L7.04022 8.59375H42.9598L48.8438 49.0001H1.15617Z" stroke="white" stroke-width="2"/>
<path d="M42.6685 8.59375L36.7845 49.0001H1.15617L7.04022 8.59375H42.6685Z" stroke="white" stroke-width="2"/>
<path d="M47.51 48.9992H40.1375L43.8237 45.467L47.51 48.9992Z" stroke="white" stroke-width="2"/>
<path d="M42.669 8.59375L41.5849 16.0612H5.95645L7.04059 8.59375H42.669Z" stroke="white" stroke-width="2"/>
<path d="M38.8158 7.59369H38.8449M38.8158 7.59369L32.9645 12.5934C30.6942 12.0015 28.9844 9.43441 28.9844 6.36095C28.9844 2.8501 31.2155 0 33.9645 0C36.7135 0 38.9445 2.8501 38.9346 6.35108C38.9346 6.77515 38.9047 7.18935 38.8449 7.59369M38.8158 7.59369L37.8589 7.45562C37.8593 7.45312 37.8597 7.45063 37.8601 7.44813L38.8449 7.59369M38.8158 7.59369L33.9645 11.7357C31.7633 11.7357 29.9804 9.31953 29.9804 6.36095C29.9804 3.40237 31.7633 0.986193 33.9645 0.986193C36.165 0.986193 37.9474 3.39098 37.9485 6.34828C37.9485 6.34921 37.9485 6.35015 37.9485 6.35108C37.9485 6.43238 37.9471 6.51322 37.9443 6.59369H38.8449V7.59369" stroke="white" stroke-width="2"/>
<path d="M29.8509 7.59369H29.8801M29.8509 7.59369L23.9996 12.5934C21.7293 12.0015 20.0195 9.43441 20.0195 6.36095C20.0195 2.8501 22.2506 0 24.9996 0C27.7486 0 29.9797 2.8501 29.9697 6.35108C29.9697 6.77515 29.9398 7.18935 29.8801 7.59369M29.8509 7.59369L28.894 7.45562C28.8944 7.45312 28.8949 7.45063 28.8953 7.44813L29.8801 7.59369M29.8509 7.59369L24.9996 11.7357C22.7984 11.7357 21.0155 9.31953 21.0155 6.36095C21.0155 3.40237 22.7984 0.986193 24.9996 0.986193C27.2001 0.986193 28.9825 3.39098 28.9837 6.34828C28.9837 6.34921 28.9837 6.35015 28.9837 6.35108C28.9837 6.43238 28.9823 6.51322 28.9795 6.59369H29.8801V7.59369" stroke="white" stroke-width="2"/>
<mask id="path-7-inside-1_3239_881" fill="white">
<path d="M16.0348 0.986193C18.236 0.986193 20.0188 3.3925 20.0188 6.35108C20.0188 6.74556 19.989 7.13018 19.9292 7.51479L19.9192 7.59369H20.9152C20.975 7.18935 21.0148 6.77515 21.0148 6.35108C21.0148 2.8501 18.7838 0 16.0348 0C13.2858 0 11.0547 2.8501 11.0547 6.36095C11.0547 9.87179 13.2858 12.7219 16.0348 12.7219V11.7357C13.8336 11.7357 12.0507 9.31953 12.0507 6.36095C12.0507 3.40237 13.8336 0.986193 16.0348 0.986193Z"/>
</mask>
<path d="M19.9292 7.51479L17.9529 7.20772L17.9485 7.23594L17.9449 7.26428L19.9292 7.51479ZM19.9192 7.59369L17.935 7.34317L17.6508 9.59369H19.9192V7.59369ZM20.9152 7.59369V9.59369H22.6414L22.8938 7.88611L20.9152 7.59369ZM16.0348 12.7219V14.7219H18.0348V12.7219H16.0348ZM16.0348 11.7357H18.0348V9.7357H16.0348V11.7357ZM16.0348 2.98619C16.355 2.98619 16.8052 3.15685 17.2462 3.75103C17.6869 4.34493 18.0188 5.25836 18.0188 6.35108H22.0188C22.0188 4.48523 21.4593 2.71622 20.4583 1.36732C19.4575 0.0186951 17.9157 -1.01381 16.0348 -1.01381V2.98619ZM18.0188 6.35108C18.0188 6.64283 17.9969 6.92479 17.9529 7.20772L21.9055 7.82186C21.981 7.33557 22.0188 6.84829 22.0188 6.35108H18.0188ZM17.9449 7.26428L17.935 7.34317L21.9035 7.8442L21.9134 7.76531L17.9449 7.26428ZM19.9192 9.59369H20.9152V5.59369H19.9192V9.59369ZM22.8938 7.88611C22.9634 7.415 23.0148 6.89931 23.0148 6.35108H19.0148C19.0148 6.65099 18.9866 6.96369 18.9367 7.30127L22.8938 7.88611ZM23.0148 6.35108C23.0148 2.22689 20.3149 -2 16.0348 -2V2C17.2527 2 19.0148 3.4733 19.0148 6.35108H23.0148ZM16.0348 -2C11.753 -2 9.05469 2.22908 9.05469 6.36095H13.0547C13.0547 3.47112 14.8186 2 16.0348 2V-2ZM9.05469 6.36095C9.05469 10.4928 11.753 14.7219 16.0348 14.7219V10.7219C14.8186 10.7219 13.0547 9.25077 13.0547 6.36095H9.05469ZM18.0348 12.7219V11.7357H14.0348V12.7219H18.0348ZM16.0348 9.7357C15.7177 9.7357 15.2674 9.5658 14.8248 8.96789C14.3828 8.37076 14.0507 7.45393 14.0507 6.36095H10.0507C10.0507 8.22655 10.61 9.99709 11.6098 11.3477C12.6089 12.6975 14.1506 13.7357 16.0348 13.7357V9.7357ZM14.0507 6.36095C14.0507 5.26797 14.3828 4.35113 14.8248 3.75401C15.2674 3.15609 15.7177 2.98619 16.0348 2.98619V-1.01381C14.1506 -1.01381 12.6089 0.0243795 11.6098 1.3742C10.61 2.72481 10.0507 4.49535 10.0507 6.36095H14.0507Z" fill="white" mask="url(#path-7-inside-1_3239_881)"/>
</svg>
