<svg width="237" height="143" viewBox="0 0 237 143" fill="none" xmlns="http://www.w3.org/2000/svg">
<g opacity="0.9">
<path d="M8.26747 135.467H228.733C233.292 135.467 237 132.293 237 128.391V7.07664C237 3.17439 233.292 0 228.733 0H8.26747C3.70858 0 0 3.17439 0 7.07664V128.391C0 132.293 3.71096 135.467 8.26747 135.467ZM7.08642 7.07664C7.08642 6.51863 7.61543 6.06571 8.26747 6.06571H228.733C229.385 6.06571 229.914 6.51863 229.914 7.07664V128.391C229.914 128.949 229.385 129.401 228.733 129.401H8.26747C7.61543 129.401 7.08642 128.949 7.08642 128.391V7.07664Z" fill="white"/>
<path d="M179.362 141.405C179.362 139.811 178.36 139.927 178.36 139.927H128.259C128.259 141.405 127.257 141.405 126.255 141.405H109.22C108.218 141.405 107.216 141.405 107.216 139.869H58.1489C58.1489 139.869 57.1152 139.869 57.1152 141.405C57.1152 142.941 58.1489 142.941 58.1489 142.941L178.36 143C178.36 143 179.362 143 179.362 141.405Z" fill="white"/>
</g>
</svg>
