<svg width="237" height="143" viewBox="0 0 237 143" fill="none" xmlns="http://www.w3.org/2000/svg">
<g opacity="0.9">
<path d="M8.26747 135.467H228.733C233.292 135.467 237 132.293 237 128.391V7.07664C237 3.17439 233.292 0 228.733 0H8.26747C3.70858 0 0 3.17439 0 7.07664V128.391C0 132.293 3.71096 135.467 8.26747 135.467ZM7.08642 7.07664C7.08642 6.51863 7.61543 6.06571 8.26747 6.06571H228.733C229.385 6.06571 229.914 6.51863 229.914 7.07664V128.391C229.914 128.949 229.385 129.402 228.733 129.402H8.26747C7.61543 129.402 7.08642 128.949 7.08642 128.391V7.07664Z" fill="white"/>
<path d="M179.362 141.405C179.362 139.811 178.36 139.927 178.36 139.927H128.259C128.259 141.405 127.257 141.405 126.255 141.405H109.22C108.218 141.405 107.216 141.405 107.216 139.869H58.1489C58.1489 139.869 57.1152 139.869 57.1152 141.405C57.1152 142.941 58.1489 142.941 58.1489 142.941L178.36 143C178.36 143 179.362 143 179.362 141.405Z" fill="white"/>
<path d="M19.9153 21.125C19.8096 21.0407 19.67 20.9959 19.5266 21.0003C19.3832 21.0047 19.2475 21.058 19.149 21.1486C19.0505 21.2392 18.997 21.3599 19.0001 21.4845C19.0033 21.6091 19.0627 21.7276 19.1657 21.8144L23.659 25.5L19.1657 29.1856C19.0627 29.2724 19.0033 29.3909 19.0001 29.5155C18.997 29.6401 19.0505 29.7608 19.149 29.8514C19.2475 29.942 19.3832 29.9953 19.5266 29.9997C19.67 30.0041 19.8096 29.9593 19.9153 29.875L24.829 25.8447C24.883 25.8004 24.926 25.7469 24.9554 25.6877C24.9848 25.6284 25 25.5645 25 25.5C25 25.4355 24.9848 25.3716 24.9554 25.3123C24.926 25.2531 24.883 25.1996 24.829 25.1553L19.9153 21.125Z" fill="white"/>
</g>
</svg>
