<svg width="237" height="143" viewBox="0 0 237 143" fill="none" xmlns="http://www.w3.org/2000/svg">
<g opacity="0.9">
<path d="M8.26747 135.467H228.733C233.292 135.467 237 132.293 237 128.391V7.07664C237 3.17439 233.292 0 228.733 0H8.26747C3.70858 0 0 3.17439 0 7.07664V128.391C0 132.293 3.71096 135.467 8.26747 135.467ZM7.08642 7.07664C7.08642 6.51863 7.61543 6.06571 8.26747 6.06571H228.733C229.385 6.06571 229.914 6.51863 229.914 7.07664V128.391C229.914 128.949 229.385 129.402 228.733 129.402H8.26747C7.61543 129.402 7.08642 128.949 7.08642 128.391V7.07664Z" fill="white"/>
<path d="M179.362 141.405C179.362 139.811 178.36 139.927 178.36 139.927H128.259C128.259 141.405 127.257 141.405 126.255 141.405H109.22C108.218 141.405 107.216 141.405 107.216 139.869H58.1489C58.1489 139.869 57.1152 139.869 57.1152 141.405C57.1152 142.941 58.1489 142.941 58.1489 142.941L178.36 143C178.36 143 179.362 143 179.362 141.405Z" fill="white"/>
<path d="M113.879 24.0439L114.052 55.4195L121.883 55.3757L121.71 24L113.879 24.0439ZM96.3351 37.7982C88.1531 42.5311 81.7781 49.7983 78.1961 58.4745C74.6137 67.1506 74.0249 76.7516 76.5204 85.7908C79.0301 94.8276 84.4831 102.794 92.0361 108.456C99.5891 114.119 108.82 117.161 118.299 117.112C127.778 117.053 136.973 113.907 144.461 108.161C151.95 102.414 157.314 94.3883 159.723 85.3253C162.12 76.2605 161.428 66.6678 157.753 58.0325C154.079 49.3971 147.627 42.2007 139.397 37.5573L135.518 44.2754C142.26 48.0691 147.546 53.9584 150.553 61.0282C153.56 68.0979 154.121 75.9522 152.147 83.3703C150.187 90.7907 145.801 97.3631 139.672 102.065C133.543 106.768 126.014 109.336 118.257 109.371C110.499 109.423 102.943 106.939 96.7621 102.305C90.5821 97.6721 86.1241 91.1491 84.0821 83.7511C82.0271 76.3555 82.5011 68.4955 85.4301 61.3925C88.3591 54.2896 93.5791 48.3415 100.279 44.4726L96.3271 37.7982H96.3351Z" fill="white"/>
</g>
</svg>
