<svg width="64" height="34" viewBox="0 0 64 34" fill="none" xmlns="http://www.w3.org/2000/svg">
<path d="M1 2.9245C1 1.82478 2.07205 0.999997 3.50144 1H60.4986C61.9279 1 63 1.82478 63 2.9245V28.6303C63 29.73 61.9279 30.5548 60.4986 30.5548H32.268H32.1174H31.9107H3.50144C2.07205 30.5548 1 29.73 1 28.6303V2.9245Z" stroke="#C72C47" stroke-linecap="round"/>
<path d="M51.1384 32.7869C51.1384 32.7869 51.1384 32.5742 50.7007 32.5742C50.2628 32.5743 35.7065 32.5742 35.7065 32.5742C35.63 32.6544 35.3968 32.7131 35.118 32.7131H29.5831C29.304 32.7131 29.0708 32.6544 28.9946 32.5742C28.9946 32.5742 14.203 32.5742 14.0002 32.5742C13.7973 32.5742 13.5625 32.5742 13.5625 32.7869C13.5625 32.9995 13.7585 32.9995 14.0002 32.9995C14.0002 32.9995 50.2628 32.9995 50.7007 32.9995C51.1384 32.9995 51.1384 32.7869 51.1384 32.7869Z" stroke="#C72C47" stroke-linecap="round"/>
</svg>
