<svg width="237" height="143" viewBox="0 0 237 143" fill="none" xmlns="http://www.w3.org/2000/svg">
<g opacity="0.9">
<path d="M8.26747 135.467H228.733C233.292 135.467 237 132.293 237 128.391V7.07664C237 3.17439 233.292 0 228.733 0H8.26747C3.70858 0 0 3.17439 0 7.07664V128.391C0 132.293 3.71096 135.467 8.26747 135.467ZM7.08642 7.07664C7.08642 6.51863 7.61543 6.06571 8.26747 6.06571H228.733C229.385 6.06571 229.914 6.51863 229.914 7.07664V128.391C229.914 128.949 229.385 129.402 228.733 129.402H8.26747C7.61543 129.402 7.08642 128.949 7.08642 128.391V7.07664Z" fill="white"/>
<path d="M179.362 141.405C179.362 139.811 178.36 139.927 178.36 139.927H128.259C128.259 141.405 127.257 141.405 126.255 141.405H109.22C108.218 141.405 107.216 141.405 107.216 139.869H58.1489C58.1489 139.869 57.1152 139.869 57.1152 141.405C57.1152 142.941 58.1489 142.941 58.1489 142.941L178.36 143C178.36 143 179.362 143 179.362 141.405Z" fill="white"/>
<path d="M156.201 80.3569C153.851 78.0253 152.578 74.7813 152.578 71.4359C152.578 68.0905 153.851 64.9478 156.201 62.5148C156.592 62.1093 156.984 61.8052 157.473 61.3996C158.159 60.8928 158.355 59.9804 158.159 59.1694C157.375 56.2295 156.201 53.391 154.83 50.7552C154.438 50.0456 153.655 49.6401 152.872 49.7414C152.186 49.8428 151.697 49.8428 151.207 49.8428C144.452 49.8428 138.969 44.1657 138.969 37.2722C138.969 36.7653 138.969 36.1571 139.067 35.5488C139.165 34.7378 138.774 33.9268 138.088 33.5213C135.543 32.102 132.801 30.8855 129.962 30.0745C129.179 29.8718 128.298 30.1759 127.808 30.7842C127.417 31.291 127.025 31.7979 126.731 32.102C124.381 34.4337 121.346 35.7515 118.116 35.7515C114.885 35.7515 111.752 34.4337 109.5 32.102C109.108 31.6965 108.815 31.291 108.423 30.7842C107.933 30.0745 107.052 29.8718 106.269 30.0745C103.43 30.9869 100.688 32.102 98.1426 33.5213C97.4576 33.9268 97.0656 34.7378 97.1636 35.5488C97.2616 36.2584 97.2616 36.7653 97.2616 37.2722C97.2616 44.2671 91.7786 49.8428 85.0236 49.8428C84.5336 49.8428 83.9466 49.8428 83.3586 49.7414C82.5756 49.6401 81.7926 50.0456 81.4006 50.7552C80.0306 53.391 78.8552 56.2295 78.072 59.1694C77.8762 59.9804 78.072 60.8928 78.7573 61.3996C79.3446 61.8052 79.7366 62.2107 80.0296 62.5148C84.8276 67.3808 84.8276 75.3895 80.0296 80.3569C79.6386 80.7624 79.2466 81.0666 78.7573 81.4721C78.072 81.9789 77.8762 82.8913 78.072 83.7023C78.9531 86.6422 80.0306 89.4807 81.4006 92.1165C81.7926 92.8261 82.5756 93.2316 83.3586 93.1303C84.0446 93.0289 84.5336 93.0289 85.0236 93.0289C91.7786 93.0289 97.2616 98.7059 97.2616 105.599C97.2616 106.106 97.2616 106.715 97.1636 107.323C97.0656 108.134 97.4576 108.945 98.1426 109.351C100.688 110.77 103.43 111.986 106.269 112.797C107.052 113 107.933 112.797 108.423 112.088C108.815 111.581 109.206 111.074 109.5 110.77C111.85 108.438 114.885 107.12 118.116 107.12C121.346 107.12 124.479 108.438 126.731 110.77C127.123 111.175 127.417 111.581 127.808 112.088C128.2 112.595 128.787 112.899 129.375 112.899C129.57 112.899 129.766 112.899 129.962 112.797C132.801 111.885 135.543 110.77 138.088 109.351C138.774 108.945 139.165 108.134 139.067 107.323C138.969 106.613 138.969 106.106 138.969 105.599C138.969 98.6046 144.452 93.0289 151.207 93.0289C151.697 93.0289 152.284 93.0289 152.872 93.1303C153.655 93.2316 154.438 92.8261 154.83 92.1165C156.201 89.4807 157.375 86.6422 158.159 83.7023C158.355 82.8913 158.159 81.9789 157.473 81.4721C156.984 81.0666 156.494 80.7624 156.201 80.3569ZM151.991 88.9739H151.11C142.2 88.9739 134.955 96.4757 134.955 105.599V106.512C133.389 107.323 131.724 108.033 129.962 108.641L129.375 108.033C126.34 104.89 122.325 103.166 118.018 103.166C113.71 103.166 109.696 104.89 106.661 108.033L106.073 108.641C104.409 108.033 102.744 107.323 101.08 106.512V105.599C101.08 96.3743 93.8346 88.9739 84.9256 88.9739H84.0446C83.2606 87.3519 82.5756 85.6285 81.9886 83.8037L82.5756 83.1954C88.8416 76.7074 88.8416 66.1643 82.5756 59.5749L81.9886 58.9666C82.5756 57.2432 83.2606 55.5199 84.0446 53.7965H84.9256C93.8346 53.7965 101.08 46.2947 101.08 37.1708V36.2584C102.647 35.4474 104.311 34.7378 106.073 34.1296L106.661 34.7378C109.696 37.8805 113.71 39.6038 118.018 39.6038C122.325 39.6038 126.34 37.8805 129.375 34.7378L129.962 34.1296C131.626 34.7378 133.291 35.4474 134.955 36.2584V37.1708C134.955 46.396 142.2 53.7965 151.11 53.7965H151.991C152.774 55.4185 153.459 57.1419 154.047 58.9666L153.459 59.5749C150.424 62.7175 148.76 66.8739 148.76 71.3345C148.76 75.795 150.424 79.9514 153.459 83.0941L154.047 83.7023C153.459 85.6285 152.774 87.3519 151.991 88.9739ZM118.116 47.3084C105.29 47.3084 94.8136 58.1556 94.8136 71.4359C94.8136 84.7161 105.29 95.5633 118.116 95.5633C130.941 95.5633 141.417 84.7161 141.417 71.4359C141.417 58.1556 130.941 47.3084 118.116 47.3084ZM118.116 91.5083C107.444 91.5083 98.7296 82.4858 98.7296 71.4359C98.7296 60.3859 107.444 51.3635 118.116 51.3635C128.787 51.3635 137.501 60.3859 137.501 71.4359C137.501 82.4858 128.787 91.5083 118.116 91.5083Z" fill="white"/>
<path d="M133.567 66.1449C134.962 65.2901 134.683 64.1503 133.009 64.4352L117.946 66.1449C112.102 66.9978 114.032 76.6438 120.69 74.1406C120.719 74.1296 120.749 74.1149 120.776 74.0983L133.567 66.1449Z" fill="white"/>
<path d="M131.562 61.3964C116.356 42.9127 95.9702 65.5375 106.074 79.6176C106.152 79.7266 106.308 79.7412 106.402 79.646C106.467 79.5803 106.484 79.4772 106.448 79.3911C100.217 64.4349 114.495 53.1784 125.594 62.5857C125.697 62.6727 125.831 62.7186 125.963 62.7069L131.237 62.2409C131.635 62.2057 131.821 61.7113 131.562 61.3964Z" fill="white"/>
</g>
</svg>
