<svg width="237" height="143" viewBox="0 0 237 143" fill="none" xmlns="http://www.w3.org/2000/svg">
<g opacity="0.9">
<path d="M8.26747 135.467H228.733C233.292 135.467 237 132.293 237 128.391V7.07664C237 3.17439 233.292 0 228.733 0H8.26747C3.70858 0 0 3.17439 0 7.07664V128.391C0 132.293 3.71096 135.467 8.26747 135.467ZM7.08642 7.07664C7.08642 6.51863 7.61543 6.06571 8.26747 6.06571H228.733C229.385 6.06571 229.914 6.51863 229.914 7.07664V128.391C229.914 128.949 229.385 129.402 228.733 129.402H8.26747C7.61543 129.402 7.08642 128.949 7.08642 128.391V7.07664Z" fill="white"/>
<path d="M179.362 141.405C179.362 139.811 178.36 139.927 178.36 139.927H128.259C128.259 141.405 127.257 141.405 126.255 141.405H109.22C108.218 141.405 107.216 141.405 107.216 139.869H58.1489C58.1489 139.869 57.1152 139.869 57.1152 141.405C57.1152 142.941 58.1489 142.941 58.1489 142.941L178.36 143C178.36 143 179.362 143 179.362 141.405Z" fill="white"/>
<path d="M150.534 41.007L148.596 39.1316L155.418 32.5355C155.805 32.161 156.076 31.6893 156.2 31.1737C156.325 30.6582 156.298 30.1191 156.123 29.6174C155.948 29.1158 155.632 28.6714 155.21 28.3344C154.788 27.9975 154.277 27.7814 153.735 27.7105L133.171 25.0242C132.723 24.9675 132.268 25.0107 131.84 25.1506C131.412 25.2905 131.023 25.5233 130.703 25.8313C130.384 26.1405 130.143 26.5166 129.999 26.9306C129.855 27.3446 129.811 27.7852 129.871 28.2182L132.638 48.1242C132.711 48.6488 132.934 49.1433 133.281 49.552C133.629 49.9606 134.087 50.2672 134.605 50.4371C135.123 50.6069 135.68 50.633 136.213 50.5125C136.747 50.392 137.235 50.1296 137.622 49.7552L144.445 43.1439L146.382 45.0212C152.874 51.313 156.937 59.5718 157.891 68.4158C158.845 77.26 156.632 86.1529 151.623 93.6069C146.615 101.061 139.113 106.624 130.374 109.366C121.635 112.107 112.189 111.86 103.615 108.666C95.0413 105.474 87.8606 99.5271 83.2741 91.8226C78.6876 84.118 76.9739 75.1226 78.4189 66.3411C79.8638 57.5597 84.3802 49.5249 91.2129 43.5809C98.0446 37.6369 106.778 34.1442 115.952 33.6872C116.731 33.6478 117.462 33.3106 117.984 32.7498C118.506 32.189 118.776 31.4506 118.735 30.6969C118.694 29.9434 118.346 29.2363 117.767 28.7312C117.187 28.2262 116.424 27.9647 115.645 28.0041C105.118 28.5264 95.0963 32.5325 87.2555 39.3519C79.4147 46.1715 74.2315 55.3907 72.573 65.467C70.9145 75.5433 72.8815 85.8652 78.1446 94.7056C83.4081 103.546 91.6479 110.368 101.486 114.032C111.324 117.695 122.164 117.976 132.19 114.828C142.217 111.681 150.823 105.295 156.567 96.7403C162.313 88.1856 164.848 77.9804 163.749 67.8326C162.651 57.6848 157.986 48.2101 150.534 40.9938V41.007Z" fill="white"/>
</g>
</svg>
