<svg width="237" height="143" viewBox="0 0 237 143" fill="none" xmlns="http://www.w3.org/2000/svg">
<g opacity="0.9">
<path d="M8.26747 135.467H228.733C233.292 135.467 237 132.293 237 128.391V7.07664C237 3.17439 233.292 0 228.733 0H8.26747C3.70858 0 0 3.17439 0 7.07664V128.391C0 132.293 3.71096 135.467 8.26747 135.467ZM7.08642 7.07664C7.08642 6.51863 7.61543 6.06571 8.26747 6.06571H228.733C229.385 6.06571 229.914 6.51863 229.914 7.07664V128.391C229.914 128.949 229.385 129.402 228.733 129.402H8.26747C7.61543 129.402 7.08642 128.949 7.08642 128.391V7.07664Z" fill="white"/>
<path d="M179.362 141.405C179.362 139.811 178.36 139.927 178.36 139.927H128.259C128.259 141.405 127.257 141.405 126.255 141.405H109.22C108.218 141.405 107.216 141.405 107.216 139.869H58.1489C58.1489 139.869 57.1152 139.869 57.1152 141.405C57.1152 142.941 58.1489 142.941 58.1489 142.941L178.36 143C178.36 143 179.362 143 179.362 141.405Z" fill="white"/>
</g>
<path d="M161.355 52H73.6452C58.7286 52 57.5197 90 73.6452 90H161.355C180.432 90 178.642 52 161.355 52Z" fill="white"/>
<path d="M90.6809 69.1253C89.2469 69.1253 89.2469 65.6719 90.6809 65.6719C92.1149 65.6719 105.018 65.6719 105.018 65.6719C105.735 66.4194 105.735 68.1461 105.018 69.1253C104.302 70.1045 94.9819 81.2122 94.9819 81.2122H105.018C106.026 82.5264 106.065 83.3857 105.018 84.6656C105.018 84.6656 91.1849 84.6141 90.6809 84.6656C90.1759 84.717 89.7509 81.9744 90.6809 81.2122C91.6099 80.45 100.717 69.1253 100.717 69.1253C100.717 69.1253 92.1149 69.1253 90.6809 69.1253Z" fill="white"/>
<path d="M90.6809 69.1253C89.2469 69.1253 89.2469 65.6719 90.6809 65.6719C92.1149 65.6719 105.018 65.6719 105.018 65.6719C105.735 66.4194 105.735 68.1461 105.018 69.1253C104.302 70.1045 94.9819 81.2122 94.9819 81.2122H105.018C106.026 82.5264 106.065 83.3857 105.018 84.6656C105.018 84.6656 91.1849 84.6141 90.6809 84.6656C90.1759 84.717 89.7509 81.9744 90.6809 81.2122C91.6099 80.45 100.717 69.1253 100.717 69.1253C100.717 69.1253 92.1149 69.1253 90.6809 69.1253Z" fill="black"/>
<path d="M110.755 84.7635C109.852 83.3493 109.888 82.5953 110.755 81.3101L122.225 60.4534C122.225 60.4534 112.188 60.4534 110.755 60.4534C109.321 60.4534 109.321 56.9915 110.755 57C112.188 57.0086 126.526 57 126.526 57C127.307 58.6794 127.18 59.2433 126.526 60.4534L115.056 81.3101L126.526 81.275C127.221 82.6082 127.314 83.5448 126.526 84.7635H110.755Z" fill="white"/>
<path d="M110.755 84.7635C109.852 83.3493 109.888 82.5953 110.755 81.3101L122.225 60.4534C122.225 60.4534 112.188 60.4534 110.755 60.4534C109.321 60.4534 109.321 56.9915 110.755 57C112.188 57.0086 126.526 57 126.526 57C127.307 58.6794 127.18 59.2433 126.526 60.4534L115.056 81.3101L126.526 81.275C127.221 82.6082 127.314 83.5448 126.526 84.7635H110.755Z" fill="black"/>
<path d="M131.542 69.1682C130.465 67.7848 130.402 67.0703 131.542 65.7148H145.88C146.648 67.2105 146.522 67.943 145.88 69.1682L135.843 81.255H145.88C146.888 82.5693 146.927 83.4285 145.88 84.7084C145.88 84.7084 132.046 84.657 131.542 84.7084C131.038 84.7599 130.613 82.0172 131.542 81.255C132.472 80.4929 141.578 69.1682 141.578 69.1682H131.542Z" fill="white"/>
<path d="M131.542 69.1682C130.465 67.7848 130.402 67.0703 131.542 65.7148H145.88C146.648 67.2105 146.522 67.943 145.88 69.1682L135.843 81.255H145.88C146.888 82.5693 146.927 83.4285 145.88 84.7084C145.88 84.7084 132.046 84.657 131.542 84.7084C131.038 84.7599 130.613 82.0172 131.542 81.255C132.472 80.4929 141.578 69.1682 141.578 69.1682H131.542Z" fill="black"/>
<path d="M77 82.6483V81.6328L74.9993 81.6561C74.9993 81.6561 74 81.6561 74 82.6483V83.6406C74 84.6328 74.9993 84.6328 74.9993 84.6328H75.9996C77 84.6328 77 83.6406 77 83.6406V82.6483Z" fill="white"/>
<path d="M77 82.6483V81.6328L74.9993 81.6561C74.9993 81.6561 74 81.6561 74 82.6483V83.6406C74 84.6328 74.9993 84.6328 74.9993 84.6328H75.9996C77 84.6328 77 83.6406 77 83.6406V82.6483Z" fill="black"/>
<path d="M81 82.6483V81.6328L79.0003 81.6561C79.0003 81.6561 78 81.6561 78 82.6483V83.6406C78 84.6328 79.0003 84.6328 79.0003 84.6328H79.9996C81 84.6328 81 83.6406 81 83.6406V82.6483Z" fill="white"/>
<path d="M81 82.6483V81.6328L79.0003 81.6561C79.0003 81.6561 78 81.6561 78 82.6483V83.6406C78 84.6328 79.0003 84.6328 79.0003 84.6328H79.9996C81 84.6328 81 83.6406 81 83.6406V82.6483Z" fill="black"/>
<path d="M85 82.6483V81.6328L83 81.6561C83 81.6561 82 81.6561 82 82.6483V83.6405C82 84.6328 83 84.6328 83 84.6328H84C85 84.6328 85 83.6405 85 83.6405V82.6483Z" fill="white"/>
<path d="M85 82.6483V81.6328L83 81.6561C83 81.6561 82 81.6561 82 82.6483V83.6405C82 84.6328 83 84.6328 83 84.6328H84C85 84.6328 85 83.6405 85 83.6405V82.6483Z" fill="black"/>
<path d="M154 82.6483C154 82.377 154 81.6328 153.25 81.6328C152.5 81.6328 151 81.6328 151 81.6328C151 81.6328 151 81.6561 151 82.6483V83.6405C151 84.6328 152 84.6328 152 84.6328H153C154 84.6328 154 83.6405 154 83.6405C154 83.6405 154 82.9196 154 82.6483Z" fill="white"/>
<path d="M154 82.6483C154 82.377 154 81.6328 153.25 81.6328C152.5 81.6328 151 81.6328 151 81.6328C151 81.6328 151 81.6561 151 82.6483V83.6405C151 84.6328 152 84.6328 152 84.6328H153C154 84.6328 154 83.6405 154 83.6405C154 83.6405 154 82.9196 154 82.6483Z" fill="black"/>
<path d="M158 82.6483C158 82.377 158 81.6328 157.25 81.6328C156.499 81.6328 155 81.6328 155 81.6328C155 81.6328 155 81.6561 155 82.6483V83.6405C155 84.6328 155.999 84.6328 155.999 84.6328H157C158 84.6328 158 83.6405 158 83.6405C158 83.6405 158 82.9196 158 82.6483Z" fill="white"/>
<path d="M158 82.6483C158 82.377 158 81.6328 157.25 81.6328C156.499 81.6328 155 81.6328 155 81.6328C155 81.6328 155 81.6561 155 82.6483V83.6405C155 84.6328 155.999 84.6328 155.999 84.6328H157C158 84.6328 158 83.6405 158 83.6405C158 83.6405 158 82.9196 158 82.6483Z" fill="black"/>
<path d="M162 82.6483C162 82.377 162 81.6328 161.25 81.6328C160.5 81.6328 159 81.6328 159 81.6328C159 81.6328 159 81.656 159 82.6483V83.6406C159 84.6328 160 84.6328 160 84.6328H161C162 84.6328 162 83.6406 162 83.6406C162 83.6406 162 82.9196 162 82.6483Z" fill="white"/>
<path d="M162 82.6483C162 82.377 162 81.6328 161.25 81.6328C160.5 81.6328 159 81.6328 159 81.6328C159 81.6328 159 81.656 159 82.6483V83.6406C159 84.6328 160 84.6328 160 84.6328H161C162 84.6328 162 83.6406 162 83.6406C162 83.6406 162 82.9196 162 82.6483Z" fill="black"/>
</svg>
