<svg width="130" height="80" viewBox="0 0 130 80" fill="none" xmlns="http://www.w3.org/2000/svg">
<path d="M121.841 68.5242H11.0294C10.2388 68.5242 9.59766 67.8894 9.59766 67.106V13.0745C9.59766 12.2913 10.2388 11.6562 11.0294 11.6562H121.841C126.341 11.6562 130.002 15.2826 130.002 19.7401V60.4403C130.002 64.8975 126.341 68.5242 121.841 68.5242ZM12.4611 65.6877H121.841C124.762 65.6877 127.138 63.3338 127.138 60.4403V19.7401C127.138 16.8467 124.762 14.4927 121.841 14.4927H12.4611V65.6877Z" fill="white"/>
<path d="M42.6401 60.2346C42.1287 60.2346 41.6124 60.2164 41.1053 60.1801C36.2399 59.8196 31.6575 57.7345 28.1981 54.3084C27.8095 53.9232 27.4656 53.5553 27.1463 53.1834C23.9682 49.5278 22.2148 44.8446 22.2148 40.0019C22.2148 39.4936 22.2335 38.9816 22.2704 38.4807C22.6341 33.6588 24.7393 29.119 28.1987 25.6957C28.5855 25.3122 28.9572 24.9713 29.3343 24.6539C33.0271 21.506 37.755 19.7695 42.6401 19.7695C43.1544 19.7695 43.671 19.7877 44.1758 19.8243C49.0403 20.1842 53.623 22.2693 57.0824 25.696C57.4684 26.0786 57.8126 26.4465 58.1342 26.8209C61.3123 30.4794 63.0654 35.1626 63.0654 40.0019C63.0654 40.5085 63.0468 41.0202 63.0101 41.5225C62.6464 46.3419 60.5412 50.8814 57.0824 54.3078C56.6961 54.6904 56.3247 55.0308 55.9467 55.3494C52.2528 58.4978 47.5249 60.2346 42.6401 60.2346ZM42.6401 22.606C38.4399 22.606 34.3755 24.0988 31.1953 26.8096C30.8712 27.0825 30.5553 27.3721 30.2232 27.7017C27.2483 30.6456 25.4386 34.5477 25.1262 38.6892C25.0944 39.1198 25.0783 39.562 25.0783 40.0019C25.0783 44.1652 26.5854 48.1916 29.3217 51.3389C29.5966 51.6591 29.8899 51.972 30.2234 52.3027C33.1978 55.2487 37.1371 57.0416 41.3152 57.351C41.7504 57.3822 42.1974 57.3981 42.6401 57.3981C46.84 57.3981 50.9047 55.905 54.0852 53.1942C54.4105 52.9199 54.7266 52.6301 55.0579 52.3019C58.0319 49.3557 59.8422 45.4536 60.1543 41.3146C60.1858 40.8835 60.2019 40.4407 60.2019 40.0019C60.2019 35.8414 58.6948 31.8154 55.9582 28.6649C55.6816 28.3427 55.3889 28.0298 55.0576 27.7017C52.0827 24.7549 48.1434 22.962 43.9653 22.6528C43.5321 22.6219 43.0854 22.606 42.6401 22.606Z" fill="white"/>
<path d="M42.6408 44.8461C41.8986 44.8461 41.187 44.6864 40.5259 44.3713C40.0153 44.1262 39.5632 43.8071 39.1774 43.4205C38.6632 42.9151 38.2726 42.3027 38.026 41.6097C37.8428 41.0946 37.75 40.5532 37.75 40.0009C37.75 39.2651 37.9115 38.56 38.2299 37.9048C38.4756 37.4019 38.7975 36.9534 39.1883 36.5705C39.6992 36.0605 40.3174 35.6739 41.017 35.4297C41.5378 35.2482 42.0842 35.1562 42.6411 35.1562C43.3836 35.1562 44.0952 35.3159 44.7567 35.6314C45.2649 35.8747 45.7174 36.1938 46.1042 36.581C46.6188 37.0867 47.0094 37.6991 47.2559 38.3921C47.4395 38.9086 47.532 39.4498 47.532 40.0012C47.532 40.7364 47.3708 41.4412 47.0529 42.0965C46.8061 42.6014 46.4836 43.0495 46.0933 43.4319C45.5839 43.9407 44.9657 44.3276 44.2664 44.5724C43.7436 44.7542 43.1975 44.8461 42.6408 44.8461ZM42.6408 37.993C42.4083 37.993 42.1821 38.0307 41.9679 38.1053C41.6793 38.2057 41.4247 38.3651 41.2114 38.5779C41.0439 38.7424 40.9113 38.9276 40.8085 39.1381C40.6793 39.4038 40.6132 39.6948 40.6132 40.0012C40.6132 40.2315 40.6513 40.4559 40.7266 40.6677C40.8283 40.9539 40.9889 41.2058 41.2037 41.4171C41.37 41.5834 41.5573 41.715 41.7706 41.8174C42.2377 42.04 42.8138 42.0712 43.3138 41.8973C43.6015 41.7967 43.8567 41.6372 44.0694 41.4248C44.2375 41.26 44.3701 41.0745 44.4732 40.8638C44.6018 40.5985 44.6679 40.3072 44.6679 40.0012C44.6679 39.7709 44.6298 39.5465 44.5545 39.3341C44.4529 39.0487 44.2922 38.7963 44.0775 38.5849C43.9114 38.419 43.7241 38.2874 43.5116 38.1859C43.2439 38.0582 42.9498 37.993 42.6408 37.993Z" fill="white"/>
<path d="M42.6408 58.8164H39.7773V58.7653C39.7868 55.3562 40.61 53.5525 41.3365 51.9612C42.0364 50.4281 42.6408 49.1041 42.6408 46.2733C42.6408 45.2403 42.5578 44.3408 42.3868 43.5234L45.1911 42.9484C45.4018 43.9576 45.5043 45.0451 45.5043 46.2736C45.5043 49.7156 44.6762 51.5295 43.9457 53.1301C43.2496 54.655 42.6486 55.972 42.6408 58.7696V58.8164ZM40.0906 37.0557C39.8799 36.0462 39.7773 34.9587 39.7773 33.7303C39.7773 30.2882 40.6055 28.4743 41.3359 26.8737C42.0321 25.3491 42.6331 24.0322 42.6408 21.2346V21.1875H45.5043V21.2386C45.4949 24.6474 44.6716 26.4511 43.9452 28.0423C43.2453 29.5754 42.6408 30.8998 42.6408 33.7303C42.6408 34.7633 42.7239 35.6627 42.8948 36.4808L40.0906 37.0557Z" fill="white"/>
<path d="M29.2 53.3149L27.1953 51.2894L27.2354 51.2499C29.6642 48.8563 31.5344 48.1574 33.1843 47.541C34.7732 46.9473 36.1454 46.4348 38.1639 44.4354C38.9035 43.7024 39.488 43.0081 39.9507 42.3123L42.342 43.8729C41.7713 44.7306 41.0669 45.5708 40.189 46.441C37.7338 48.8727 35.8536 49.5753 34.1951 50.1951C32.6142 50.7856 31.2492 51.2959 29.2476 53.2683L29.2 53.3149ZM45.3312 37.6892L42.9399 36.1288C43.5109 35.27 44.2153 34.4298 45.0933 33.5601C47.5487 31.1265 49.4294 30.4242 51.0888 29.8047C52.6692 29.2144 54.0339 28.7047 56.0346 26.7334L56.077 26.6914L58.0921 28.7067L58.0566 28.7416C55.618 31.1446 53.7484 31.843 52.0985 32.4588C50.5095 33.0521 49.1371 33.5644 47.118 35.5655C46.379 36.2979 45.7945 36.9928 45.3312 37.6892Z" fill="white"/>
<path d="M36.3108 42.8372C32.8359 42.8372 31.0045 42.0167 29.3889 41.2934C27.8497 40.6035 26.5202 40.0082 23.6963 40.0005H23.6484V37.1641H23.7003C27.1416 37.1731 28.9622 37.9889 30.5689 38.7085C32.1169 39.4017 33.4536 40.0008 36.3111 40.0008C37.3525 40.0008 38.2611 39.9185 39.0884 39.7492L39.6674 42.5269C38.6468 42.736 37.549 42.8372 36.3108 42.8372ZM61.6352 42.8372H61.5836C58.1423 42.8279 56.3214 42.0121 54.7147 41.2928C53.167 40.5996 51.8303 40.0005 48.9728 40.0005C47.9297 40.0005 47.0217 40.0828 46.1961 40.2521L45.616 37.4744C46.6345 37.2656 47.7327 37.1641 48.9728 37.1641C52.4477 37.1641 54.2789 37.9844 55.8945 38.7079C57.4339 39.3975 58.7634 39.9929 61.5874 40.0008H61.6349V42.8372H61.6352Z" fill="white"/>
<path d="M38.7357 39.7032C37.8692 39.1382 37.0208 38.4404 36.1423 37.5702C33.6874 35.1382 32.9781 33.2758 32.3525 31.6327C31.7563 30.067 31.2414 28.7148 29.2504 26.7324L29.2227 26.7049L31.2277 24.6797L31.2827 24.7339C33.7043 27.1448 34.4093 28.997 35.0318 30.6314C35.6311 32.2056 36.1489 33.5649 38.1673 35.5643C38.907 36.2969 39.608 36.8758 40.3104 37.3339L38.7357 39.7032ZM54.0408 55.2997L55.0631 54.3067L54.0308 55.2895L54.001 55.26C51.5842 52.8552 50.8787 51.0025 50.2561 49.3678C49.6568 47.7936 49.1391 46.4338 47.1209 44.4347C46.3818 43.7026 45.6808 43.1237 44.9776 42.6645L46.5531 40.296C47.4201 40.8619 48.2683 41.5597 49.146 42.4293C51.6005 44.8607 52.3098 46.7237 52.9355 48.3671C53.5317 49.9331 54.0465 51.2853 56.0378 53.2665L56.0853 53.3139L54.0408 55.2997Z" fill="white"/>
<path d="M96.9526 60.2346C96.4412 60.2346 95.9249 60.2164 95.4178 60.1801C90.5521 59.8196 85.9694 57.7345 82.5106 54.3081C82.1232 53.9246 81.779 53.5567 81.4586 53.1829C78.2807 49.5287 76.5273 44.8451 76.5273 40.0022C76.5273 39.4953 76.5457 38.9839 76.5823 38.4816C76.9463 33.6585 79.0518 29.119 82.5106 25.696C82.896 25.3139 83.2677 24.9733 83.646 24.6545C87.3393 21.5063 92.0672 19.7695 96.9526 19.7695C97.4669 19.7695 97.9835 19.788 98.4883 19.8243C103.352 20.1845 107.935 22.2696 111.395 25.696C111.781 26.0786 112.125 26.4465 112.446 26.8212C115.625 30.4794 117.378 35.1629 117.378 40.0022C117.378 40.5088 117.36 41.0202 117.323 41.5225C116.959 46.3419 114.854 50.8814 111.395 54.3078C111.006 54.6927 110.635 55.0334 110.26 55.3499C106.566 58.4981 101.838 60.2346 96.9526 60.2346ZM96.9526 22.606C92.7524 22.606 88.688 24.0991 85.5072 26.8096C85.1819 27.0839 84.8661 27.3738 84.5351 27.7017C81.5605 30.6456 79.7508 34.5474 79.4381 38.6895C79.4066 39.1206 79.3905 39.5631 79.3905 40.0022C79.3905 44.1661 80.8976 48.1919 83.6337 51.3389C83.91 51.6608 84.2026 51.9734 84.5345 52.3024C87.5091 55.2487 91.4484 57.0416 95.6271 57.351C96.0623 57.3822 96.5091 57.3981 96.952 57.3981C101.152 57.3981 105.217 55.9053 108.397 53.1948C108.72 52.9228 109.036 52.6326 109.37 52.3022C112.344 49.3559 114.154 45.4538 114.466 41.3149C114.498 40.8838 114.514 40.4413 114.514 40.0025C114.514 35.842 113.006 31.8156 110.27 28.6652C109.993 28.343 109.701 28.0301 109.37 27.7019C106.395 24.7554 102.455 22.9625 98.2773 22.6533C97.8443 22.6221 97.3979 22.606 96.9526 22.606Z" fill="white"/>
<path d="M96.9533 44.8461C96.2108 44.8461 95.4993 44.6864 94.8378 44.3713C94.3301 44.1282 93.8777 43.8094 93.4908 43.4222C92.9762 42.9171 92.5857 42.3044 92.3388 41.6103C92.1553 41.0938 92.0625 40.5526 92.0625 40.0012C92.0625 39.2657 92.2237 38.5608 92.5418 37.9056C92.7884 37.4013 93.1102 36.9534 93.5008 36.5708C94.0117 36.0608 94.6299 35.6739 95.3295 35.43C95.8503 35.2481 96.3967 35.1562 96.9536 35.1562C97.6961 35.1562 98.4077 35.3159 99.0692 35.6314C99.5774 35.875 100.03 36.1941 100.417 36.581C100.931 37.087 101.322 37.6991 101.568 38.3921C101.752 38.9089 101.844 39.4498 101.844 40.0015C101.844 40.737 101.683 41.4418 101.365 42.097C101.119 42.6005 100.797 43.0484 100.407 43.4316C99.8956 43.9419 99.2771 44.3288 98.5772 44.5727C98.0561 44.7542 97.51 44.8461 96.9533 44.8461ZM96.9533 37.993C96.7208 37.993 96.4943 38.031 96.2804 38.1053C95.9918 38.206 95.7372 38.3651 95.5239 38.5779C95.3561 38.7424 95.2232 38.9282 95.1204 39.1389C94.9918 39.4038 94.9257 39.6951 94.9257 40.0015C94.9257 40.2318 94.9641 40.4561 95.0391 40.6686C95.1407 40.9545 95.3014 41.2067 95.5156 41.4171C95.6825 41.5839 95.8698 41.7155 96.0817 41.8168C96.5513 42.0403 97.1266 42.0712 97.6265 41.8973C97.9149 41.7969 98.1695 41.6378 98.3825 41.4254C98.5503 41.2603 98.6832 41.0745 98.786 40.8643C98.9145 40.5991 98.9807 40.3078 98.9807 40.0015C98.9807 39.7709 98.9423 39.5465 98.8673 39.3341C98.7659 39.049 98.605 38.7963 98.3902 38.5852C98.2242 38.419 98.0369 38.2877 97.8244 38.1861C97.5564 38.0585 97.2623 37.993 96.9533 37.993Z" fill="white"/>
<path d="M96.9533 58.8164H94.0898V58.7653C94.0993 55.3565 94.9225 53.5528 95.649 51.9615C96.3489 50.4284 96.9533 49.1044 96.9533 46.2739C96.9533 45.2403 96.8703 44.3408 96.6993 43.5234L99.5036 42.9484C99.7143 43.9576 99.8168 45.0454 99.8168 46.2742C99.8168 49.7159 98.9887 51.5298 98.2582 53.1304C97.5621 54.6553 96.9614 55.9723 96.9533 58.7696V58.8164ZM94.4031 37.0557C94.1924 36.0465 94.0898 34.9587 94.0898 33.7306C94.0898 30.2885 94.918 28.4746 95.6484 26.874C96.3446 25.3491 96.9456 24.0322 96.9533 21.2349V21.1875H99.8168V21.2388C99.8077 24.6477 98.9841 26.4514 98.2577 28.0426C97.5581 29.5757 96.9533 30.8998 96.9533 33.7306C96.9533 34.7636 97.0364 35.663 97.2073 36.4808L94.4031 37.0557Z" fill="white"/>
<path d="M83.5396 53.2908L81.4805 51.3197L81.526 51.2743C83.9791 48.8565 85.8493 48.1576 87.4989 47.5413C89.0879 46.9476 90.4604 46.4351 92.4788 44.4357C93.2179 43.7033 93.8023 43.0089 94.2651 42.3129L96.6567 43.8729C96.086 44.7312 95.3818 45.5714 94.5033 46.4413C92.0485 48.873 90.1683 49.5756 88.5095 50.1953C86.9285 50.7859 85.5635 51.2962 83.5622 53.2686L82.5251 52.2903L83.5396 53.2908ZM99.6461 37.6892L97.2546 36.1288C97.8258 35.2702 98.53 34.4301 99.4082 33.5604C101.863 31.1268 103.744 30.4242 105.403 29.8047C106.984 29.2147 108.349 28.705 110.349 26.7334L110.392 26.6914L112.407 28.7067L112.371 28.7416C109.933 31.1446 108.063 31.843 106.413 32.4588C104.824 33.0521 103.452 33.5647 101.433 35.5658C100.694 36.2982 100.109 36.9928 99.6461 37.6892Z" fill="white"/>
<path d="M90.6236 42.8372C87.1487 42.8372 85.3172 42.0169 83.7014 41.2934C82.162 40.6038 80.8324 40.0085 78.0085 40.0005H77.9609V37.1641H78.0125C81.4538 37.1734 83.2747 37.9889 84.8811 38.7085C86.4288 39.4017 87.7658 40.0008 90.6236 40.0008C91.6676 40.0008 92.5756 39.9185 93.3994 39.7492L93.9804 42.5267C92.9636 42.7357 91.8655 42.8372 90.6236 42.8372ZM115.948 42.8372H115.897C112.455 42.8282 110.634 42.0124 109.028 41.2928C107.48 40.5996 106.143 40.0005 103.286 40.0005C102.243 40.0005 101.335 40.0828 100.509 40.2521L99.929 37.4744C100.948 37.2659 102.046 37.1641 103.286 37.1641C106.761 37.1641 108.592 37.9846 110.208 38.7082C111.747 39.3978 113.077 39.9931 115.901 40.0008H115.949L115.948 42.8372Z" fill="white"/>
<path d="M93.0464 39.705C92.1799 39.1397 91.3318 38.4422 90.4535 37.572C87.9987 35.1403 87.2894 33.2779 86.6637 31.6347C86.0675 30.069 85.5524 28.7169 83.5611 26.7342L84.5482 25.706L83.5391 26.7121L84.5361 25.6944L85.5572 24.7002L85.6031 24.7462C88.015 27.1472 88.7205 28.9994 89.3428 30.6338C89.9421 32.2077 90.4595 33.5669 92.478 35.5663C93.2177 36.299 93.9186 36.8779 94.6213 37.3363L93.0464 39.705ZM108.352 55.3021L108.349 55.2984C108.344 55.2941 108.324 55.2737 108.319 55.2694C105.895 52.857 105.19 51.0043 104.567 49.3693C103.968 47.7948 103.45 46.435 101.432 44.4359C100.693 43.7041 99.9918 43.1252 99.2888 42.6663L100.864 40.2978C101.731 40.8634 102.579 41.5609 103.457 42.4303C105.912 44.862 106.621 46.7249 107.247 48.3684C107.843 49.9344 108.358 51.2871 110.349 53.2683L110.393 53.3123L108.352 55.3021Z" fill="white"/>
<path d="M11.0273 80H5.15428C4.36367 80 3.72254 79.3652 3.72254 78.5818V8.654H1.43174C0.641136 8.654 0 8.01921 0 7.23578V1.41822C0 0.635081 0.641136 0 1.43174 0H11.0273C11.8179 0 12.459 0.635081 12.459 1.41822V78.5818C12.459 79.3652 11.8179 80 11.0273 80ZM6.58602 77.1636H9.59555V2.83673H2.86349V5.81784H5.15428C5.94489 5.81784 6.58602 6.45292 6.58602 7.23606V77.1636Z" fill="white"/>
<path d="M5.15428 25.0767H1.43174C0.641136 25.0767 0 24.4419 0 23.6585V18.2503C0 17.4671 0.641136 16.832 1.43174 16.832H5.15428C5.94489 16.832 6.58602 17.4671 6.58602 18.2503V23.6585C6.58602 24.4419 5.94489 25.0767 5.15428 25.0767ZM2.86349 22.2403H3.72254V19.6685H2.86349V22.2403Z" fill="white"/>
<path d="M5.15428 34.6119H1.43174C0.641136 34.6119 0 33.9768 0 33.1937V27.7854C0 27.002 0.641136 26.3672 1.43174 26.3672H5.15428C5.94489 26.3672 6.58602 27.002 6.58602 27.7854V33.1937C6.58602 33.9768 5.94489 34.6119 5.15428 34.6119ZM2.86349 31.7754H3.72254V29.2036H2.86349V31.7754Z" fill="white"/>
<path d="M5.15428 65.2379H1.43174C0.641136 65.2379 0 64.6031 0 63.8196V43.1799C0 42.3965 0.641136 41.7617 1.43174 41.7617H5.15428C5.94489 41.7617 6.58602 42.3965 6.58602 43.1799V63.8196C6.58602 64.6028 5.94489 65.2379 5.15428 65.2379ZM2.86349 62.4014H3.72254V44.5982H2.86349V62.4014Z" fill="white"/>
</svg>
