<svg width="40" height="36" viewBox="0 0 40 36" fill="none" xmlns="http://www.w3.org/2000/svg">
<path d="M22.7672 0.00697894C12.7352 -0.272967 4.51645 7.90545 4.51645 18.0035H0.988487C0.101571 18.0035 -0.332033 19.0833 0.298663 19.7032L5.79755 25.3021C6.19173 25.702 6.80272 25.702 7.19691 25.3021L12.6958 19.7032C13.3068 19.0833 12.8732 18.0035 11.9863 18.0035H8.4583C8.4583 10.205 14.7258 3.90622 22.4519 4.0062C29.7837 4.10618 35.9527 10.365 36.0513 17.8035C36.1498 25.622 29.9414 32.0008 22.2548 32.0008C19.0816 32.0008 16.1449 30.901 13.8192 29.0413C13.0308 28.4215 11.9271 28.4815 11.2176 29.2013C10.3898 30.0412 10.4489 31.4609 11.3753 32.1807C14.3711 34.5803 18.1355 36 22.2548 36C32.208 36 40.2691 27.6616 39.9931 17.4836C39.7369 8.10541 32.0109 0.266929 22.7672 0.00697894ZM21.7621 10.005C20.954 10.005 20.2839 10.6849 20.2839 11.5047V18.8633C20.2839 19.5632 20.6583 20.2231 21.2496 20.583L27.3989 24.2823C28.1084 24.7022 29.0151 24.4622 29.429 23.7624C29.8428 23.0425 29.6063 22.1227 28.9165 21.7028L23.2402 18.2834V11.4848C23.2402 10.6849 22.5701 10.005 21.7621 10.005Z" fill="#3D3D3D"/>
</svg>
