<svg width="60" height="60" viewBox="0 0 60 60" fill="none" xmlns="http://www.w3.org/2000/svg">
<path d="M25.2917 55.2141H12.5209C8.3828 55.1998 5.02766 52.0334 4.99726 48.1137V24.0509C5.00538 22.7387 5.62525 21.497 6.69078 20.6584L8.93955 19.0805C9.76052 18.252 9.844 16.9877 9.13842 16.0687C8.43283 15.1497 7.13734 14.8354 6.05224 15.3199L3.74795 16.9504C1.42354 18.654 0.0441718 21.2673 0 24.0509L0 48.14C0.0152681 54.6843 5.61214 59.9859 12.5209 60.0004H25.2917C26.6717 60.0004 27.7903 58.9407 27.7903 57.6336C27.7903 56.3264 26.6717 55.2667 25.2917 55.2667V55.2141Z" fill="white"/>
<path d="M60.0002 23.9981C59.971 21.235 58.6365 18.6295 56.3633 16.8976L37.1794 2.40739C32.9637 -0.802462 26.9585 -0.802462 22.7428 2.40739L16.6628 6.58879C15.5205 7.36582 15.2595 8.8729 16.0798 9.95494C16.9001 11.037 18.4911 11.2842 19.6334 10.5072L25.7967 6.14172C28.2158 4.25518 31.7064 4.25518 34.1255 6.14172L53.3094 20.632C54.4136 21.461 55.0659 22.7162 55.0862 24.0507V48.1398C55.0862 52.0613 51.7302 55.2403 47.5903 55.2403H41.899C41.3164 55.2403 40.844 54.7929 40.844 54.241V43.3798C40.8441 39.9188 37.8902 37.1091 34.2365 37.0946H25.9078C24.148 37.0946 22.4603 37.7568 21.2159 38.9355C19.9716 40.1142 19.2725 41.7129 19.2725 43.3798V47.5349C19.2725 48.8421 20.3912 49.9018 21.7711 49.9018C23.1511 49.9018 24.2698 48.8421 24.2698 47.5349V43.3798C24.2623 42.9708 24.4287 42.576 24.7315 42.2843C25.0343 41.9925 25.4481 41.8282 25.88 41.8283H34.2088C35.0981 41.8283 35.819 42.5112 35.819 43.3535V54.241C35.8343 57.4115 38.5519 59.974 41.899 59.974H47.4515C54.3666 59.974 59.9724 54.6639 59.9724 48.1135L60.0002 23.9981Z" fill="white"/>
</svg>
