<svg width="110" height="47" viewBox="0 0 110 47" fill="none" xmlns="http://www.w3.org/2000/svg">
<path d="M4.5 15V46M4 1V8.5M17.5 15V32.5M17.5 44.5V32.5M17.5 32.5C17.5 24.5 37.5 11 37.5 28C37.5 45 37.5 44.5 37.5 44.5M53.5 4V18M61.5 42C61.5 42 61.5 42 58 42C54.5 42 53.5 41 53.5 38C53.5 35 53.5 18 53.5 18M53.5 18H61.5M70.5 30H94C93.3661 21.6519 88.5 18 82.5 18C76.5 18 70.481 21.4835 70.5 30ZM70.5 30C70.227 39.8804 76.5 43 82.5 43C88.5 43 89.9711 41.4468 93 38M106 0V45.3093" stroke="#33D2FC" stroke-width="7"/>
</svg>
