<svg width="272" height="143" viewBox="0 0 272 143" fill="none" xmlns="http://www.w3.org/2000/svg">
<path d="M25.99 129.783H246.01C250.561 129.783 254.261 126.742 254.261 123.004V6.77973C254.261 3.0412 250.561 0 246.01 0H25.99C21.4403 0 17.7392 3.0412 17.7392 6.77973V123.004C17.7392 126.742 21.4427 129.783 25.99 129.783ZM24.8113 6.77973C24.8113 6.2451 25.3393 5.8112 25.99 5.8112H246.01C246.661 5.8112 247.189 6.2451 247.189 6.77973V123.004C247.189 123.538 246.661 123.972 246.01 123.972H25.99C25.3393 123.972 24.8113 123.538 24.8113 123.004V6.77973ZM272 134.971V140.397C272 141.834 270.581 143 268.831 143H3.16832C1.41914 143 0 141.834 0 140.397V134.971H111.708C112.26 136.484 113.948 137.594 115.968 137.594H156.034C158.052 137.594 159.74 136.486 160.294 134.971H272Z" fill="black"/>
<path d="M168.534 35.007L166.596 33.1316L173.418 26.5355C173.805 26.161 174.076 25.6893 174.2 25.1737C174.325 24.6582 174.298 24.1191 174.123 23.6174C173.948 23.1158 173.632 22.6714 173.21 22.3344C172.788 21.9975 172.277 21.7814 171.735 21.7105L151.171 19.0242C150.723 18.9675 150.268 19.0107 149.84 19.1506C149.412 19.2905 149.023 19.5233 148.703 19.8313C148.384 20.1405 148.143 20.5166 147.999 20.9306C147.855 21.3446 147.811 21.7852 147.871 22.2182L150.638 42.1242C150.711 42.6488 150.934 43.1433 151.281 43.552C151.629 43.9606 152.087 44.2672 152.605 44.4371C153.123 44.6069 153.68 44.633 154.213 44.5125C154.747 44.392 155.235 44.1296 155.622 43.7552L162.445 37.1439L164.382 39.0212C170.874 45.313 174.937 53.5718 175.891 62.4159C176.845 71.26 174.632 80.1529 169.623 87.6069C164.614 95.0609 157.113 100.624 148.374 103.366C139.635 106.107 130.189 105.86 121.615 102.666C113.041 99.4736 105.861 93.5271 101.274 85.8226C96.6876 78.118 94.9739 69.1226 96.4189 60.3411C97.8638 51.5597 102.38 43.5249 109.213 37.5809C116.045 31.6369 124.778 28.1442 133.952 27.6872C134.731 27.6478 135.462 27.3106 135.984 26.7498C136.506 26.189 136.776 25.4506 136.735 24.6969C136.694 23.9434 136.346 23.2363 135.767 22.7312C135.187 22.2262 134.424 21.9647 133.645 22.0041C123.118 22.5264 113.096 26.5325 105.256 33.3519C97.4147 40.1715 92.2315 49.3907 90.573 59.467C88.9145 69.5433 90.8815 79.8652 96.1446 88.7056C101.408 97.5458 109.648 104.368 119.486 108.032C129.324 111.695 140.164 111.976 150.19 108.828C160.217 105.681 168.823 99.2953 174.567 90.7403C180.313 82.1856 182.848 71.9804 181.749 61.8326C180.651 51.6848 175.986 42.2101 168.534 34.9938V35.007Z" fill="black"/>
</svg>
