<svg width="272" height="143" viewBox="0 0 272 143" fill="none" xmlns="http://www.w3.org/2000/svg">
<g opacity="0.9">
<path d="M25.99 129.783H246.01C250.561 129.783 254.261 126.742 254.261 123.004V6.77973C254.261 3.0412 250.561 0 246.01 0H25.99C21.4403 0 17.7392 3.0412 17.7392 6.77973V123.004C17.7392 126.742 21.4427 129.783 25.99 129.783ZM24.8113 6.77973C24.8113 6.2451 25.3393 5.8112 25.99 5.8112H246.01C246.661 5.8112 247.189 6.2451 247.189 6.77973V123.004C247.189 123.538 246.661 123.972 246.01 123.972H25.99C25.3393 123.972 24.8113 123.538 24.8113 123.004V6.77973ZM272 134.971V140.397C272 141.834 270.581 143 268.831 143H3.16831C1.41913 143 0 141.834 0 140.397V134.971H111.708C112.26 136.484 113.948 137.594 115.968 137.594H156.034C158.052 137.594 159.74 136.486 160.294 134.971H272Z" fill="white"/>
<path d="M35.9153 20.125C35.8096 20.0407 35.67 19.9959 35.5266 20.0003C35.3832 20.0047 35.2475 20.058 35.149 20.1486C35.0505 20.2392 34.997 20.3599 35.0001 20.4845C35.0033 20.6091 35.0627 20.7276 35.1657 20.8144L39.659 24.5L35.1657 28.1856C35.0627 28.2724 35.0033 28.3909 35.0001 28.5155C34.997 28.6401 35.0505 28.7608 35.149 28.8514C35.2475 28.942 35.3832 28.9953 35.5266 28.9997C35.67 29.0041 35.8096 28.9593 35.9153 28.875L40.829 24.8447C40.883 24.8004 40.926 24.7469 40.9554 24.6877C40.9848 24.6284 41 24.5645 41 24.5C41 24.4355 40.9848 24.3716 40.9554 24.3123C40.926 24.2531 40.883 24.1996 40.829 24.1553L35.9153 20.125Z" fill="white"/>
</g>
</svg>
