<svg width="237" height="80" viewBox="0 0 237 80" fill="none" xmlns="http://www.w3.org/2000/svg">
<path d="M237 69.4609V74.9671C237 77.7381 235.764 79.9865 234.238 79.9865H2.76061C1.23652 79.9865 0 77.7381 0 74.9671V70.4177L97.3318 69.5626C97.8125 72.4794 98.7274 72.3316 100.488 72.3316H136.512C138.27 72.3316 139.821 72.3815 140.304 69.4609H237Z" fill="white"/>
<path d="M0 62.0058V66.5549H237V62.0058C237 59.2348 235.762 56.9864 234.239 56.9864H2.76082C1.23627 56.9864 0 59.2348 0 62.0058Z" fill="white"/>
<path d="M217.5 49.3393C197.268 50.1103 114.897 49.3393 114.897 49.3393C114.897 49.3393 114.896 16.837 114.897 8.48649C114.897 0.136013 122.825 0.136398 122.825 0.136398C122.825 0.136398 195.823 0.0118647 217.5 0C239.176 -0.0118604 237.731 48.5684 217.5 49.3393Z" fill="white"/>
<path d="M143.902 18.4925C142.468 18.4925 142.468 15.0391 143.902 15.0391C145.336 15.0391 158.239 15.0391 158.239 15.0391C158.956 15.7866 158.956 17.5133 158.239 18.4925C157.523 19.4717 148.203 30.5794 148.203 30.5794H158.239C159.247 31.8936 159.286 32.7529 158.239 34.0328C158.239 34.0328 144.406 33.9813 143.902 34.0328C143.397 34.0842 142.972 31.3416 143.902 30.5794C144.831 29.8172 153.938 18.4925 153.938 18.4925C153.938 18.4925 145.336 18.4925 143.902 18.4925Z" fill="black"/>
<path d="M163.976 34.1307C163.073 32.7165 163.109 31.9625 163.976 30.6773L175.446 9.8206C175.446 9.8206 165.409 9.8206 163.976 9.8206C162.542 9.8206 162.542 6.3587 163.976 6.3672C165.409 6.3758 179.747 6.3672 179.747 6.3672C180.528 8.0466 180.401 8.6105 179.747 9.8206L168.277 30.6773L179.747 30.6422C180.442 31.9754 180.535 32.912 179.747 34.1307H163.976Z" fill="black"/>
<path d="M184.763 18.5354C183.686 17.152 183.623 16.4375 184.763 15.082H199.101C199.869 16.5777 199.743 17.3102 199.101 18.5354L189.064 30.6222H199.101C200.109 31.9365 200.148 32.7957 199.101 34.0756C199.101 34.0756 185.267 34.0242 184.763 34.0756C184.259 34.1271 183.834 31.3844 184.763 30.6222C185.693 29.8601 194.799 18.5354 194.799 18.5354H184.763Z" fill="black"/>
<path d="M130.221 32.0155V31L128.22 31.0233C128.22 31.0233 127.221 31.0233 127.221 32.0155V33.0078C127.221 34 128.22 34 128.22 34H129.22C130.221 34 130.221 33.0078 130.221 33.0078V32.0155Z" fill="black"/>
<path d="M134.221 32.0155V31L132.221 31.0233C132.221 31.0233 131.221 31.0233 131.221 32.0155V33.0078C131.221 34 132.221 34 132.221 34H133.22C134.221 34 134.221 33.0078 134.221 33.0078V32.0155Z" fill="black"/>
<path d="M138.221 32.0155V31L136.221 31.0233C136.221 31.0233 135.221 31.0233 135.221 32.0155V33.0077C135.221 34 136.221 34 136.221 34H137.221C138.221 34 138.221 33.0077 138.221 33.0077V32.0155Z" fill="black"/>
<path d="M207.221 32.0155C207.221 31.7442 207.221 31 206.471 31C205.721 31 204.221 31 204.221 31C204.221 31 204.221 31.0233 204.221 32.0155V33.0077C204.221 34 205.221 34 205.221 34H206.221C207.221 34 207.221 33.0077 207.221 33.0077C207.221 33.0077 207.221 32.2868 207.221 32.0155Z" fill="black"/>
<path d="M211.221 32.0155C211.221 31.7442 211.221 31 210.471 31C209.72 31 208.221 31 208.221 31C208.221 31 208.221 31.0233 208.221 32.0155V33.0077C208.221 34 209.22 34 209.22 34H210.22C211.221 34 211.221 33.0077 211.221 33.0077C211.221 33.0077 211.221 32.2868 211.221 32.0155Z" fill="black"/>
<path d="M215.221 32.0155C215.221 31.7442 215.221 31 214.47 31C213.721 31 212.221 31 212.221 31C212.221 31 212.221 31.0232 212.221 32.0155V33.0078C212.221 34 213.221 34 213.221 34H214.22C215.221 34 215.221 33.0078 215.221 33.0078C215.221 33.0078 215.221 32.2868 215.221 32.0155Z" fill="black"/>
</svg>
