<svg width="63" height="32" viewBox="0 0 63 32" fill="none" xmlns="http://www.w3.org/2000/svg">
<path opacity="0.9" d="M56.9804 28.5424H6.01974C5.12875 28.5424 4.60871 27.9842 4.60871 27.5253V1.51714C4.60871 1.05815 5.12831 0.5 6.01974 0.5H56.9804C57.872 0.5 58.3914 1.0581 58.3914 1.51714V27.5253C58.3914 27.9843 57.872 28.5424 56.9804 28.5424ZM6.01974 0.800407C5.70661 0.800407 5.24674 1.01994 5.24674 1.51714V27.5253C5.24674 28.0225 5.70667 28.242 6.01974 28.242H56.9804C57.2934 28.242 57.7534 28.0226 57.7534 27.5253V1.51714C57.7534 1.01991 57.2934 0.800407 56.9804 0.800407H6.01974ZM62.5 30.7033V31.411C62.4972 31.4158 62.4902 31.425 62.4741 31.4377C62.436 31.468 62.3641 31.5 62.2661 31.5H0.733836C0.63596 31.5 0.564056 31.468 0.525872 31.4377C0.509852 31.425 0.502814 31.4158 0.5 31.411V30.7033H25.5863C25.875 31.0793 26.3633 31.2902 26.8603 31.2902H36.1402C36.637 31.2902 37.1253 31.0795 37.4142 30.7033H62.5ZM62.5017 31.4072C62.5017 31.4074 62.5015 31.4082 62.5007 31.4096C62.5012 31.4078 62.5016 31.4071 62.5017 31.4072ZM0.498361 31.4072C0.498467 31.4072 0.498872 31.408 0.499254 31.4096C0.498447 31.4081 0.498255 31.4072 0.498361 31.4072Z" fill="#C72C47" stroke="#C72C47"/>
</svg>
