<svg width="272" height="143" viewBox="0 0 272 143" fill="none" xmlns="http://www.w3.org/2000/svg">
<path d="M25.99 129.783H246.01C250.561 129.783 254.261 126.742 254.261 123.004V6.77973C254.261 3.0412 250.561 0 246.01 0H25.99C21.4403 0 17.7392 3.0412 17.7392 6.77973V123.004C17.7392 126.742 21.4427 129.783 25.99 129.783ZM24.8113 6.77973C24.8113 6.2451 25.3393 5.8112 25.99 5.8112H246.01C246.661 5.8112 247.189 6.2451 247.189 6.77973V123.004C247.189 123.538 246.661 123.972 246.01 123.972H25.99C25.3393 123.972 24.8113 123.538 24.8113 123.004V6.77973ZM272 134.971V140.397C272 141.834 270.581 143 268.831 143H3.16831C1.41913 143 0 141.834 0 140.397V134.971H111.708C112.26 136.484 113.948 137.594 115.968 137.594H156.034C158.052 137.594 159.74 136.486 160.294 134.971H272Z" fill="black"/>
<path d="M173.177 73.1538C170.827 70.8222 169.554 67.5782 169.554 64.2328C169.554 60.8874 170.827 57.7447 173.177 55.3117C173.568 54.9062 173.96 54.6021 174.449 54.1965C175.135 53.6897 175.331 52.7773 175.135 51.9663C174.351 49.0264 173.177 46.1879 171.806 43.5521C171.414 42.8425 170.631 42.437 169.848 42.5383C169.162 42.6397 168.673 42.6397 168.183 42.6397C161.428 42.6397 155.945 36.9626 155.945 30.0691C155.945 29.5622 155.945 28.954 156.043 28.3457C156.141 27.5347 155.75 26.7237 155.064 26.3182C152.519 24.8989 149.777 23.6824 146.938 22.8714C146.155 22.6687 145.274 22.9728 144.784 23.5811C144.393 24.0879 144.001 24.5948 143.707 24.8989C141.357 27.2306 138.322 28.5484 135.092 28.5484C131.861 28.5484 128.728 27.2306 126.476 24.8989C126.084 24.4934 125.791 24.0879 125.399 23.5811C124.909 22.8714 124.028 22.6687 123.245 22.8714C120.406 23.7838 117.664 24.8989 115.119 26.3182C114.434 26.7237 114.042 27.5347 114.14 28.3457C114.238 29.0553 114.238 29.5622 114.238 30.0691C114.238 37.064 108.755 42.6397 102 42.6397C101.51 42.6397 100.923 42.6397 100.335 42.5383C99.5521 42.437 98.7691 42.8425 98.3771 43.5521C97.0071 46.1879 95.8317 49.0264 95.0485 51.9663C94.8527 52.7773 95.0485 53.6897 95.7338 54.1965C96.3211 54.6021 96.7131 55.0076 97.0061 55.3117C101.804 60.1777 101.804 68.1864 97.0061 73.1538C96.6151 73.5593 96.2231 73.8635 95.7338 74.269C95.0485 74.7758 94.8527 75.6882 95.0485 76.4992C95.9296 79.4391 97.0071 82.2776 98.3771 84.9134C98.7691 85.623 99.5521 86.0285 100.335 85.9272C101.021 85.8258 101.51 85.8258 102 85.8258C108.755 85.8258 114.238 91.5028 114.238 98.3964C114.238 98.9033 114.238 99.5115 114.14 100.12C114.042 100.931 114.434 101.742 115.119 102.148C117.664 103.567 120.406 104.783 123.245 105.594C124.028 105.797 124.909 105.594 125.399 104.885C125.791 104.378 126.182 103.871 126.476 103.567C128.826 101.235 131.861 99.917 135.092 99.917C138.322 99.917 141.455 101.235 143.707 103.567C144.099 103.972 144.393 104.378 144.784 104.885C145.176 105.392 145.763 105.696 146.351 105.696C146.546 105.696 146.742 105.696 146.938 105.594C149.777 104.682 152.519 103.567 155.064 102.148C155.75 101.742 156.141 100.931 156.043 100.12C155.945 99.4102 155.945 98.9033 155.945 98.3964C155.945 91.4015 161.428 85.8258 168.183 85.8258C168.673 85.8258 169.26 85.8258 169.848 85.9272C170.631 86.0285 171.414 85.623 171.806 84.9134C173.177 82.2776 174.351 79.4391 175.135 76.4992C175.331 75.6882 175.135 74.7758 174.449 74.269C173.96 73.8635 173.47 73.5593 173.177 73.1538ZM168.967 81.7708H168.086C159.176 81.7708 151.931 89.2726 151.931 98.3964V99.3088C150.365 100.12 148.7 100.83 146.938 101.438L146.351 100.83C143.316 97.6868 139.301 95.9634 134.994 95.9634C130.686 95.9634 126.672 97.6868 123.637 100.83L123.049 101.438C121.385 100.83 119.72 100.12 118.056 99.3088V98.3964C118.056 89.1712 110.811 81.7708 101.902 81.7708H101.021C100.237 80.1488 99.5521 78.4254 98.9651 76.6006L99.5521 75.9923C105.818 69.5043 105.818 58.9612 99.5521 52.3718L98.9651 51.7635C99.5521 50.0401 100.237 48.3168 101.021 46.5934H101.902C110.811 46.5934 118.056 39.0916 118.056 29.9677V29.0553C119.623 28.2443 121.287 27.5347 123.049 26.9265L123.637 27.5347C126.672 30.6774 130.686 32.4007 134.994 32.4007C139.301 32.4007 143.316 30.6774 146.351 27.5347L146.938 26.9265C148.602 27.5347 150.267 28.2443 151.931 29.0553V29.9677C151.931 39.1929 159.176 46.5934 168.086 46.5934H168.967C169.75 48.2154 170.435 49.9388 171.023 51.7635L170.435 52.3718C167.4 55.5144 165.736 59.6708 165.736 64.1314C165.736 68.5919 167.4 72.7483 170.435 75.891L171.023 76.4992C170.435 78.4254 169.75 80.1488 168.967 81.7708ZM135.092 40.1053C122.266 40.1053 111.79 50.9525 111.79 64.2328C111.79 77.513 122.266 88.3602 135.092 88.3602C147.917 88.3602 158.393 77.513 158.393 64.2328C158.393 50.9525 147.917 40.1053 135.092 40.1053ZM135.092 84.3052C124.42 84.3052 115.706 75.2827 115.706 64.2328C115.706 53.1828 124.42 44.1604 135.092 44.1604C145.763 44.1604 154.477 53.1828 154.477 64.2328C154.477 75.2827 145.763 84.3052 135.092 84.3052Z" fill="black"/>
<path d="M150.544 58.9418C151.939 58.087 151.66 56.9472 149.986 57.2321L134.923 58.9418C129.079 59.7947 131.009 69.4407 137.667 66.9375C137.696 66.9265 137.726 66.9118 137.753 66.8952L150.544 58.9418Z" fill="black"/>
<path d="M148.539 54.1933C133.333 35.7096 112.947 58.3344 123.051 72.4145C123.129 72.5235 123.285 72.5381 123.379 72.4429C123.444 72.3772 123.461 72.2741 123.425 72.188C117.194 57.2318 131.472 45.9753 142.571 55.3826C142.674 55.4696 142.808 55.5155 142.94 55.5038L148.214 55.0378C148.612 55.0026 148.798 54.5082 148.539 54.1933Z" fill="black"/>
</svg>
