<svg width="272" height="143" viewBox="0 0 272 143" fill="none" xmlns="http://www.w3.org/2000/svg">
<path opacity="0.9" d="M25.99 129.783H246.011C250.561 129.783 254.261 126.742 254.261 123.004V6.77972C254.261 3.0412 250.561 0 246.011 0H25.99C21.4403 0 17.7392 3.0412 17.7392 6.77972V123.004C17.7392 126.742 21.4427 129.783 25.99 129.783ZM24.8113 6.77972C24.8113 6.24512 25.3393 5.81121 25.99 5.81121H246.011C246.661 5.81121 247.189 6.24512 247.189 6.77972V123.004C247.189 123.538 246.661 123.972 246.011 123.972H25.99C25.3393 123.972 24.8113 123.538 24.8113 123.004V6.77972ZM272 134.971V140.397C272 141.834 270.581 143 268.831 143H3.16831C1.41913 143 0 141.834 0 140.397V134.971H111.709C112.26 136.484 113.948 137.594 115.968 137.594H156.034C158.052 137.594 159.74 136.486 160.294 134.971H272Z" fill="black"/>
</svg>
