<svg width="272" height="143" viewBox="0 0 272 143" fill="none" xmlns="http://www.w3.org/2000/svg">
<path d="M25.99 129.783H246.01C250.561 129.783 254.261 126.742 254.261 123.004V6.77973C254.261 3.0412 250.561 0 246.01 0H25.99C21.4403 0 17.7392 3.0412 17.7392 6.77973V123.004C17.7392 126.742 21.4427 129.783 25.99 129.783ZM24.8113 6.77973C24.8113 6.2451 25.3393 5.8112 25.99 5.8112H246.01C246.661 5.8112 247.189 6.2451 247.189 6.77973V123.004C247.189 123.538 246.661 123.972 246.01 123.972H25.99C25.3393 123.972 24.8113 123.538 24.8113 123.004V6.77973ZM272 134.971V140.397C272 141.834 270.581 143 268.831 143H3.16831C1.41913 143 0 141.834 0 140.397V134.971H111.708C112.26 136.484 113.948 137.594 115.968 137.594H156.034C158.052 137.594 159.74 136.486 160.294 134.971H272Z" fill="black"/>
<path d="M132.227 18.8447L132.4 50.2203L140.231 50.1765L140.058 18.8008L132.227 18.8447ZM114.683 32.599C106.501 37.3319 100.126 44.5991 96.5437 53.2753C92.9613 61.9514 92.3725 71.5524 94.868 80.5916C97.3777 89.6284 102.831 97.5946 110.384 103.256C117.937 108.919 127.168 111.961 136.647 111.912C146.126 111.853 155.321 108.707 162.809 102.961C170.298 97.2149 175.662 89.1891 178.071 80.1261C180.468 71.0613 179.776 61.4686 176.101 52.8333C172.427 44.1979 165.975 37.0015 157.745 32.3581L153.866 39.0762C160.608 42.8699 165.894 48.7592 168.901 55.829C171.908 62.8987 172.469 70.753 170.495 78.1711C168.535 85.5915 164.149 92.1639 158.02 96.8661C151.891 101.568 144.362 104.136 136.605 104.171C128.847 104.223 121.291 101.739 115.11 97.1061C108.93 92.4729 104.472 85.9499 102.43 78.5519C100.375 71.1563 100.849 63.2963 103.778 56.1933C106.707 49.0904 111.927 43.1423 118.627 39.2734L114.675 32.599H114.683Z" fill="black"/>
</svg>
