<svg width="100" height="45" viewBox="0 0 100 45" fill="none" xmlns="http://www.w3.org/2000/svg">
<path d="M62.5 40.4975H7.5C6.1203 40.495 5.00275 39.4893 5 38.2476V6.74958C5.00275 5.50793 6.1203 4.50219 7.5 4.49972H57.5C58.8806 4.49972 55 3.49234 55 2.24986C55 1.00738 58.8806 0 57.5 0H7.5C3.35968 0.00411949 0.0045775 3.02352 0 6.74958V38.2476C0.0045775 41.9737 3.35968 44.9931 7.5 44.9972H62.5C63.8806 44.9972 60.1413 43.2425 60.1413 42C60.1413 40.7575 63.8806 40.4975 62.5 40.4975ZM77.5 0H57.5C56.1194 0 55 1.00738 55 2.24986C55 3.49234 56.1194 4.49972 57.5 4.49972H77.5C78.8797 4.50219 79.9973 5.50793 80 6.74958V38.2476C79.9973 39.4893 78.8797 40.495 77.5 40.4975H62.5C61.1194 40.4975 60 41.5049 60 42.7473C60 43.9898 61.1194 44.9972 62.5 44.9972H77.5C81.6403 44.9931 84.9954 41.9737 85 38.2476V6.74958C84.9954 3.02352 81.6403 0.00411949 77.5 0ZM97.5 13.4992C96.1194 13.4992 95 14.5065 95 15.749V29.2507C95.0009 30.4926 96.12 31.4989 97.5 31.498C98.8797 31.4972 100.001 30.4901 100 29.2482V15.749C100 14.5065 98.8806 13.4992 97.5 13.4992Z" fill="white"/>
</svg>
