<svg width="97" height="54" viewBox="0 0 97 54" fill="none" xmlns="http://www.w3.org/2000/svg">
<path d="M86.2642 42.6047L89.3716 49.132H83.0608L86.2642 42.6047ZM82.9364 40.0631L75.7757 53.9948H80.8319L81.9645 51.5329H90.4388L91.5107 53.9948H97L89.7858 40.0613L82.9364 40.0631ZM68.56 54H73.6901V40.0588L68.5592 40.0579L68.56 54ZM32.9461 40.0579L28.666 51.1074L24.5659 40.0588L19.0306 40.0579L24.8864 54H32.277L38.18 40.0579H32.9461ZM53.6826 43.0937H55.8877C59.0862 43.0937 61.1553 44.1964 61.1553 47.0582C61.1553 49.9204 59.0862 51.0234 55.8877 51.0234H53.6826V43.0937ZM48.5956 40.0579V54H56.9121C61.3433 54 62.7905 53.4344 64.355 52.1658C65.4601 51.2749 66.1749 49.3195 66.1749 47.1825C66.1749 45.2222 65.57 43.4746 64.5154 42.3858C62.6154 40.4388 59.8781 40.0579 55.7927 40.0579H48.5956ZM0 40.0385V54H5.17349V43.399L9.18209 43.3999C10.5094 43.3999 11.4556 43.6541 12.0947 44.1782C12.9054 44.8412 13.2364 45.9116 13.2364 47.8696V54H18.2495V46.2862C18.2495 40.7808 13.6798 40.0385 9.20848 40.0385H0ZM40.3391 40.0579L40.3412 54H45.4689V40.0579H40.3391Z" fill="#77B900"/>
<path d="M15.4031 15.6695C15.4031 15.6695 21.7386 8.33157 34.3886 7.57243V4.91023C20.3771 5.79358 8.2438 15.1093 8.2438 15.1093C8.2438 15.1093 15.1159 30.7041 34.3886 32.1322V29.3025C20.2454 27.9058 15.4031 15.6695 15.4031 15.6695ZM34.3886 23.6749V26.2666C23.6995 24.7704 20.7324 16.0481 20.7324 16.0481C20.7324 16.0481 25.8647 11.5849 34.3886 10.8612V13.7048L34.3722 13.7033C29.8985 13.2818 26.4036 16.5626 26.4036 16.5626C26.4036 16.5626 28.3624 22.0854 34.3886 23.6749ZM34.3886 0V4.91023C34.7999 4.88548 35.2112 4.86448 35.6248 4.85343C51.5542 4.43198 61.9334 15.1093 61.9334 15.1093C61.9334 15.1093 50.0126 26.4882 37.5932 26.4882C36.455 26.4882 35.3894 26.4058 34.3886 26.2666V29.3025C35.2738 29.3918 36.1653 29.437 37.0577 29.4377C48.6148 29.4377 56.9725 24.8044 65.0654 19.3207C66.4071 20.1643 71.9003 22.2165 73.0296 23.1146C65.3348 28.1721 47.4017 32.2487 37.2348 32.2487C36.2548 32.2487 35.3137 32.2023 34.3886 32.1322V36.3987H78.3161V0H34.3886ZM34.3886 10.8612V7.57243C34.7957 7.5501 35.2058 7.53309 35.6248 7.5227C47.0796 7.24026 54.5948 15.25 54.5948 15.25C54.5948 15.25 46.4777 24.0994 37.7745 24.0994C36.522 24.0994 35.3992 23.9416 34.3886 23.6749V13.7048C38.848 14.1278 39.7452 15.6739 42.4262 19.1823L48.3893 15.2355C48.3893 15.2355 44.0366 10.7542 36.6991 10.7542C35.9012 10.754 35.138 10.7982 34.3886 10.8612Z" fill="#77B900"/>
</svg>
