<svg width="36" height="36" viewBox="0 0 36 36" fill="none" xmlns="http://www.w3.org/2000/svg">
<path d="M27 4.5H31.5V9H27V4.5ZM4.5 15.75H0V20.25H6.75V18H4.5V15.75ZM15.75 20.25H20.25V24.75H15.75V20.25ZM6.75 15.75H11.25V18H6.75V15.75ZM20.25 27H15.75V29.25H18V31.5H20.25V29.25V27ZM13.5 15.75V18H11.25V20.25H15.75V15.75H13.5ZM18 9H20.25V13.5H18V9ZM20.25 18V20.25H24.75V15.75H18V18H20.25ZM15.75 13.5H18V15.75H15.75V13.5ZM20.25 31.5H24.75V36H20.25V31.5ZM15.75 31.5H18V36H15.75V31.5ZM20.25 24.75H22.5V27H20.25V24.75ZM20.25 6.75V2.25H18V0H15.75V9H18V6.75H20.25ZM27 31.5H29.25V36H27V31.5ZM27 27H31.5V29.25H27V27ZM24.75 29.25H27V31.5H24.75V29.25ZM22.5 27H24.75V29.25H22.5V27ZM31.5 22.5V24.75H33.75V27H36V22.5H33.75H31.5ZM33.75 29.25H31.5V36H36V31.5H33.75V29.25ZM22.5 22.5V24.75H29.25V20.25H24.75V22.5H22.5ZM27 15.75V18H31.5V20.25H36V15.75H31.5H27Z" fill="white"/>
<path d="M13.5 0H0V13.5H13.5V0ZM11.25 11.25H2.25V2.25H11.25V11.25Z" fill="white"/>
<path d="M4.5 4.5H9V9H4.5V4.5ZM0 36H13.5V22.5H0V36ZM2.25 24.75H11.25V33.75H2.25V24.75Z" fill="white"/>
<path d="M4.5 27H9V31.5H4.5V27ZM22.5 0V13.5H36V0H22.5ZM33.75 11.25H24.75V2.25H33.75V11.25Z" fill="white"/>
</svg>
