<svg width="66" height="71" viewBox="0 0 66 71" fill="none" xmlns="http://www.w3.org/2000/svg">
<path fill-rule="evenodd" clip-rule="evenodd" d="M62.1269 21.0762L60.0273 17.4238C58.251 14.3333 54.3146 13.2672 51.2275 15.0405C49.758 15.9083 48.0045 16.1545 46.3537 15.7248C44.7029 15.2951 43.2904 14.2248 42.4276 12.75C41.8726 11.8126 41.5744 10.7448 41.5631 9.65476C41.6132 7.90712 40.9554 6.21357 39.7398 4.95992C38.5241 3.70627 36.854 2.99928 35.1099 3H30.8798C29.1711 3 27.5329 3.68253 26.3276 4.89661C25.1223 6.11069 24.4493 7.7562 24.4575 9.46905C24.4068 13.0055 21.5324 15.8456 18.0043 15.8452C16.9169 15.8339 15.8518 15.535 14.9166 14.9786C11.8295 13.2053 7.89308 14.2714 6.11681 17.3619L3.86282 21.0762C2.0887 24.1628 3.13775 28.1064 6.20944 29.8976C8.20609 31.0532 9.43608 33.1888 9.43608 35.5C9.43608 37.8112 8.20609 39.9468 6.20944 41.1024C3.14165 42.8815 2.09145 46.8156 3.86282 49.8929L5.9933 53.5762C6.82556 55.0816 8.22194 56.1925 9.87346 56.663C11.525 57.1335 13.2955 56.9249 14.7931 56.0833C16.2654 55.2221 18.0199 54.9862 19.6665 55.4279C21.3132 55.8697 22.7156 56.9525 23.5621 58.4357C24.1171 59.3732 24.4153 60.4409 24.4266 61.531C24.4266 65.1037 27.3158 68 30.8798 68H35.1099C38.6619 68 41.5461 65.1226 41.5631 61.5619C41.5548 59.8437 42.2321 58.1934 43.4441 56.9785C44.6561 55.7635 46.3023 55.0846 48.0163 55.0929C49.1011 55.122 50.1618 55.4197 51.104 55.9595C54.183 57.738 58.1169 56.6864 59.9038 53.6071L62.1269 49.8929C62.9874 48.4122 63.2236 46.6488 62.7831 44.9931C62.3427 43.3373 61.262 41.9259 59.7803 41.0714C58.2986 40.2169 57.2178 38.8055 56.7774 37.1498C56.337 35.4941 56.5731 33.7306 57.4337 32.25C57.9932 31.2706 58.8033 30.4586 59.7803 29.8976C62.8335 28.1074 63.8801 24.1868 62.1269 21.1071V21.0762Z" stroke="#FCFAFF" stroke-width="5" stroke-linecap="round" stroke-linejoin="round"/>
<path d="M33.013 44.4174C37.9239 44.4174 41.9049 40.4265 41.9049 35.5036C41.9049 30.5807 37.9239 26.5898 33.013 26.5898C28.1021 26.5898 24.1211 30.5807 24.1211 35.5036C24.1211 40.4265 28.1021 44.4174 33.013 44.4174Z" stroke="#FCFAFF" stroke-width="6" stroke-linecap="round" stroke-linejoin="round"/>
</svg>
