<svg width="19" height="34" viewBox="0 0 19 34" fill="none" xmlns="http://www.w3.org/2000/svg">
<path d="M10.5019 22.015V11.5625C10.5019 11.1536 10.3438 10.7615 10.0625 10.4724C9.78123 10.1833 9.3997 10.0208 9.00187 10.0208C8.60405 10.0208 8.22252 10.1833 7.94121 10.4724C7.65991 10.7615 7.50187 11.1536 7.50187 11.5625V22.015C7.04846 22.284 6.67144 22.6703 6.4083 23.1355C6.14515 23.6007 6.00503 24.1286 6.00187 24.6667C6.00187 25.4844 6.31794 26.2687 6.88055 26.8469C7.44316 27.4251 8.20622 27.75 9.00187 27.75C9.79752 27.75 10.5606 27.4251 11.1232 26.8469C11.6858 26.2687 12.0019 25.4844 12.0019 24.6667C11.9987 24.1286 11.8586 23.6007 11.5954 23.1355C11.3323 22.6703 10.9553 22.284 10.5019 22.015ZM15.7519 18.5V6.9375C15.7519 5.09756 15.0407 3.33298 13.7748 2.03195C12.509 0.730913 10.7921 0 9.00187 0C7.21166 0 5.49477 0.730913 4.2289 2.03195C2.96303 3.33298 2.25187 5.09756 2.25187 6.9375V18.5C1.21514 19.7074 0.503064 21.1721 0.186091 22.7492C-0.130883 24.3263 -0.0417733 25.9611 0.444604 27.4919C0.930982 29.0227 1.79777 30.3965 2.95924 31.4773C4.12071 32.5582 5.5366 33.3087 7.06687 33.6546C7.70256 33.8035 8.35035 33.8912 9.00187 33.9167C10.7428 33.925 12.4487 33.4142 13.9129 32.4461C15.3771 31.4781 16.5366 30.0944 17.251 28.4626C17.9655 26.8309 18.2041 25.0213 17.938 23.253C17.6719 21.4847 16.9125 19.8337 15.7519 18.5ZM12.7519 29.3996C11.5584 30.4872 9.99343 31.043 8.40125 30.9447C6.80906 30.8464 5.32009 30.102 4.26187 28.8754C3.20366 27.6488 2.66289 26.0404 2.75854 24.4039C2.85418 22.7675 3.5784 21.2372 4.77187 20.1496C4.9136 20.0068 5.02636 19.8365 5.1036 19.6486C5.18085 19.4608 5.22105 19.259 5.22187 19.055V6.9375C5.22187 5.91531 5.61696 4.93499 6.32022 4.21219C7.02348 3.4894 7.97731 3.08333 8.97187 3.08333C9.96643 3.08333 10.9203 3.4894 11.6235 4.21219C12.3268 4.93499 12.7219 5.91531 12.7219 6.9375V19.1783C12.7227 19.3823 12.7629 19.5841 12.8401 19.772C12.9174 19.9599 13.0301 20.1301 13.1719 20.2729C13.785 20.8817 14.2649 21.6177 14.5795 22.4321C14.8941 23.2464 15.0363 24.1203 14.9966 24.9955C14.9569 25.8707 14.7361 26.7272 14.349 27.5079C13.962 28.2886 13.4175 28.9755 12.7519 29.5229V29.3996Z" fill="white"/>
</svg>
