<svg width="36" height="36" viewBox="0 0 36 36" fill="none" xmlns="http://www.w3.org/2000/svg">
<path fill-rule="evenodd" clip-rule="evenodd" d="M4.14332 3.75505e-05C3.9323 -0.00177081 3.72583 0.0617752 3.55188 0.182229C3.37792 0.302684 3.2449 0.474191 3.17081 0.673408L0.0839709 8.97186C0.0288487 9.10087 0.000283713 9.23986 2.10293e-06 9.38033C-0.000279508 9.52081 0.0277346 9.65985 0.0823548 9.78908C0.136963 9.91832 0.217039 10.035 0.317708 10.1321C0.41839 10.2293 0.537584 10.3048 0.668055 10.3541C0.798526 10.4034 0.937582 10.4254 1.07677 10.419C1.21596 10.4125 1.35239 10.3776 1.47781 10.3164C1.60322 10.2551 1.71501 10.1689 1.80639 10.0629C1.89775 9.9568 1.96682 9.83308 2.00938 9.69933L2.51939 8.32655H5.7456L6.25663 9.69933C6.29967 9.83264 6.36903 9.95569 6.46053 10.0612C6.55204 10.1667 6.66379 10.2524 6.78904 10.3132C6.91431 10.3739 7.05049 10.4086 7.18935 10.4148C7.32822 10.421 7.46692 10.3989 7.59706 10.3496C7.7272 10.3004 7.84615 10.2252 7.94655 10.1283C8.04707 10.0314 8.12703 9.91512 8.18176 9.78622C8.23636 9.65743 8.26465 9.5187 8.26465 9.37855C8.26477 9.23841 8.23661 9.09974 8.182 8.97085L5.09519 0.673408C5.02235 0.47751 4.89249 0.308373 4.72262 0.188195C4.55276 0.0680273 4.35084 0.00246339 4.14332 3.75505e-05ZM4.13507 3.9905L4.97544 6.25318H3.29264L4.13507 3.9905Z" fill="white"/>
<path fill-rule="evenodd" clip-rule="evenodd" d="M14.589 7.58279e-05C14.3283 0.00363741 14.0744 0.0628942 13.8565 0.170966C13.852 0.173028 13.8474 0.175112 13.8428 0.177218C13.771 0.214035 13.7039 0.255903 13.6424 0.302259C13.6377 0.30571 13.6332 0.309184 13.6286 0.312679C13.6091 0.327532 13.5902 0.342815 13.572 0.358528C13.5573 0.370425 13.543 0.382587 13.5291 0.394992C13.5148 0.409658 13.501 0.424599 13.4876 0.439804C13.4738 0.453102 13.4605 0.466654 13.4476 0.480437C13.4376 0.493129 13.4279 0.505986 13.4186 0.518997C13.405 0.536077 13.3921 0.553455 13.3799 0.571098C13.3702 0.586204 13.3609 0.601498 13.3522 0.616946C13.3424 0.633089 13.3332 0.649419 13.3245 0.665915C13.3198 0.675243 13.3152 0.684627 13.3108 0.694055C13.2453 0.832184 13.2195 0.979213 13.2348 1.12544V5.10798C13.2273 5.17037 13.2273 5.23314 13.2348 5.29554V9.28849C13.2246 9.38397 13.2321 9.48005 13.2568 9.57397C13.2653 9.60738 13.2759 9.64046 13.2887 9.67298C13.3016 9.70695 13.3168 9.74025 13.3342 9.773C13.352 9.80497 13.3718 9.83629 13.3937 9.86683C13.4148 9.89749 13.4378 9.92748 13.4628 9.95637C13.4813 9.97633 13.5006 9.99584 13.5208 10.0148C13.5355 10.0289 13.5507 10.0428 13.5664 10.0565L13.5692 10.0596C13.598 10.0849 13.6284 10.1093 13.6604 10.1325C13.6943 10.1564 13.7298 10.179 13.7668 10.2003C13.8032 10.2214 13.841 10.2413 13.8801 10.2596C13.9185 10.2781 13.9582 10.2952 13.9989 10.3107C14.0816 10.3414 14.1682 10.3659 14.2573 10.3836C14.3464 10.4013 14.4376 10.4121 14.5295 10.416C14.5944 10.4194 14.6595 10.4194 14.7244 10.416H17.3609V10.4201C17.3829 10.4201 17.4023 10.416 17.4231 10.416C17.5094 10.4151 17.5955 10.4081 17.6801 10.3951C19.7969 10.2701 21.4938 8.93108 21.4938 7.30451C21.4883 6.52669 21.0947 5.77892 20.3911 5.21009C21.0937 4.64094 21.4864 3.89321 21.491 3.11567C21.491 1.48389 19.7859 0.141789 17.6593 0.0219636C17.5782 0.010507 17.4959 0.0045857 17.4134 0.00424388C17.3968 0.00424388 17.3802 7.58279e-05 17.3609 7.58279e-05V0.00424388H14.7299C14.683 0.00104617 14.636 -0.000354208 14.589 7.58279e-05ZM15.9874 2.07992H17.3747C17.5553 2.07762 17.7348 2.10291 17.9022 2.15426C18.0696 2.20561 18.2215 2.28196 18.3487 2.3787C18.4761 2.47546 18.5761 2.59062 18.6428 2.71726C18.7096 2.84392 18.7416 2.97943 18.7371 3.11567C18.7371 3.70961 18.1484 4.15558 17.3609 4.15558V4.17225H15.9874V2.07992ZM15.9874 6.25001H17.3609V6.2646C18.1484 6.2646 18.7371 6.71058 18.7371 7.30451C18.7371 7.89221 18.1581 8.33193 17.3829 8.34027H15.9874V6.25001Z" fill="white"/>
<path fill-rule="evenodd" clip-rule="evenodd" d="M32.7036 1.86843e-05C32.6361 -0.000389298 32.5688 0.00588479 32.5025 0.0187748H32.4984C29.7607 0.204253 27.5489 2.44248 27.5489 5.21004C27.5489 7.98594 29.7762 10.2315 32.5273 10.4034C32.5909 10.4151 32.6554 10.4206 32.7201 10.42H34.7823C35.0559 10.42 35.3181 10.3103 35.5115 10.1148C35.7049 9.91943 35.8135 9.65446 35.8135 9.37806C35.8135 9.1017 35.7049 8.83666 35.5115 8.64125C35.3181 8.44584 35.0559 8.33606 34.7823 8.33606H32.8644C31.0249 8.33606 29.6101 6.93873 29.6101 5.21004C29.6101 3.48031 31.0249 2.08403 32.8654 2.08403H34.7659C35.0393 2.08403 35.3016 1.97425 35.4951 1.77884C35.6884 1.58343 35.797 1.31838 35.797 1.04202C35.797 0.76567 35.6884 0.500625 35.4951 0.305212C35.3016 0.109799 35.0393 1.86843e-05 34.7659 1.86843e-05H32.7036Z" fill="white"/>
<path d="M22.5317 15.0495H12.7365C12.0604 15.0495 11.5122 15.5433 11.5122 16.1522C11.5122 16.7612 12.0604 17.2548 12.7365 17.2548H22.5317C23.2079 17.2548 23.7561 16.7612 23.7561 16.1522C23.7561 15.5433 23.2079 15.0495 22.5317 15.0495Z" fill="white"/>
<path fill-rule="evenodd" clip-rule="evenodd" d="M1.01996 20.3389C0.8848 20.3412 0.751414 20.3704 0.62742 20.4248C0.503425 20.4792 0.391247 20.5577 0.297299 20.6558C0.203363 20.7538 0.129483 20.8697 0.0798956 20.9968C0.0303076 21.1237 0.00597888 21.2592 0.00830523 21.3957V29.5858C-0.0184477 29.7972 0.0197899 30.0116 0.117839 30.2003C0.215889 30.389 0.369012 30.5426 0.556466 30.6405C0.586672 30.6569 0.617674 30.6719 0.649373 30.6852H0.65143C0.683228 30.6976 0.715613 30.7084 0.748476 30.7175C0.768274 30.7231 0.788244 30.7279 0.808349 30.7321C0.827841 30.7365 0.847468 30.7404 0.867181 30.7436C0.901366 30.7495 0.93582 30.7537 0.970409 30.7561C1.00922 30.759 1.04817 30.7597 1.08707 30.7582H3.10315C3.16718 30.7587 3.23111 30.7531 3.29412 30.7415C6.04109 30.5706 8.26465 28.3301 8.26465 25.5621C8.26465 22.8015 6.05553 20.5704 3.31993 20.3859C3.25394 20.373 3.18686 20.3667 3.11967 20.3671H1.27081C1.18866 20.3474 1.10441 20.3379 1.01996 20.3389ZM2.06672 22.4451H2.9576C4.79509 22.4451 6.20624 23.8374 6.20624 25.5611C6.20624 27.2848 4.79405 28.6802 2.9576 28.6802H2.06672V22.4451Z" fill="white"/>
<path fill-rule="evenodd" clip-rule="evenodd" d="M14.1682 20.3459C14.1602 20.3458 14.1524 20.3458 14.1444 20.3459C14.1187 20.3491 14.0933 20.3532 14.0679 20.3584C14.0475 20.3619 14.027 20.366 14.0068 20.3709C13.9933 20.3747 13.9799 20.379 13.9665 20.3834C13.9595 20.3869 13.9527 20.3902 13.9458 20.3937C13.9131 20.4043 13.8811 20.4165 13.8496 20.4302C13.6457 20.5187 13.4754 20.671 13.364 20.8644C13.2526 21.0579 13.2059 21.2822 13.231 21.5045V25.4388C13.2223 25.516 13.2223 25.5939 13.231 25.6711V29.6054C13.2097 29.8153 13.2523 30.0268 13.3531 30.2119C13.3688 30.2426 13.386 30.2724 13.4048 30.3014C13.4238 30.3295 13.4442 30.3566 13.4659 30.3827C13.4823 30.4042 13.4995 30.4251 13.5175 30.4453C13.5243 30.4522 13.5313 30.4593 13.5382 30.4661C13.5527 30.4797 13.5675 30.4929 13.5827 30.5056C13.5922 30.5142 13.6019 30.5225 13.6117 30.5306C13.6168 30.5348 13.622 30.539 13.6272 30.5432C13.6495 30.5618 13.6727 30.5796 13.6965 30.5963C13.7017 30.5999 13.7068 30.6032 13.712 30.6066C13.7645 30.64 13.82 30.6687 13.8775 30.6921C13.883 30.6922 13.8885 30.6922 13.894 30.6921H13.8982H13.9024C14.0402 30.7444 14.1877 30.7665 14.3347 30.7567H20.4546C20.729 30.7567 20.9921 30.647 21.186 30.4516C21.3801 30.2562 21.4891 29.9911 21.4891 29.7148C21.4891 29.4385 21.3801 29.1735 21.186 28.9781C20.9921 28.7827 20.729 28.6729 20.4546 28.6729H15.2999V26.5901H18.3857C18.66 26.5901 18.9231 26.4804 19.1172 26.285C19.3111 26.0896 19.4201 25.8245 19.4201 25.5482C19.4201 25.2718 19.3111 25.0069 19.1172 24.8115C18.9231 24.6161 18.66 24.5063 18.3857 24.5063H15.2999V22.4236H20.4546C20.729 22.4236 20.9921 22.3136 21.186 22.1182C21.3801 21.9229 21.4891 21.6579 21.4891 21.3816C21.4891 21.1052 21.3801 20.8402 21.186 20.6448C20.9921 20.4494 20.729 20.3397 20.4546 20.3397H14.3514C14.3254 20.3387 14.2996 20.3387 14.2737 20.3397C14.2658 20.3396 14.2578 20.3396 14.25 20.3397C14.2227 20.3386 14.1955 20.3386 14.1682 20.3397V20.3459Z" fill="white"/>
<path d="M31.8927 20.3388C30.7439 20.3429 29.6437 20.69 28.8314 21.3047C28.019 21.9193 27.5602 22.7517 27.5548 23.6209V25.5118C27.5532 25.5403 27.5532 25.5688 27.5548 25.5974V29.7164C27.5548 29.9929 27.6999 30.258 27.9584 30.4536C28.2167 30.6491 28.5673 30.7589 28.9328 30.7589C29.2981 30.7589 29.6487 30.6491 29.907 30.4536C30.1655 30.258 30.3107 29.9929 30.3107 29.7164V26.5919H33.0611C33.4264 26.5919 33.777 26.4821 34.0354 26.2866C34.2938 26.0911 34.439 25.8259 34.439 25.5493C34.439 25.2729 34.2938 25.0077 34.0354 24.8122C33.777 24.6167 33.4264 24.5069 33.0611 24.5069H30.3107V23.6198C30.3107 22.9395 30.9921 22.4239 31.8927 22.4239H34.4403C34.8058 22.4239 35.1562 22.314 35.4147 22.1185C35.6731 21.923 35.8183 21.6578 35.8183 21.3813C35.8183 21.1049 35.6731 20.8397 35.4147 20.6442C35.1562 20.4487 34.8058 20.3388 34.4403 20.3388H31.8927Z" fill="white"/>
<path d="M34.7756 33.7947H1.71702C1.04081 33.7947 0.492627 34.2885 0.492627 34.8973C0.492627 35.5063 1.04081 36 1.71702 36H34.7756C35.4518 36 36 35.5063 36 34.8973C36 34.2885 35.4518 33.7947 34.7756 33.7947Z" fill="white"/>
</svg>
