<svg width="70" height="12" viewBox="0 0 70 12" fill="none" xmlns="http://www.w3.org/2000/svg">
<path d="M5.84199 0.941741C8.14228 0.611378 10.4469 0.300206 12.7516 0C12.7531 1.89582 12.7516 3.79027 12.7531 5.68609C10.4499 5.69431 8.14666 5.72721 5.84199 5.73406C5.84053 4.13571 5.84053 2.53873 5.84199 0.941741ZM0 1.70665C1.73215 1.45579 3.47175 1.23921 5.2112 1.03496C5.21266 2.60727 5.21267 4.1782 5.21413 5.75051C3.47613 5.74914 1.73799 5.77382 0 5.76971V1.70665ZM27.5187 1.97121C27.9744 1.69842 28.5571 2.26731 28.2913 2.695C28.1628 3.00891 27.6925 3.12817 27.4267 2.89788C27.0937 2.6854 27.1404 2.12063 27.5187 1.97121ZM39.4524 1.91501C39.7445 1.91364 40.0366 1.91364 40.3287 1.91364V9.59013H39.4555C39.457 9.31186 39.4511 9.03345 39.4307 8.75531C38.7983 9.82166 37.107 10.0576 36.1402 9.26662C35.4495 8.7087 35.2391 7.80123 35.2756 6.97999C35.2829 6.14654 35.575 5.261 36.2818 4.71679C37.2005 4.00672 38.829 4.04784 39.4584 5.09102C39.4466 4.03153 39.4568 2.97327 39.4524 1.91501ZM37.5655 4.94997C36.8644 5.05415 36.3898 5.65456 36.2585 6.27553C36.086 7.02399 36.1167 7.8902 36.6192 8.52639C37.1625 9.20343 38.3616 9.21864 38.9429 8.57848C39.3387 8.19191 39.451 7.63811 39.4541 7.11995C39.4583 6.573 39.5081 5.95613 39.1211 5.49966C38.7792 5.04318 38.1409 4.83756 37.5655 4.94997ZM65.3341 2.20836C65.4113 2.19877 65.5663 2.1782 65.6421 2.16861C65.6465 4.64154 65.6437 7.11583 65.6437 9.59013H64.7791C64.7848 7.53119 64.7643 5.47087 64.7892 3.41193C64.2386 3.76971 63.6441 4.07539 62.9971 4.24537C63.0014 3.97121 63.0044 3.69705 63.0072 3.42289C63.8546 3.15284 64.6256 2.71693 65.3341 2.20836ZM16.6424 2.32351C16.971 2.32488 17.2996 2.32488 17.6297 2.32899C18.1425 4.06717 18.6478 5.80809 19.1617 7.5475C19.2724 7.91307 19.3525 8.28619 19.4013 8.66347C19.9358 6.52913 20.6661 4.44003 21.2795 2.32351C21.5643 2.32488 21.8491 2.32488 22.134 2.32625C22.5853 3.83276 23.0072 5.34613 23.4541 6.85401C23.6193 7.45442 23.8326 8.04661 23.8997 8.66744C24.3832 6.53585 25.0724 4.44674 25.6201 2.32899C25.9443 2.32488 26.2685 2.32488 26.5928 2.32488C25.8859 4.74983 25.1498 7.16792 24.4343 9.59013H23.3811C22.8626 7.85072 22.3487 6.10953 21.8244 4.37286C21.7366 4.09184 21.7001 3.80123 21.6725 3.51062C21.6316 3.76148 21.5936 4.01508 21.5248 4.26045C20.9947 6.03153 20.4572 7.79973 19.9416 9.57368C19.5913 9.5915 19.2406 9.59287 18.8901 9.59013C18.1379 7.16929 17.3916 4.74572 16.6424 2.32351ZM30.5332 5.22001C31.0341 4.38245 32.2025 3.99726 33.1446 4.3852C33.8938 4.65936 34.1727 5.47347 34.1961 6.16724C34.2369 7.30761 34.2034 8.44949 34.2136 9.59013C33.9215 9.59013 33.6294 9.59013 33.3373 9.58876C33.324 8.49349 33.368 7.39548 33.3167 6.30021C33.2934 5.75737 33.048 5.10487 32.4187 4.96642C31.5 4.70596 30.5828 5.48321 30.5535 6.33585C30.5272 7.42015 30.552 8.50583 30.5433 9.59013H29.667C29.6686 7.85332 29.6686 6.11789 29.667 4.38108H30.5449C30.5434 4.66073 30.5419 4.94037 30.5332 5.22001ZM43.7375 4.25223C44.5189 4.1878 45.3848 4.30295 45.9721 4.83345C46.6352 5.40781 46.8323 6.30021 46.7958 7.11583C46.7856 7.84921 46.4964 8.59356 45.9239 9.10487C44.7292 10.1247 42.5107 9.9013 41.7526 8.49897C41.1568 7.32419 41.2765 5.69842 42.3645 4.80603C42.7546 4.49623 43.2483 4.35504 43.7375 4.25223ZM43.5798 4.99794C42.293 5.36943 42.0754 6.94722 42.477 7.98492C42.7968 8.9061 44.0441 9.3146 44.9394 8.88417C45.5455 8.62234 45.8215 7.98081 45.88 7.39274C45.9455 6.70596 45.8873 5.92748 45.3702 5.39136C44.9322 4.92803 44.1903 4.82796 43.5798 4.99794ZM57.0266 4.24949C57.5743 4.21385 58.1322 4.26319 58.6479 4.45236C58.7909 4.70733 58.68 5.04181 58.7136 5.32831C58.0988 4.96779 57.2515 4.73749 56.5842 5.10487C56.1271 5.3379 56.1052 6.02728 56.5506 6.28376C57.1889 6.67169 57.9995 6.77313 58.5661 7.2721C59.1912 7.83687 59.0393 8.92255 58.3076 9.34613C57.4182 9.878 56.2469 9.82591 55.3151 9.42015C55.3151 9.11309 55.3136 8.80617 55.3078 8.49897C55.9708 8.97327 56.9026 9.23646 57.6957 8.89925C58.1587 8.68129 58.182 8.01371 57.7745 7.73269C57.1363 7.2913 56.2616 7.22138 55.6948 6.67032C55.1356 6.14119 55.2362 5.16792 55.86 4.71967C56.1825 4.4414 56.6191 4.35778 57.0266 4.24949ZM27.3303 4.38245C27.6224 4.38108 27.9145 4.38108 28.2066 4.38108V9.59013H27.3303C27.3303 7.85332 27.3318 6.11789 27.3303 4.38245ZM47.161 4.38108H48.0752C48.4374 5.62166 48.7881 6.86498 49.1575 8.10418C49.2319 8.33708 49.2597 8.57848 49.286 8.81974C49.6993 7.3257 50.2222 5.85881 50.691 4.37971L51.49 4.38382C51.8917 5.86429 52.3911 7.32282 52.724 8.81837C53.0674 7.33091 53.555 5.87663 53.9364 4.39753C54.2299 4.38382 54.5235 4.37971 54.8183 4.37697C54.2619 6.11391 53.7288 7.85607 53.1696 9.59013H52.261C51.8667 8.1782 51.3555 6.79369 51.0357 5.36669C50.6545 6.79232 50.1258 8.17957 49.6905 9.59013H48.8128C48.2636 7.85332 47.7028 6.12049 47.161 4.38108ZM0 6.26456C1.73668 6.25908 3.47306 6.28513 5.2096 6.28239C5.2096 7.85881 5.21398 9.43523 5.2112 11.0117C3.47613 10.7703 1.73799 10.5593 0 10.3386V6.26456ZM5.83177 6.32762H12.7516C12.7545 8.21796 12.7516 10.1083 12.7516 12C10.4513 11.6765 8.14666 11.3763 5.84199 11.0831C5.83907 9.49829 5.83469 7.91364 5.83177 6.32762Z" fill="#00B8FF"/>
<path d="M69.6411 2.16797C69.5653 2.17756 69.4103 2.19813 69.3331 2.20772C68.6246 2.71629 67.8536 3.1522 67.0062 3.42225C67.0034 3.69641 67.0004 3.97057 66.9961 4.24473C67.6431 4.07475 68.2376 3.76907 68.7882 3.41129C68.7633 5.47023 68.7838 7.53055 68.7781 9.58949H69.6427C69.6427 7.11519 69.6455 4.6409 69.6411 2.16797Z" fill="#00B8FF"/>
</svg>
