<svg width="70" height="12" viewBox="0 0 70 12" fill="none" xmlns="http://www.w3.org/2000/svg">
<path d="M5.7095 0.941741C7.95761 0.611378 10.21 0.300206 12.4624 0C12.4638 1.89582 12.4624 3.79027 12.4638 5.68609C10.2129 5.69431 7.96189 5.72721 5.7095 5.73406C5.70807 4.13571 5.70807 2.53873 5.7095 0.941741ZM0 1.70665C1.69287 1.45579 3.39301 1.23921 5.09301 1.03496C5.09444 2.60727 5.09444 4.1782 5.09587 5.75051C3.39729 5.74914 1.69858 5.77382 0 5.76971V1.70665ZM26.8946 1.97121C27.3399 1.69842 27.9094 2.26731 27.6497 2.695C27.5241 3.00891 27.0644 3.12817 26.8047 2.89788C26.4792 2.6854 26.5249 2.12063 26.8946 1.97121ZM38.5577 1.91501C38.8431 1.91364 39.1286 1.91364 39.4141 1.91364V9.59013H38.5607C38.5621 9.31186 38.5564 9.03345 38.5364 8.75531C37.9183 9.82166 36.2654 10.0576 35.3205 9.26662C34.6455 8.7087 34.4398 7.80123 34.4755 6.97999C34.4827 6.14654 34.7681 5.261 35.459 4.71679C36.3568 4.00672 37.9483 4.04784 38.5635 5.09102C38.5519 4.03153 38.5619 2.97327 38.5577 1.91501ZM36.7135 4.94997C36.0284 5.05415 35.5645 5.65456 35.4361 6.27553C35.2676 7.02399 35.2975 7.8902 35.7887 8.52639C36.3197 9.20343 37.4916 9.21864 38.0596 8.57848C38.4465 8.19191 38.5562 7.63811 38.5592 7.11995C38.5634 6.573 38.612 5.95613 38.2338 5.49966C37.8996 5.04318 37.2759 4.83756 36.7135 4.94997ZM63.8523 2.20836C63.9278 2.19877 64.0793 2.1782 64.1533 2.16861C64.1576 4.64154 64.1549 7.11583 64.1549 9.59013H63.3099C63.3155 7.53119 63.2955 5.47087 63.3197 3.41193C62.7816 3.76971 62.2007 4.07539 61.5684 4.24537C61.5725 3.97121 61.5755 3.69705 61.5782 3.42289C62.4064 3.15284 63.1599 2.71693 63.8523 2.20836ZM67.2764 2.20562C68.0187 2.08636 68.8424 2.34681 69.2835 2.95271C69.9101 3.8026 69.9686 4.89239 70 5.89719C69.9787 6.95819 69.8573 8.10816 69.1523 8.97327C68.5028 9.79164 67.1725 9.98355 66.3017 9.38177C65.5953 8.89239 65.3182 8.03825 65.1926 7.24743C65.0499 6.07265 65.0627 4.8403 65.4881 3.71899C65.7563 2.95819 66.4186 2.30295 67.2764 2.20562ZM67.1451 2.94174C66.3843 3.23783 66.1661 4.10144 66.0603 4.80329C65.949 5.78204 65.9233 6.79095 66.1659 7.75449C66.2873 8.22892 66.5428 8.73201 67.0322 8.94023C67.5876 9.20891 68.3298 8.97738 68.6224 8.45086C69.0892 7.67649 69.1006 6.74695 69.1063 5.87663C69.0878 5.0281 69.0521 4.11515 68.5639 3.37766C68.2742 2.92803 67.6504 2.74709 67.1451 2.94174ZM16.2649 2.32351C16.5861 2.32488 16.9072 2.32488 17.2298 2.32899C17.731 4.06717 18.2249 5.80809 18.7271 7.5475C18.8353 7.91307 18.9136 8.28619 18.9612 8.66347C19.4837 6.52913 20.1973 4.44003 20.7968 2.32351C21.0752 2.32488 21.3535 2.32488 21.632 2.32625C22.0731 3.83276 22.4854 5.34613 22.9222 6.85401C23.0836 7.45442 23.292 8.04661 23.3577 8.66744C23.8302 6.53585 24.5037 4.44674 25.039 2.32899C25.3559 2.32488 25.6728 2.32488 25.9896 2.32488C25.2988 4.74983 24.5794 7.16792 23.8801 9.59013H22.8508C22.3441 7.85072 21.8418 6.10953 21.3294 4.37286C21.2436 4.09184 21.2079 3.80123 21.1809 3.51062C21.141 3.76148 21.1039 4.01508 21.0366 4.26045C20.5185 6.03153 19.9932 7.79973 19.4894 9.57368C19.1469 9.5915 18.8042 9.59287 18.4617 9.59013C17.7266 7.16929 16.9972 4.74572 16.2649 2.32351ZM29.8407 5.22001C30.3303 4.38245 31.4722 3.99726 32.3928 4.3852C33.1251 4.65936 33.3977 5.47347 33.4205 6.16724C33.4604 7.30761 33.4277 8.44949 33.4377 9.59013C33.1522 9.59013 32.8667 9.59013 32.5812 9.58876C32.5683 8.49349 32.6112 7.39548 32.5611 6.30021C32.5383 5.75737 32.2985 5.10487 31.6834 4.96642C30.7856 4.70596 29.8892 5.48321 29.8605 6.33585C29.8348 7.42015 29.8591 8.50583 29.8505 9.59013H28.9941C28.9957 7.85332 28.9957 6.11789 28.9941 4.38108H29.8521C29.8507 4.66073 29.8492 4.94037 29.8407 5.22001ZM42.7456 4.25223C43.5092 4.1878 44.3555 4.30295 44.9295 4.83345C45.5775 5.40781 45.7702 6.30021 45.7345 7.11583C45.7245 7.84921 45.4419 8.59356 44.8824 9.10487C43.7148 10.1247 41.5466 9.9013 40.8056 8.49897C40.2234 7.32419 40.3403 5.69842 41.4037 4.80603C41.785 4.49623 42.2674 4.35504 42.7456 4.25223ZM42.5914 4.99794C41.3338 5.36943 41.1211 6.94722 41.5136 7.98492C41.8262 8.9061 43.0452 9.3146 43.9202 8.88417C44.5125 8.62234 44.7823 7.98081 44.8394 7.39274C44.9035 6.70596 44.8465 5.92748 44.3412 5.39136C43.9132 4.92803 43.1881 4.82796 42.5914 4.99794ZM55.7332 4.24949C56.2685 4.21385 56.8138 4.26319 57.3178 4.45236C57.4575 4.70733 57.3492 5.04181 57.382 5.32831C56.7811 4.96779 55.9531 4.73749 55.3009 5.10487C54.8541 5.3379 54.8327 6.02728 55.2681 6.28376C55.8918 6.67169 56.684 6.77313 57.2379 7.2721C57.8488 7.83687 57.7003 8.92255 56.9852 9.34613C56.1159 9.878 54.9712 9.82591 54.0605 9.42015C54.0605 9.11309 54.0591 8.80617 54.0534 8.49897C54.7014 8.97327 55.6121 9.23646 56.3871 8.89925C56.8396 8.68129 56.8624 8.01371 56.4642 7.73269C55.8404 7.2913 54.9856 7.22138 54.4316 6.67032C53.8851 6.14119 53.9834 5.16792 54.5931 4.71967C54.9082 4.4414 55.335 4.35778 55.7332 4.24949ZM26.7105 4.38245C26.9959 4.38108 27.2814 4.38108 27.5669 4.38108V9.59013H26.7105C26.7105 7.85332 26.7119 6.11789 26.7105 4.38245ZM46.0913 4.38108H46.9849C47.3389 5.62166 47.6816 6.86498 48.0426 8.10418C48.1154 8.33708 48.1425 8.57848 48.1682 8.81974C48.5721 7.3257 49.0831 5.85881 49.5413 4.37971L50.3222 4.38382C50.7147 5.86429 51.2029 7.32282 51.5282 8.81837C51.8638 7.33091 52.3404 5.87663 52.7131 4.39753C53 4.38382 53.2869 4.37971 53.5751 4.37697C53.0312 6.11391 52.5102 7.85607 51.9637 9.59013H51.0757C50.6903 8.1782 50.1908 6.79369 49.8782 5.36669C49.5056 6.79232 48.9889 8.17957 48.5636 9.59013H47.7057C47.169 7.85332 46.6209 6.12049 46.0913 4.38108ZM0 6.26456C1.69729 6.25908 3.3943 6.28513 5.09144 6.28238C5.09144 7.85881 5.09573 9.43523 5.09301 11.0117C3.39729 10.7703 1.69858 10.5593 0 10.3386V6.26456ZM5.69951 6.32762H12.4624C12.4653 8.21796 12.4624 10.1083 12.4624 12C10.2143 11.6765 7.96189 11.3763 5.7095 11.0831C5.70664 9.49829 5.70236 7.91364 5.69951 6.32762Z" fill="#00B8FF"/>
</svg>
