<svg width="55" height="29" viewBox="0 0 55 29" fill="none" xmlns="http://www.w3.org/2000/svg">
<path d="M5.25533 26.3196H49.7447C50.6649 26.3196 51.4131 25.7029 51.4131 24.9449V1.37491C51.4131 0.616747 50.6649 0 49.7447 0H5.25533C4.33535 0 3.58697 0.616747 3.58697 1.37491V24.9449C3.58697 25.7029 4.33584 26.3196 5.25533 26.3196ZM5.01699 1.37491C5.01699 1.26649 5.12376 1.1785 5.25533 1.1785H49.7447C49.8763 1.1785 49.9831 1.26649 49.9831 1.37491V24.9449C49.9831 25.0532 49.8763 25.1412 49.7447 25.1412H5.25533C5.12376 25.1412 5.01699 25.0532 5.01699 24.9449V1.37491ZM55 27.3717V28.4721C55 28.7635 54.7131 29 54.3592 29H0.640651C0.286956 29 0 28.7635 0 28.4721V27.3717H22.588C22.6996 27.6786 23.041 27.9037 23.4494 27.9037H31.551C31.959 27.9037 32.3004 27.679 32.4124 27.3717H55Z" fill="white"/>
<path d="M31.8811 23.6904C31.3583 23.7414 30.8314 23.7414 30.3085 23.6904C30.1309 23.6733 29.9853 23.542 29.9495 23.3667L31.8811 23.6904ZM31.8811 23.6904C32.0588 23.6733 32.2044 23.542 32.2401 23.3667L31.8811 23.6904ZM24.5119 18.5046L24.5231 18.4946L24.5337 18.484L34.0629 8.91878L34.0733 8.90832L34.0831 8.89726L34.3161 8.63402C34.722 8.82353 35.1102 9.04816 35.4761 9.30586L35.1987 10.1418L35.094 10.4572L35.3443 10.6759C35.5693 10.8724 35.7803 11.084 35.9763 11.3097L36.1953 11.5619L36.5121 11.4561L37.3431 11.1787C37.6003 11.5462 37.8245 11.9361 38.0135 12.3438L37.3569 12.9286L37.1089 13.1494L37.2162 13.4637C37.313 13.7469 37.3904 14.0362 37.4474 14.3295L37.5109 14.6567L37.8374 14.7239L38.6966 14.9007C38.736 15.3484 38.736 15.7989 38.6966 16.2465L37.8374 16.4234L37.5109 16.4906L37.4474 16.8177C37.3904 17.111 37.313 17.4004 37.2162 17.6836L37.1089 17.9978L37.3569 18.2186L38.0135 18.8034C37.8245 19.2112 37.6003 19.601 37.3431 19.9685L36.5121 19.6911L36.1953 19.5853L35.9763 19.8376C35.7803 20.0632 35.5693 20.2749 35.3443 20.4714L35.094 20.69L35.1987 21.0055L35.4761 21.8414C35.1101 22.0991 34.722 22.3237 34.316 22.5132L33.7342 21.856L33.5129 21.6061L33.1973 21.7146C32.9151 21.8116 32.6267 21.8892 32.3345 21.9463L32.0074 22.0102L31.9406 22.3367L31.7641 23.1992C31.3189 23.2385 30.8708 23.2385 30.4256 23.1992L30.2491 22.3367L30.1823 22.0102L29.8551 21.9463C29.5629 21.8892 29.2746 21.8116 28.9924 21.7146L28.6767 21.6061L28.4555 21.856L27.8736 22.5132C27.4677 22.3237 27.0795 22.0991 26.7136 21.8414L26.991 21.0055L27.0957 20.69L26.8454 20.4714C26.6204 20.2749 26.4094 20.0632 26.2134 19.8376L25.9944 19.5853L25.6775 19.6911L24.8465 19.9685C24.5894 19.601 24.3652 19.2112 24.1761 18.8034L24.5119 18.5046ZM38.7646 16.2325L38.7644 16.2325L38.7646 16.2325Z" stroke="white"/>
<path d="M26.8353 17.3799C27.5405 19.1018 29.2127 20.3197 31.1707 20.3197C33.7696 20.3197 35.8645 18.1757 35.8645 15.5523C35.8645 13.5674 34.6668 11.8589 32.9586 11.143L34.5259 9.54654C34.5294 9.54857 34.5329 9.55061 34.5363 9.55265L34.3706 10.0604C34.3706 10.0604 34.3705 10.0605 34.3705 10.0605C34.254 10.4173 34.3663 10.8132 34.6601 11.0528L26.8353 17.3799ZM26.8353 17.3799L25.2878 18.9559C25.2904 18.9604 25.293 18.965 25.2955 18.9695L25.779 18.806M26.8353 17.3799L25.779 18.806M35.5327 11.9409C35.2744 11.6131 34.9822 11.3157 34.6604 11.053L35.5327 11.9409ZM35.5327 11.9409C35.7677 12.2393 36.1647 12.3605 36.5276 12.2378C36.5276 12.2378 36.5276 12.2377 36.5277 12.2377L37.0112 12.0743C37.0123 12.0763 37.0135 12.0783 37.0147 12.0804L36.9632 12.1269L36.7293 12.3383L36.6523 12.4079L36.6307 12.4274L36.625 12.4326L36.6235 12.4339L36.6232 12.4342L36.6231 12.4343L36.6231 12.4343L36.9566 12.8035L36.9564 12.8033L36.623 12.4343L36.623 12.4344C36.3421 12.6883 36.2486 13.0891 36.3832 13.4405L36.3833 13.4407C36.5333 13.8319 36.6407 14.2396 36.7032 14.6548C36.759 15.0275 37.0386 15.3314 37.412 15.4102L37.4131 15.4104L37.918 15.5158C37.918 15.5198 37.918 15.5238 37.918 15.5279L37.8587 15.5403L37.5523 15.6042L37.4514 15.6253L37.4231 15.6312L37.4156 15.6328L37.4137 15.6332L37.4132 15.6333L37.4131 15.6333L37.4131 15.6333L37.5152 16.1228L37.4131 15.6333L37.412 15.6335C37.0386 15.7123 36.759 16.0162 36.7032 16.3889C36.6407 16.8042 36.5333 17.2118 36.3833 17.603L36.3832 17.6033C36.2486 17.9546 36.3421 18.3555 36.623 18.6094L36.623 18.6094L37.0147 18.9633C37.0135 18.9653 37.0123 18.9674 37.0112 18.9695L36.5277 18.806C36.5276 18.806 36.5276 18.806 36.5276 18.806C36.1647 18.6833 35.7677 18.8045 35.5327 19.1028V11.9409ZM34.534 21.484L34.3706 20.9834C34.3706 20.9833 34.3705 20.9833 34.3705 20.9832C34.254 20.6264 34.3664 20.2302 34.6604 19.9907M34.534 21.484L35.5325 19.1031C35.2743 19.4308 34.9821 19.7282 34.6604 19.9907M34.534 21.484L34.5016 21.4468L34.2939 21.2088L34.2254 21.1304L34.2063 21.1084L34.2012 21.1026L34.1999 21.1012L34.1996 21.1008L34.1995 21.1007L34.1995 21.1007L33.8256 21.4269L33.826 21.4265L34.1995 21.1007L34.1994 21.1006C33.9495 20.8143 33.5466 20.7131 33.19 20.8545L33.1897 20.8546C32.8068 21.0068 32.4079 21.1156 32.0019 21.1788L34.534 21.484ZM34.6604 19.9907L34.9759 20.3779L34.6601 19.9909C34.6602 19.9909 34.6603 19.9908 34.6604 19.9907ZM25.779 18.806C25.7791 18.806 25.7791 18.806 25.7791 18.806L25.779 18.806ZM30.3048 21.1788C29.8987 21.1156 29.4999 21.0068 29.1169 20.8546L29.1167 20.8545C28.7601 20.7131 28.3572 20.8143 28.1073 21.1006L28.1072 21.1007L27.7726 21.4841L27.9361 20.9834C27.9361 20.9833 27.9361 20.9833 27.9361 20.9833C27.9361 20.9833 27.9362 20.9833 27.9362 20.9832C28.0527 20.6265 27.9404 20.2305 27.6466 19.9909C27.3248 19.7283 27.0325 19.4309 26.7742 19.1031L30.3048 21.1788Z" stroke="white"/>
<path d="M33.8764 9.43007C33.8764 14.3685 29.9294 18.3601 25.0749 18.3601C20.2204 18.3601 16.2734 14.3685 16.2734 9.43007C16.2734 4.49163 20.2204 0.5 25.0749 0.5C29.9294 0.5 33.8764 4.49163 33.8764 9.43007Z" stroke="white"/>
<path d="M31.8518 9.42944C31.8518 13.2493 28.8087 16.3315 25.0724 16.3315C21.3361 16.3315 18.293 13.2493 18.293 9.42944C18.293 5.60961 21.3361 2.52734 25.0724 2.52734C28.8087 2.52734 31.8518 5.60961 31.8518 9.42944Z" stroke="white"/>
<path d="M25.977 3.39659C28.5536 3.79609 30.6007 5.87801 30.9888 8.51839C30.4856 8.52414 30.0945 8.93912 30.0945 9.43075C30.0945 9.92239 30.4856 10.3374 30.9888 10.3431C30.6007 12.9835 28.5536 15.0654 25.977 15.4649C25.9753 14.9713 25.5793 14.5558 25.0722 14.5558C24.565 14.5558 24.169 14.9713 24.1673 15.4649C21.5907 15.0654 19.5436 12.9835 19.1555 10.3431C19.6587 10.3374 20.0498 9.92239 20.0498 9.43075C20.0498 8.93912 19.6587 8.52414 19.1555 8.5184C19.5436 5.87801 21.5907 3.79609 24.1673 3.39659C24.169 3.89023 24.565 4.30574 25.0722 4.30574C25.5793 4.30574 25.9753 3.89023 25.977 3.39659Z" stroke="white"/>
<mask id="path-7-inside-1_3212_810" fill="white">
<path fill-rule="evenodd" clip-rule="evenodd" d="M25.623 8.30087C25.4636 8.22689 25.2846 8.18557 25.0959 8.18557C24.8855 8.18557 24.6878 8.23673 24.5149 8.32724L22.9379 6.80502C22.7789 6.65154 22.5204 6.65154 22.3614 6.80502C22.2024 6.9585 22.2024 7.20801 22.3614 7.36149L23.967 8.91126C23.9062 9.05136 23.8728 9.20523 23.8728 9.36619C23.8728 10.0179 24.4207 10.5468 25.0959 10.5468C25.771 10.5468 26.319 10.0179 26.319 9.36619C26.319 9.18398 26.2762 9.01122 26.1995 8.85734L28.7957 6.35127C28.9547 6.19779 28.9547 5.94867 28.7957 5.7948C28.6363 5.64132 28.3782 5.64132 28.2192 5.7948L25.623 8.30087ZM25.0959 8.97265C25.3209 8.97265 25.5036 9.14896 25.5036 9.36619C25.5036 9.58343 25.3209 9.75974 25.0959 9.75974C24.8708 9.75974 24.6882 9.58343 24.6882 9.36619C24.6882 9.14896 24.8708 8.97265 25.0959 8.97265Z"/>
</mask>
<path fill-rule="evenodd" clip-rule="evenodd" d="M25.623 8.30087C25.4636 8.22689 25.2846 8.18557 25.0959 8.18557C24.8855 8.18557 24.6878 8.23673 24.5149 8.32724L22.9379 6.80502C22.7789 6.65154 22.5204 6.65154 22.3614 6.80502C22.2024 6.9585 22.2024 7.20801 22.3614 7.36149L23.967 8.91126C23.9062 9.05136 23.8728 9.20523 23.8728 9.36619C23.8728 10.0179 24.4207 10.5468 25.0959 10.5468C25.771 10.5468 26.319 10.0179 26.319 9.36619C26.319 9.18398 26.2762 9.01122 26.1995 8.85734L28.7957 6.35127C28.9547 6.19779 28.9547 5.94867 28.7957 5.7948C28.6363 5.64132 28.3782 5.64132 28.2192 5.7948L25.623 8.30087ZM25.0959 8.97265C25.3209 8.97265 25.5036 9.14896 25.5036 9.36619C25.5036 9.58343 25.3209 9.75974 25.0959 9.75974C24.8708 9.75974 24.6882 9.58343 24.6882 9.36619C24.6882 9.14896 24.8708 8.97265 25.0959 8.97265Z" fill="#F1C237"/>
<path d="M25.623 8.30087L24.781 10.115L26.0252 10.6924L27.012 9.73985L25.623 8.30087ZM24.5149 8.32724L23.1259 9.76622L24.1642 10.7685L25.4426 10.099L24.5149 8.32724ZM22.3614 7.36149L20.9724 8.80046L20.9724 8.80047L22.3614 7.36149ZM23.967 8.91126L25.8019 9.70688L26.3534 8.43504L25.356 7.47228L23.967 8.91126ZM26.1995 8.85734L24.8105 7.41837L23.7556 8.43666L24.4093 9.74907L26.1995 8.85734ZM28.7957 6.35127L30.1847 7.79024L30.1847 7.79024L28.7957 6.35127ZM28.7957 5.7948L30.1866 4.3576L30.1829 4.35405L28.7957 5.7948ZM28.2192 5.7948L26.8302 4.35582L28.2192 5.7948ZM26.465 6.48674C26.0443 6.29148 25.5782 6.18557 25.0959 6.18557V10.1856C24.991 10.1856 24.8829 10.1623 24.781 10.115L26.465 6.48674ZM25.0959 6.18557C24.5581 6.18557 24.0425 6.31704 23.5872 6.55544L25.4426 10.099C25.3331 10.1564 25.2129 10.1856 25.0959 10.1856V6.18557ZM25.9039 6.88827L24.3269 5.36605L21.5489 8.244L23.1259 9.76622L25.9039 6.88827ZM24.3269 5.36605C23.393 4.46453 21.9064 4.46453 20.9724 5.36605L23.7505 8.244C23.1345 8.83855 22.1649 8.83855 21.5489 8.244L24.3269 5.36605ZM20.9724 5.36605C19.9988 6.30589 19.9988 7.86062 20.9724 8.80046L23.7505 5.92252C24.4061 6.5554 24.4061 7.61111 23.7505 8.244L20.9724 5.36605ZM20.9724 8.80047L22.5779 10.3502L25.356 7.47228L23.7504 5.92252L20.9724 8.80047ZM22.132 8.11564C21.9646 8.50171 21.8728 8.92597 21.8728 9.36619H25.8728C25.8728 9.4845 25.8478 9.60101 25.8019 9.70688L22.132 8.11564ZM21.8728 9.36619C21.8728 11.1885 23.3834 12.5468 25.0959 12.5468V8.54682C25.4581 8.54682 25.8728 8.8473 25.8728 9.36619H21.8728ZM25.0959 12.5468C26.8084 12.5468 28.319 11.1885 28.319 9.36619H24.319C24.319 8.8473 24.7337 8.54682 25.0959 8.54682V12.5468ZM28.319 9.36619C28.319 8.86733 28.2011 8.38999 27.9897 7.96562L24.4093 9.74907C24.3512 9.63244 24.319 9.50064 24.319 9.36619H28.319ZM27.5885 10.2963L30.1847 7.79024L27.4067 4.91229L24.8105 7.41837L27.5885 10.2963ZM30.1847 7.79024C31.1594 6.84939 31.1567 5.29648 30.1866 4.3576L27.4049 7.23199C26.7527 6.60087 26.75 5.54618 27.4067 4.91229L30.1847 7.79024ZM30.1829 4.35405C29.25 3.45586 27.7652 3.45335 26.8302 4.35582L29.6083 7.23377C28.9913 7.82928 28.0226 7.82678 27.4086 7.23555L30.1829 4.35405ZM26.8302 4.35582L24.234 6.8619L27.012 9.73985L29.6083 7.23377L26.8302 4.35582ZM25.0959 10.9727C24.2836 10.9727 23.5036 10.3196 23.5036 9.36619H27.5036C27.5036 7.97836 26.3583 6.97265 25.0959 6.97265V10.9727ZM23.5036 9.36619C23.5036 8.41283 24.2836 7.75974 25.0959 7.75974V11.7597C26.3583 11.7597 27.5036 10.754 27.5036 9.36619H23.5036ZM25.0959 7.75974C25.9082 7.75974 26.6882 8.41283 26.6882 9.36619H22.6882C22.6882 10.754 23.8335 11.7597 25.0959 11.7597V7.75974ZM26.6882 9.36619C26.6882 10.3196 25.9082 10.9727 25.0959 10.9727V6.97265C23.8335 6.97265 22.6882 7.97836 22.6882 9.36619H26.6882Z" fill="white" mask="url(#path-7-inside-1_3212_810)"/>
</svg>
